<?xml version="1.0" encoding="UTF-8"?>
<!DOCTYPE svg PUBLIC "-//W3C//DTD SVG 1.1//EN" "http://www.w3.org/Graphics/SVG/1.1/DTD/svg11.dtd">
<svg xmlns="http://www.w3.org/2000/svg" version="1.1" width="512px" height="512px" style="shape-rendering:geometricPrecision; text-rendering:geometricPrecision; image-rendering:optimizeQuality; fill-rule:evenodd; clip-rule:evenodd" xmlns:xlink="http://www.w3.org/1999/xlink">
<g><path style="opacity:0.997" fill="#bd8888" d="M 114.5,-0.5 C 129.833,-0.5 145.167,-0.5 160.5,-0.5C 152.702,7.7983 144.702,15.965 136.5,24C 126.55,26.1592 116.55,27.6592 106.5,28.5C 106.334,21.825 106.5,15.1583 107,8.5C 108.642,4.69966 111.142,1.69966 114.5,-0.5 Z"/></g>
<g><path style="opacity:1" fill="#b37b7b" d="M 160.5,-0.5 C 175.5,-0.5 190.5,-0.5 205.5,-0.5C 197.702,7.7983 189.702,15.965 181.5,24C 157.101,29.173 132.434,32.3397 107.5,33.5C 107.232,35.099 107.566,36.4324 108.5,37.5C 108.5,38.5 108.5,39.5 108.5,40.5C 107.778,40.0825 107.278,39.4158 107,38.5C 106.502,35.1832 106.335,31.8499 106.5,28.5C 116.55,27.6592 126.55,26.1592 136.5,24C 144.702,15.965 152.702,7.7983 160.5,-0.5 Z"/></g>
<g><path style="opacity:1" fill="#a96f6f" d="M 205.5,-0.5 C 219.167,-0.5 232.833,-0.5 246.5,-0.5C 238.702,7.7983 230.702,15.965 222.5,24C 212.177,27.4737 201.51,30.1404 190.5,32C 163.022,33.9276 135.688,35.7609 108.5,37.5C 107.566,36.4324 107.232,35.099 107.5,33.5C 132.434,32.3397 157.101,29.173 181.5,24C 189.702,15.965 197.702,7.7983 205.5,-0.5 Z"/></g>
<g><path style="opacity:1" fill="#a16666" d="M 246.5,-0.5 C 254.833,-0.5 263.167,-0.5 271.5,-0.5C 261.743,9.73428 253.077,18.5676 245.5,26C 238.833,28 232.167,30 225.5,32C 186.759,35.2068 148.092,37.7068 109.5,39.5C 109.5,40.5 109.5,41.5 109.5,42.5C 108.662,42.1583 108.328,41.4916 108.5,40.5C 108.5,39.5 108.5,38.5 108.5,37.5C 135.688,35.7609 163.022,33.9276 190.5,32C 201.51,30.1404 212.177,27.4737 222.5,24C 230.702,15.965 238.702,7.7983 246.5,-0.5 Z"/></g>
<g><path style="opacity:1" fill="#9a5e5d" d="M 271.5,-0.5 C 311.5,-0.5 351.5,-0.5 391.5,-0.5C 391.666,9.83871 391.5,20.172 391,30.5C 388.829,33.6078 385.829,35.2745 382,35.5C 321.481,33.2741 260.981,34.4408 200.5,39C 174.498,39.5715 148.498,40.2382 122.5,41C 118.044,40.8982 114.044,41.7316 110.5,43.5C 109.833,43.5 109.5,43.1667 109.5,42.5C 109.5,41.5 109.5,40.5 109.5,39.5C 148.092,37.7068 186.759,35.2068 225.5,32C 232.167,30 238.833,28 245.5,26C 253.077,18.5676 261.743,9.73428 271.5,-0.5 Z"/></g>
<g><path style="opacity:1" fill="#884c46" d="M 395.5,-0.5 C 396.167,-0.5 396.833,-0.5 397.5,-0.5C 397.833,0.166667 398.167,0.833333 398.5,1.5C 398.223,12.3615 398.557,23.1949 399.5,34C 398.939,39.2095 396.272,42.5428 391.5,44C 298.499,44.3986 205.499,44.8986 112.5,45.5C 111.508,45.6716 110.842,45.3382 110.5,44.5C 152.514,43.8524 194.514,42.6857 236.5,41C 287.167,40.6667 337.833,40.3333 388.5,40C 391.196,39.3102 393.363,37.8102 395,35.5C 395.5,23.5046 395.667,11.5046 395.5,-0.5 Z"/></g>
<g><path style="opacity:1" fill="#905451" d="M 391.5,-0.5 C 392.833,-0.5 394.167,-0.5 395.5,-0.5C 395.667,11.5046 395.5,23.5046 395,35.5C 393.363,37.8102 391.196,39.3102 388.5,40C 337.833,40.3333 287.167,40.6667 236.5,41C 194.514,42.6857 152.514,43.8524 110.5,44.5C 110.5,44.1667 110.5,43.8333 110.5,43.5C 114.044,41.7316 118.044,40.8982 122.5,41C 148.498,40.2382 174.498,39.5715 200.5,39C 260.981,34.4408 321.481,33.2741 382,35.5C 385.829,35.2745 388.829,33.6078 391,30.5C 391.5,20.172 391.666,9.83871 391.5,-0.5 Z"/></g>
<g><path style="opacity:1" fill="#80453d" d="M 398.5,1.5 C 401.176,3.02628 403.009,5.35961 404,8.5C 404.667,18.5 404.667,28.5 404,38.5C 402.129,44.8402 397.962,47.8402 391.5,47.5C 391.167,47.5 390.833,47.5 390.5,47.5C 382.833,47.5 375.167,47.5 367.5,47.5C 364.5,47.5 361.5,47.5 358.5,47.5C 279.167,47.5 199.833,47.5 120.5,47.5C 120.167,47.5 119.833,47.5 119.5,47.5C 117.473,47.6621 115.473,47.4955 113.5,47C 112.944,46.6174 112.611,46.1174 112.5,45.5C 205.499,44.8986 298.499,44.3986 391.5,44C 396.272,42.5428 398.939,39.2095 399.5,34C 398.557,23.1949 398.223,12.3615 398.5,1.5 Z"/></g>
<g><path style="opacity:1" fill="#f8ab78" d="M 120.5,47.5 C 199.833,47.5 279.167,47.5 358.5,47.5C 359.936,48.4286 361.269,49.5952 362.5,51C 360.381,51.3418 360.047,52.1751 361.5,53.5C 361.167,53.5 360.833,53.5 360.5,53.5C 280.5,53.5 200.5,53.5 120.5,53.5C 120.5,51.5 120.5,49.5 120.5,47.5 Z"/></g>
<g><path style="opacity:1" fill="#fabc85" d="M 120.5,53.5 C 200.5,53.5 280.5,53.5 360.5,53.5C 361.11,54.391 361.443,55.391 361.5,56.5C 360.262,56.81 360.262,57.31 361.5,58C 360.552,58.4828 359.552,58.6495 358.5,58.5C 312.505,57.6852 266.505,57.3519 220.5,57.5C 187.171,56.7996 153.838,56.4663 120.5,56.5C 120.5,55.5 120.5,54.5 120.5,53.5 Z"/></g>
<g><path style="opacity:1" fill="#fbc997" d="M 119.5,47.5 C 119.833,47.5 120.167,47.5 120.5,47.5C 120.5,49.5 120.5,51.5 120.5,53.5C 120.5,54.5 120.5,55.5 120.5,56.5C 153.838,56.4663 187.171,56.7996 220.5,57.5C 230.992,58.3304 241.659,58.8304 252.5,59C 241.5,59.3333 230.5,59.6667 219.5,60C 238.68,60.3578 257.68,61.1911 276.5,62.5C 267.833,62.5 259.167,62.5 250.5,62.5C 207.169,61.9304 163.836,61.5971 120.5,61.5C 120.737,60.209 120.404,59.209 119.5,58.5C 119.5,54.8333 119.5,51.1667 119.5,47.5 Z"/></g>
<g><path style="opacity:1" fill="#fbc78d" d="M 220.5,57.5 C 266.505,57.3519 312.505,57.6852 358.5,58.5C 359.167,59.1667 359.833,59.8333 360.5,60.5C 359.761,60.369 359.094,60.5357 358.5,61C 359.672,61.4186 360.672,62.0853 361.5,63C 361.272,63.3988 360.938,63.5654 360.5,63.5C 332.544,62.5168 304.544,62.1835 276.5,62.5C 257.68,61.1911 238.68,60.3578 219.5,60C 230.5,59.6667 241.5,59.3333 252.5,59C 241.659,58.8304 230.992,58.3304 220.5,57.5 Z"/></g>
<g><path style="opacity:1" fill="#fcd4a3" d="M 119.5,58.5 C 120.404,59.209 120.737,60.209 120.5,61.5C 163.836,61.5971 207.169,61.9304 250.5,62.5C 258.657,63.3294 266.99,63.8294 275.5,64C 266.833,64.3333 258.167,64.6667 249.5,65C 264.351,65.3447 279.018,66.1781 293.5,67.5C 289.167,67.5 284.833,67.5 280.5,67.5C 226.775,65.9501 173.109,64.6167 119.5,63.5C 119.5,61.8333 119.5,60.1667 119.5,58.5 Z"/></g>
<g><path style="opacity:1" fill="#f9ab61" d="M 358.5,47.5 C 361.5,47.5 364.5,47.5 367.5,47.5C 376.939,49.25 384.272,54.25 389.5,62.5C 390.494,57.544 390.827,52.544 390.5,47.5C 390.833,47.5 391.167,47.5 391.5,47.5C 391.5,55.5 391.5,63.5 391.5,71.5C 390.837,73.0419 390.17,74.7086 389.5,76.5C 389.167,76.3333 388.833,76.1667 388.5,76C 383.241,63.8991 374.241,56.3991 361.5,53.5C 360.047,52.1751 360.381,51.3418 362.5,51C 361.269,49.5952 359.936,48.4286 358.5,47.5 Z"/></g>
<g><path style="opacity:1" fill="#f79c52" d="M 367.5,47.5 C 375.167,47.5 382.833,47.5 390.5,47.5C 390.827,52.544 390.494,57.544 389.5,62.5C 384.272,54.25 376.939,49.25 367.5,47.5 Z"/></g>
<g><path style="opacity:1" fill="#fde4ba" d="M 119.5,68.5 C 176.702,68.6493 233.702,70.3159 290.5,73.5C 268.833,73.5 247.167,73.5 225.5,73.5C 190.097,73.103 154.764,72.4363 119.5,71.5C 119.5,70.5 119.5,69.5 119.5,68.5 Z"/></g>
<g><path style="opacity:1" fill="#fde0b0" d="M 119.5,63.5 C 173.109,64.6167 226.775,65.9501 280.5,67.5C 295.158,68.6596 309.824,69.6596 324.5,70.5C 315.827,70.3336 307.16,70.5002 298.5,71C 318.54,71.2512 338.54,72.2512 358.5,74C 359.056,74.3826 359.389,74.8826 359.5,75.5C 336.524,74.3439 313.524,73.6772 290.5,73.5C 233.702,70.3159 176.702,68.6493 119.5,68.5C 119.5,66.8333 119.5,65.1667 119.5,63.5 Z"/></g>
<g><path style="opacity:1" fill="#feecc7" d="M 119.5,71.5 C 154.764,72.4363 190.097,73.103 225.5,73.5C 255.671,74.9761 286.004,76.3094 316.5,77.5C 314.192,78.7928 311.858,80.1261 309.5,81.5C 299.426,81.5788 289.426,80.9121 279.5,79.5C 278.078,79.2914 276.745,78.7914 275.5,78C 261.134,77.2178 246.801,77.3844 232.5,78.5C 194.908,75.9584 157.241,74.9584 119.5,75.5C 119.5,74.1667 119.5,72.8333 119.5,71.5 Z"/></g>
<g><path style="opacity:1" fill="#fedfa2" d="M 280.5,67.5 C 284.833,67.5 289.167,67.5 293.5,67.5C 315.169,67.3334 336.836,67.5 358.5,68C 364.29,72.4563 369.456,77.6229 374,83.5C 373.061,160.826 372.561,238.159 372.5,315.5C 371.167,315.5 369.833,315.5 368.5,315.5C 368.5,238.492 369,161.492 370,84.5C 366.272,79.1936 361.772,74.6936 356.5,71C 345.839,70.5002 335.172,70.3335 324.5,70.5C 309.824,69.6596 295.158,68.6596 280.5,67.5 Z"/></g>
<g><path style="opacity:1" fill="#fde9b6" d="M 225.5,73.5 C 247.167,73.5 268.833,73.5 290.5,73.5C 313.524,73.6772 336.524,74.3439 359.5,75.5C 362.832,78 365.666,81 368,84.5C 368.172,129.001 367.672,173.334 366.5,217.5C 366.5,208.833 366.5,200.167 366.5,191.5C 366.5,189.167 366.5,186.833 366.5,184.5C 366.59,181.848 365.924,179.515 364.5,177.5C 363.5,176.167 362.5,174.833 361.5,173.5C 361.5,160.833 361.5,148.167 361.5,135.5C 363.488,133.535 364.988,131.202 366,128.5C 366.5,118.506 366.666,108.506 366.5,98.5C 366.817,94.2984 366.483,90.2984 365.5,86.5C 363.679,82.5147 360.679,79.6814 356.5,78C 343.171,77.5001 329.837,77.3334 316.5,77.5C 286.004,76.3094 255.671,74.9761 225.5,73.5 Z"/></g>
<g><path style="opacity:1" fill="#fdd799" d="M 250.5,62.5 C 259.167,62.5 267.833,62.5 276.5,62.5C 304.544,62.1835 332.544,62.5168 360.5,63.5C 360.5,64.1667 360.833,64.5 361.5,64.5C 365.775,69.2773 370.275,73.9439 375,78.5C 375.973,80.3921 376.64,82.3921 377,84.5C 375.79,161.487 375.29,238.487 375.5,315.5C 374.5,315.5 373.5,315.5 372.5,315.5C 372.561,238.159 373.061,160.826 374,83.5C 369.456,77.6229 364.29,72.4563 358.5,68C 336.836,67.5 315.169,67.3334 293.5,67.5C 279.018,66.1781 264.351,65.3447 249.5,65C 258.167,64.6667 266.833,64.3333 275.5,64C 266.99,63.8294 258.657,63.3294 250.5,62.5 Z"/></g>
<g><path style="opacity:1" fill="#52bce0" d="M 281.5,82.5 C 283.262,83.2623 284.262,84.5956 284.5,86.5C 284.649,87.552 284.483,88.552 284,89.5C 276.929,87.8024 269.762,86.9691 262.5,87C 265.257,87.8779 267.924,88.8779 270.5,90C 267.151,90.3876 263.817,90.2209 260.5,89.5C 253.241,87.895 245.907,87.395 238.5,88C 236.018,89.2391 234.685,91.2391 234.5,94C 235.485,97.7845 236.151,101.618 236.5,105.5C 236.334,114.173 236.5,122.84 237,131.5C 237.383,132.056 237.883,132.389 238.5,132.5C 238.5,134.167 238.5,135.833 238.5,137.5C 241.167,137.5 243.833,137.5 246.5,137.5C 255.833,137.5 265.167,137.5 274.5,137.5C 263.679,138.495 252.679,138.828 241.5,138.5C 236.59,138.759 232.59,137.093 229.5,133.5C 230.164,130.854 230.498,128.021 230.5,125C 228.949,112.87 228.449,100.704 229,88.5C 231.624,85.5434 234.79,83.3767 238.5,82C 250.252,81.1424 261.919,81.6424 273.5,83.5C 276.355,83.4975 279.022,83.1641 281.5,82.5 Z"/></g>
<g><path style="opacity:1" fill="#fdf7d8" d="M 279.5,79.5 C 289.426,80.9121 299.426,81.5788 309.5,81.5C 308.928,83.2554 308.094,84.9221 307,86.5C 306.333,100.5 306.333,114.5 307,128.5C 307.566,131.229 309.066,133.229 311.5,134.5C 311.973,135.906 312.973,136.573 314.5,136.5C 315.671,137.345 317.005,138.011 318.5,138.5C 308.102,161.518 297.602,184.518 287,207.5C 286.821,211.025 286.321,214.359 285.5,217.5C 285.5,208.833 285.5,200.167 285.5,191.5C 285.5,189.167 285.5,186.833 285.5,184.5C 285.982,181.169 284.982,178.503 282.5,176.5C 278.187,171.074 272.521,169.074 265.5,170.5C 270.831,158.504 276.164,146.504 281.5,134.5C 283.18,132.473 284.347,130.139 285,127.5C 285.5,117.839 285.666,108.172 285.5,98.5C 285.5,96.1667 285.5,93.8333 285.5,91.5C 285.784,89.5853 285.451,87.9187 284.5,86.5C 284.262,84.5956 283.262,83.2623 281.5,82.5C 280.833,81.5 280.167,80.5 279.5,79.5 Z"/></g>
<g><path style="opacity:1" fill="#f9b475" d="M 360.5,53.5 C 360.833,53.5 361.167,53.5 361.5,53.5C 374.241,56.3991 383.241,63.8991 388.5,76C 388.833,76.1667 389.167,76.3333 389.5,76.5C 390.17,74.7086 390.837,73.0419 391.5,71.5C 391.5,104.833 391.5,138.167 391.5,171.5C 391.5,181.5 391.5,191.5 391.5,201.5C 391.5,246.5 391.5,291.5 391.5,336.5C 389.833,336.5 388.167,336.5 386.5,336.5C 386.667,251.166 386.5,165.833 386,80.5C 380.245,69.9464 372.079,61.9464 361.5,56.5C 361.443,55.391 361.11,54.391 360.5,53.5 Z"/></g>
<g><path style="opacity:0.987" fill="#fefcef" d="M 119.5,79.5 C 129.418,80.4741 139.418,80.8074 149.5,80.5C 147.832,82.34 146.332,84.34 145,86.5C 144.333,100.5 144.333,114.5 145,128.5C 146.744,133.079 149.91,136.079 154.5,137.5C 155.391,138.11 156.391,138.443 157.5,138.5C 145.347,164.807 133.181,191.14 121,217.5C 120.831,202.328 120.331,187.328 119.5,172.5C 119.5,172.167 119.5,171.833 119.5,171.5C 119.5,140.833 119.5,110.167 119.5,79.5 Z"/></g>
<g><path style="opacity:1" fill="#fccb87" d="M 360.5,60.5 C 371.542,64.0417 378.708,71.375 382,82.5C 382.5,160.166 382.667,237.833 382.5,315.5C 381.5,315.5 380.5,315.5 379.5,315.5C 379.667,237.499 379.5,159.499 379,81.5C 375.174,77.0065 371.341,72.5065 367.5,68C 365.595,66.5787 363.595,65.412 361.5,64.5C 360.833,64.5 360.5,64.1667 360.5,63.5C 360.938,63.5654 361.272,63.3988 361.5,63C 360.672,62.0853 359.672,61.4186 358.5,61C 359.094,60.5357 359.761,60.369 360.5,60.5 Z"/></g>
<g><path style="opacity:1" fill="#fdf9e2" d="M 119.5,75.5 C 157.241,74.9584 194.908,75.9584 232.5,78.5C 229.819,80.6877 227.652,83.3544 226,86.5C 225.333,100.5 225.333,114.5 226,128.5C 226.223,130.881 227.39,132.547 229.5,133.5C 232.59,137.093 236.59,138.759 241.5,138.5C 229.132,165.231 216.799,191.898 204.5,218.5C 204.5,207.167 204.5,195.833 204.5,184.5C 204.5,184.167 204.5,183.833 204.5,183.5C 204.498,179.835 203.165,176.835 200.5,174.5C 194.782,170.84 188.449,169.506 181.5,170.5C 186.774,159.619 191.774,148.619 196.5,137.5C 199.858,135.3 202.358,132.3 204,128.5C 204.5,118.506 204.666,108.506 204.5,98.5C 204.817,94.2984 204.483,90.2984 203.5,86.5C 201.882,82.3317 198.882,79.4984 194.5,78C 181.167,77.3333 167.833,77.3333 154.5,78C 152.807,78.8466 151.14,79.6799 149.5,80.5C 139.418,80.8074 129.418,80.4741 119.5,79.5C 119.5,78.1667 119.5,76.8333 119.5,75.5 Z"/></g>
<g><path style="opacity:1" fill="#58c0e3" d="M 187.5,86.5 C 185.5,86.5 183.5,86.5 181.5,86.5C 173.493,86.3336 165.493,86.5003 157.5,87C 156.382,88.0736 155.382,89.2402 154.5,90.5C 153.338,95.1313 153.172,99.798 154,104.5C 155.806,110.387 156.972,116.387 157.5,122.5C 156.71,121.391 156.21,120.058 156,118.5C 155.802,120.382 155.302,122.048 154.5,123.5C 152.722,120.348 151.222,117.015 150,113.5C 149.333,105.167 149.333,96.8333 150,88.5C 152.167,87.6667 153.667,86.1667 154.5,84C 165.835,81.8079 176.835,82.6412 187.5,86.5 Z"/></g>
<g><path style="opacity:1" fill="#40a8cf" d="M 279.5,79.5 C 280.167,80.5 280.833,81.5 281.5,82.5C 279.022,83.1641 276.355,83.4975 273.5,83.5C 261.919,81.6424 250.252,81.1424 238.5,82C 234.79,83.3767 231.624,85.5434 229,88.5C 228.449,100.704 228.949,112.87 230.5,125C 230.498,128.021 230.164,130.854 229.5,133.5C 227.39,132.547 226.223,130.881 226,128.5C 225.333,114.5 225.333,100.5 226,86.5C 227.652,83.3544 229.819,80.6877 232.5,78.5C 246.801,77.3844 261.134,77.2178 275.5,78C 276.745,78.7914 278.078,79.2914 279.5,79.5 Z"/></g>
<g><path style="opacity:1" fill="#3faad1" d="M 316.5,77.5 C 329.837,77.3334 343.171,77.5001 356.5,78C 360.679,79.6814 363.679,82.5147 365.5,86.5C 357.592,85.8563 349.592,85.8563 341.5,86.5C 338.797,85.037 335.797,84.2037 332.5,84C 324.109,81.839 316.943,83.6723 311,89.5C 309.85,103.312 310.684,116.979 313.5,130.5C 313.415,132.333 312.748,133.666 311.5,134.5C 309.066,133.229 307.566,131.229 307,128.5C 306.333,114.5 306.333,100.5 307,86.5C 308.094,84.9221 308.928,83.2554 309.5,81.5C 311.858,80.1261 314.192,78.7928 316.5,77.5 Z"/></g>
<g><path style="opacity:1" fill="#3eaad2" d="M 203.5,86.5 C 203.649,87.552 203.483,88.552 203,89.5C 197.97,87.9275 192.803,86.9275 187.5,86.5C 176.835,82.6412 165.835,81.8079 154.5,84C 153.667,86.1667 152.167,87.6667 150,88.5C 149.333,96.8333 149.333,105.167 150,113.5C 151.222,117.015 152.722,120.348 154.5,123.5C 154.5,128.167 154.5,132.833 154.5,137.5C 149.91,136.079 146.744,133.079 145,128.5C 144.333,114.5 144.333,100.5 145,86.5C 146.332,84.34 147.832,82.34 149.5,80.5C 151.14,79.6799 152.807,78.8466 154.5,78C 167.833,77.3333 181.167,77.3333 194.5,78C 198.882,79.4984 201.882,82.3317 203.5,86.5 Z"/></g>
<g><path style="opacity:1" fill="#5ed5f9" d="M 181.5,86.5 C 181.918,87.2216 182.584,87.7216 183.5,88C 182.833,88.3333 182.167,88.6667 181.5,89C 184.44,90.1524 187.44,91.1524 190.5,92C 180.167,102.333 169.833,112.667 159.5,123C 158.563,123.692 157.897,123.525 157.5,122.5C 156.972,116.387 155.806,110.387 154,104.5C 153.172,99.798 153.338,95.1313 154.5,90.5C 155.382,89.2402 156.382,88.0736 157.5,87C 165.493,86.5003 173.493,86.3336 181.5,86.5 Z"/></g>
<g><path style="opacity:1" fill="#76daf8" d="M 260.5,89.5 C 254.419,95.0562 247.586,101.723 240,109.5C 238.595,108.269 237.429,106.936 236.5,105.5C 236.151,101.618 235.485,97.7845 234.5,94C 234.685,91.2391 236.018,89.2391 238.5,88C 245.907,87.395 253.241,87.895 260.5,89.5 Z"/></g>
<g><path style="opacity:1" fill="#5fd5f9" d="M 336.5,87.5 C 341.802,88.8092 347.136,90.1426 352.5,91.5C 342.348,102.153 332.014,112.653 321.5,123C 320.517,123.591 319.85,123.257 319.5,122C 318.873,119.865 318.373,117.698 318,115.5C 317.617,114.944 317.117,114.611 316.5,114.5C 316.351,107.952 315.684,101.452 314.5,95C 314.956,89.8976 317.623,86.731 322.5,85.5C 327.163,86.2614 331.83,86.9281 336.5,87.5 Z"/></g>
<g><path style="opacity:1" fill="#3ecbf7" d="M 365.5,86.5 C 366.483,90.2984 366.817,94.2984 366.5,98.5C 353.368,111.131 340.368,123.965 327.5,137C 336.827,137.5 346.161,137.666 355.5,137.5C 343.345,138.495 331.011,138.829 318.5,138.5C 317.005,138.011 315.671,137.345 314.5,136.5C 315.162,134.696 315.495,132.696 315.5,130.5C 314.402,124.19 313.902,117.856 314,111.5C 314.219,112.938 314.719,114.271 315.5,115.5C 316.107,115.376 316.44,115.043 316.5,114.5C 317.117,114.611 317.617,114.944 318,115.5C 318.373,117.698 318.873,119.865 319.5,122C 319.85,123.257 320.517,123.591 321.5,123C 332.014,112.653 342.348,102.153 352.5,91.5C 347.136,90.1426 341.802,88.8092 336.5,87.5C 337.919,86.5489 339.585,86.2155 341.5,86.5C 349.592,85.8563 357.592,85.8563 365.5,86.5 Z"/></g>
<g><path style="opacity:1" fill="#2bcafa" d="M 285.5,91.5 C 285.5,93.8333 285.5,96.1667 285.5,98.5C 272.167,111.167 259.167,124.167 246.5,137.5C 243.833,137.5 241.167,137.5 238.5,137.5C 238.5,135.833 238.5,134.167 238.5,132.5C 252.299,119.202 265.965,105.702 279.5,92C 281.473,91.5045 283.473,91.3379 285.5,91.5 Z"/></g>
<g><path style="opacity:1" fill="#57bee1" d="M 341.5,86.5 C 339.585,86.2155 337.919,86.5489 336.5,87.5C 331.83,86.9281 327.163,86.2614 322.5,85.5C 317.623,86.731 314.956,89.8976 314.5,95C 315.684,101.452 316.351,107.952 316.5,114.5C 316.44,115.043 316.107,115.376 315.5,115.5C 314.719,114.271 314.219,112.938 314,111.5C 313.902,117.856 314.402,124.19 315.5,130.5C 315.495,132.696 315.162,134.696 314.5,136.5C 312.973,136.573 311.973,135.906 311.5,134.5C 312.748,133.666 313.415,132.333 313.5,130.5C 310.684,116.979 309.85,103.312 311,89.5C 316.943,83.6723 324.109,81.839 332.5,84C 335.797,84.2037 338.797,85.037 341.5,86.5 Z"/></g>
<g><path style="opacity:1" fill="#0ac1f9" d="M 204.5,98.5 C 204.666,108.506 204.5,118.506 204,128.5C 202.358,132.3 199.858,135.3 196.5,137.5C 195.5,137.5 194.5,137.5 193.5,137.5C 184.161,137.666 174.827,137.5 165.5,137C 178.368,123.965 191.368,111.131 204.5,98.5 Z"/></g>
<g><path style="opacity:1" fill="#0ac1f9" d="M 285.5,98.5 C 285.666,108.172 285.5,117.839 285,127.5C 284.347,130.139 283.18,132.473 281.5,134.5C 279.539,136.312 277.206,137.312 274.5,137.5C 265.167,137.5 255.833,137.5 246.5,137.5C 259.167,124.167 272.167,111.167 285.5,98.5 Z"/></g>
<g><path style="opacity:1" fill="#0cc1f9" d="M 366.5,98.5 C 366.666,108.506 366.5,118.506 366,128.5C 364.988,131.202 363.488,133.535 361.5,135.5C 359.703,136.73 357.703,137.396 355.5,137.5C 346.161,137.666 336.827,137.5 327.5,137C 340.368,123.965 353.368,111.131 366.5,98.5 Z"/></g>
<g><path style="opacity:1" fill="#fcd18e" d="M 361.5,64.5 C 363.595,65.412 365.595,66.5787 367.5,68C 371.341,72.5065 375.174,77.0065 379,81.5C 379.5,159.499 379.667,237.499 379.5,315.5C 378.167,315.5 376.833,315.5 375.5,315.5C 375.29,238.487 375.79,161.487 377,84.5C 376.64,82.3921 375.973,80.3921 375,78.5C 370.275,73.9439 365.775,69.2773 361.5,64.5 Z"/></g>
<g><path style="opacity:1" fill="#3eccf9" d="M 181.5,86.5 C 183.5,86.5 185.5,86.5 187.5,86.5C 192.803,86.9275 197.97,87.9275 203,89.5C 203.483,88.552 203.649,87.552 203.5,86.5C 204.483,90.2984 204.817,94.2984 204.5,98.5C 191.368,111.131 178.368,123.965 165.5,137C 174.827,137.5 184.161,137.666 193.5,137.5C 181.678,138.495 169.678,138.828 157.5,138.5C 156.391,138.443 155.391,138.11 154.5,137.5C 154.5,132.833 154.5,128.167 154.5,123.5C 155.302,122.048 155.802,120.382 156,118.5C 156.21,120.058 156.71,121.391 157.5,122.5C 157.897,123.525 158.563,123.692 159.5,123C 169.833,112.667 180.167,102.333 190.5,92C 187.44,91.1524 184.44,90.1524 181.5,89C 182.167,88.6667 182.833,88.3333 183.5,88C 182.584,87.7216 181.918,87.2216 181.5,86.5 Z"/></g>
<g><path style="opacity:1" fill="#49d0f9" d="M 284.5,86.5 C 285.451,87.9187 285.784,89.5853 285.5,91.5C 283.473,91.3379 281.473,91.5045 279.5,92C 265.965,105.702 252.299,119.202 238.5,132.5C 237.883,132.389 237.383,132.056 237,131.5C 236.5,122.84 236.334,114.173 236.5,105.5C 237.429,106.936 238.595,108.269 240,109.5C 247.586,101.723 254.419,95.0562 260.5,89.5C 263.817,90.2209 267.151,90.3876 270.5,90C 267.924,88.8779 265.257,87.8779 262.5,87C 269.762,86.9691 276.929,87.8024 284,89.5C 284.483,88.552 284.649,87.552 284.5,86.5 Z"/></g>
<g><path style="opacity:1" fill="#fbc27e" d="M 361.5,56.5 C 372.079,61.9464 380.245,69.9464 386,80.5C 386.5,165.833 386.667,251.166 386.5,336.5C 381.5,336.5 376.5,336.5 371.5,336.5C 371.5,333.833 371.5,331.167 371.5,328.5C 375.767,328.797 379.934,328.464 384,327.5C 386.216,323.132 385.716,319.132 382.5,315.5C 382.667,237.833 382.5,160.166 382,82.5C 378.708,71.375 371.542,64.0417 360.5,60.5C 359.833,59.8333 359.167,59.1667 358.5,58.5C 359.552,58.6495 360.552,58.4828 361.5,58C 360.262,57.31 360.262,56.81 361.5,56.5 Z"/></g>
<g><path style="opacity:1" fill="#fefae8" d="M 193.5,137.5 C 194.5,137.5 195.5,137.5 196.5,137.5C 191.774,148.619 186.774,159.619 181.5,170.5C 172.494,170.334 163.494,170.5 154.5,171C 150.388,172.779 147.222,175.612 145,179.5C 144.333,193.5 144.333,207.5 145,221.5C 146.347,225.344 148.847,228.011 152.5,229.5C 152.5,230.167 152.833,230.5 153.5,230.5C 149.599,240.633 144.932,250.3 139.5,259.5C 136.482,259.335 133.482,259.502 130.5,260C 129.333,260.5 128.5,261.333 128,262.5C 127.171,283.671 127.337,304.671 128.5,325.5C 128.5,325.833 128.5,326.167 128.5,326.5C 128.5,329.833 128.5,333.167 128.5,336.5C 125.5,336.5 122.5,336.5 119.5,336.5C 119.5,291.5 119.5,246.5 119.5,201.5C 119.5,191.833 119.5,182.167 119.5,172.5C 120.331,187.328 120.831,202.328 121,217.5C 133.181,191.14 145.347,164.807 157.5,138.5C 169.678,138.828 181.678,138.495 193.5,137.5 Z"/></g>
<g><path style="opacity:1" fill="#fef6d0" d="M 361.5,135.5 C 361.5,148.167 361.5,160.833 361.5,173.5C 359.86,172.68 358.193,171.847 356.5,171C 343.167,170.333 329.833,170.333 316.5,171C 312.212,172.564 309.045,175.397 307,179.5C 306.333,193.5 306.333,207.5 307,221.5C 308.614,225.277 311.114,228.277 314.5,230.5C 310.897,239.63 306.897,248.63 302.5,257.5C 300.709,258.17 299.042,258.837 297.5,259.5C 295.629,259.859 294.129,260.859 293,262.5C 292.171,283.671 292.337,304.671 293.5,325.5C 294.262,327.262 295.596,328.262 297.5,328.5C 300.962,329.482 304.629,329.815 308.5,329.5C 308.5,331.833 308.5,334.167 308.5,336.5C 295.167,336.5 281.833,336.5 268.5,336.5C 268.5,333.5 268.5,330.5 268.5,327.5C 269.43,320.223 269.764,312.89 269.5,305.5C 269.5,294.5 269.5,283.5 269.5,272.5C 274.511,272.666 279.511,272.499 284.5,272C 286.523,268.817 287.023,265.317 286,261.5C 285.292,260.619 284.458,259.953 283.5,259.5C 277.013,258.672 270.346,258.172 263.5,258C 268.197,249.109 272.197,239.942 275.5,230.5C 281.805,228.521 285.138,224.187 285.5,217.5C 286.321,214.359 286.821,211.025 287,207.5C 297.602,184.518 308.102,161.518 318.5,138.5C 331.011,138.829 343.345,138.495 355.5,137.5C 357.703,137.396 359.703,136.73 361.5,135.5 Z"/></g>
<g><path style="opacity:1" fill="#fef9df" d="M 281.5,134.5 C 276.164,146.504 270.831,158.504 265.5,170.5C 255.494,170.334 245.494,170.5 235.5,171C 232.098,172.4 229.264,174.567 227,177.5C 225.367,192.073 225.034,206.74 226,221.5C 226.566,224.229 228.066,226.229 230.5,227.5C 232.336,229.588 234.669,230.921 237.5,231.5C 232.562,241.71 227.895,252.044 223.5,262.5C 216.147,259.583 208.48,258.75 200.5,260C 192.322,262.502 187.488,268.002 186,276.5C 185.174,288.008 185.341,299.341 186.5,310.5C 187.533,320.527 192.866,326.861 202.5,329.5C 202.5,331.833 202.5,334.167 202.5,336.5C 193.5,336.5 184.5,336.5 175.5,336.5C 175.5,333.5 175.5,330.5 175.5,327.5C 176.452,317.218 176.786,306.885 176.5,296.5C 176.821,284.586 176.488,272.753 175.5,261C 170.889,258.884 166.389,259.051 162,261.5C 161.5,269.827 161.334,278.16 161.5,286.5C 155.167,286.5 148.833,286.5 142.5,286.5C 142.666,278.16 142.5,269.827 142,261.5C 141.005,260.934 140.172,260.267 139.5,259.5C 144.932,250.3 149.599,240.633 153.5,230.5C 166.425,231.646 179.425,231.813 192.5,231C 199.394,229.606 203.394,225.439 204.5,218.5C 216.799,191.898 229.132,165.231 241.5,138.5C 252.679,138.828 263.679,138.495 274.5,137.5C 277.206,137.312 279.539,136.312 281.5,134.5 Z"/></g>
<g><path style="opacity:1" fill="#3faad2" d="M 181.5,170.5 C 188.449,169.506 194.782,170.84 200.5,174.5C 200.38,175.586 199.713,176.253 198.5,176.5C 188.873,175.392 179.206,174.725 169.5,174.5C 160.245,172.09 153.745,175.09 150,183.5C 149.154,192.933 149.654,202.267 151.5,211.5C 152.035,216.176 152.701,220.843 153.5,225.5C 153.489,227.045 153.156,228.378 152.5,229.5C 148.847,228.011 146.347,225.344 145,221.5C 144.333,207.5 144.333,193.5 145,179.5C 147.222,175.612 150.388,172.779 154.5,171C 163.494,170.5 172.494,170.334 181.5,170.5 Z"/></g>
<g><path style="opacity:0.985" fill="#c49090" d="M 119.5,171.5 C 119.5,171.833 119.5,172.167 119.5,172.5C 119.5,182.167 119.5,191.833 119.5,201.5C 117.901,201.232 116.568,201.566 115.5,202.5C 114.041,202.433 112.708,202.766 111.5,203.5C 109.597,203.796 107.93,204.463 106.5,205.5C 105.041,205.433 103.708,205.766 102.5,206.5C 100.847,206.66 99.5137,207.326 98.5,208.5C 96.847,208.66 95.5137,209.326 94.5,210.5C 92.847,210.66 91.5137,211.326 90.5,212.5C 84.4845,215.009 78.8178,218.176 73.5,222C 65.367,228.299 57.7003,235.132 50.5,242.5C 37.2202,247.538 24.0535,252.871 11,258.5C 10.6174,257.944 10.1174,257.611 9.5,257.5C 26.9668,216.535 56.9668,189.368 99.5,176C 106.142,174.305 112.809,172.805 119.5,171.5 Z"/></g>
<g><path style="opacity:0.99" fill="#a66b6b" d="M 404.5,174.5 C 433.04,181.402 457.04,195.735 476.5,217.5C 466.651,221.264 456.985,225.264 447.5,229.5C 437.172,220.996 425.838,213.996 413.5,208.5C 413.167,208.5 412.833,208.5 412.5,208.5C 411.5,207.833 410.5,207.167 409.5,206.5C 409.938,206.565 410.272,206.399 410.5,206C 409.065,197.251 407.899,188.418 407,179.5C 406.665,177.497 405.832,175.83 404.5,174.5 Z"/></g>
<g><path style="opacity:1" fill="#44b0d6" d="M 361.5,173.5 C 362.5,174.833 363.5,176.167 364.5,177.5C 363.903,178.139 363.07,178.472 362,178.5C 351.844,177.14 341.677,176.306 331.5,176C 332.571,176.852 333.571,177.685 334.5,178.5C 316.173,174.492 309.506,181.492 314.5,199.5C 315.579,209.804 316.246,220.137 316.5,230.5C 315.833,230.5 315.167,230.5 314.5,230.5C 311.114,228.277 308.614,225.277 307,221.5C 306.333,207.5 306.333,193.5 307,179.5C 309.045,175.397 312.212,172.564 316.5,171C 329.833,170.333 343.167,170.333 356.5,171C 358.193,171.847 359.86,172.68 361.5,173.5 Z"/></g>
<g><path style="opacity:1" fill="#995e5c" d="M 391.5,171.5 C 395.884,172.376 400.217,173.376 404.5,174.5C 405.832,175.83 406.665,177.497 407,179.5C 407.899,188.418 409.065,197.251 410.5,206C 410.272,206.399 409.938,206.565 409.5,206.5C 408.833,206.5 408.167,206.5 407.5,206.5C 406.791,205.596 405.791,205.263 404.5,205.5C 403.791,204.596 402.791,204.263 401.5,204.5C 400.791,203.596 399.791,203.263 398.5,203.5C 397.833,203.167 397.167,202.833 396.5,202.5C 395.609,201.89 394.609,201.557 393.5,201.5C 392.833,201.5 392.167,201.5 391.5,201.5C 391.5,191.5 391.5,181.5 391.5,171.5 Z"/></g>
<g><path style="opacity:1" fill="#6fd8f8" d="M 175.5,181.5 C 177.389,182.322 179.389,183.155 181.5,184C 173.296,191.707 164.963,199.207 156.5,206.5C 153.944,199.09 152.944,191.423 153.5,183.5C 156.028,182.977 158.361,181.977 160.5,180.5C 165.456,181.394 170.456,181.727 175.5,181.5 Z"/></g>
<g><path style="opacity:1" fill="#3faad2" d="M 265.5,170.5 C 272.521,169.074 278.187,171.074 282.5,176.5C 270.858,176.65 259.192,176.317 247.5,175.5C 244.045,175.421 240.712,175.921 237.5,177C 235.678,179.821 233.511,182.321 231,184.5C 231.254,193.818 231.754,203.151 232.5,212.5C 232.494,217.881 231.828,222.881 230.5,227.5C 228.066,226.229 226.566,224.229 226,221.5C 225.034,206.74 225.367,192.073 227,177.5C 229.264,174.567 232.098,172.4 235.5,171C 245.494,170.5 255.494,170.334 265.5,170.5 Z"/></g>
<g><path style="opacity:1" fill="#53c1e6" d="M 282.5,176.5 C 284.982,178.503 285.982,181.169 285.5,184.5C 283.5,184.5 281.5,184.5 279.5,184.5C 272.312,184.232 265.312,182.732 258.5,180C 254.848,179.501 251.182,179.335 247.5,179.5C 233.07,179.13 228.57,185.797 234,199.5C 234.333,199.167 234.667,198.833 235,198.5C 235.278,199.416 235.778,200.082 236.5,200.5C 236.05,208.982 236.717,217.315 238.5,225.5C 238.5,227.167 238.5,228.833 238.5,230.5C 241.167,230.5 243.833,230.5 246.5,230.5C 255.5,230.5 264.5,230.5 273.5,230.5C 261.678,231.495 249.678,231.828 237.5,231.5C 234.669,230.921 232.336,229.588 230.5,227.5C 231.828,222.881 232.494,217.881 232.5,212.5C 231.754,203.151 231.254,193.818 231,184.5C 233.511,182.321 235.678,179.821 237.5,177C 240.712,175.921 244.045,175.421 247.5,175.5C 259.192,176.317 270.858,176.65 282.5,176.5 Z"/></g>
<g><path style="opacity:1" fill="#71d8f7" d="M 247.5,179.5 C 251.568,181.865 255.901,183.698 260.5,185C 253.667,191.833 246.833,198.667 240,205.5C 239.751,202.823 238.751,200.49 237,198.5C 236.536,199.094 236.369,199.761 236.5,200.5C 235.778,200.082 235.278,199.416 235,198.5C 234.667,198.833 234.333,199.167 234,199.5C 228.57,185.797 233.07,179.13 247.5,179.5 Z"/></g>
<g><path style="opacity:1" fill="#4bd1f9" d="M 247.5,179.5 C 251.182,179.335 254.848,179.501 258.5,180C 265.312,182.732 272.312,184.232 279.5,184.5C 265.919,196.578 252.753,209.244 240,222.5C 239.768,223.737 239.268,224.737 238.5,225.5C 236.717,217.315 236.05,208.982 236.5,200.5C 236.369,199.761 236.536,199.094 237,198.5C 238.751,200.49 239.751,202.823 240,205.5C 246.833,198.667 253.667,191.833 260.5,185C 255.901,183.698 251.568,181.865 247.5,179.5 Z"/></g>
<g><path style="opacity:1" fill="#6bd5f6" d="M 334.5,178.5 C 338.955,179.707 343.288,181.207 347.5,183C 339.869,189.571 331.202,197.904 321.5,208C 320.668,208.688 320.002,208.521 319.5,207.5C 318.79,204.327 317.623,201.327 316,198.5C 315.617,199.056 315.117,199.389 314.5,199.5C 309.506,181.492 316.173,174.492 334.5,178.5 Z"/></g>
<g><path style="opacity:1" fill="#4accf4" d="M 364.5,177.5 C 365.924,179.515 366.59,181.848 366.5,184.5C 362.833,184.164 359.5,184.997 356.5,187C 344.833,198.667 333.167,210.333 321.5,222C 320.551,222.617 319.718,222.451 319,221.5C 318.502,224.482 318.335,227.482 318.5,230.5C 321.5,230.5 324.5,230.5 327.5,230.5C 336.5,230.5 345.5,230.5 354.5,230.5C 341.833,231.833 329.167,231.833 316.5,230.5C 316.246,220.137 315.579,209.804 314.5,199.5C 315.117,199.389 315.617,199.056 316,198.5C 317.623,201.327 318.79,204.327 319.5,207.5C 320.002,208.521 320.668,208.688 321.5,208C 331.202,197.904 339.869,189.571 347.5,183C 343.288,181.207 338.955,179.707 334.5,178.5C 333.571,177.685 332.571,176.852 331.5,176C 341.677,176.306 351.844,177.14 362,178.5C 363.07,178.472 363.903,178.139 364.5,177.5 Z"/></g>
<g><path style="opacity:1" fill="#2ccafa" d="M 279.5,184.5 C 281.5,184.5 283.5,184.5 285.5,184.5C 285.5,186.833 285.5,189.167 285.5,191.5C 272.167,204.167 259.167,217.167 246.5,230.5C 243.833,230.5 241.167,230.5 238.5,230.5C 238.5,228.833 238.5,227.167 238.5,225.5C 239.268,224.737 239.768,223.737 240,222.5C 252.753,209.244 265.919,196.578 279.5,184.5 Z"/></g>
<g><path style="opacity:1" fill="#2bcafa" d="M 366.5,184.5 C 366.5,186.833 366.5,189.167 366.5,191.5C 353.167,204.167 340.167,217.167 327.5,230.5C 324.5,230.5 321.5,230.5 318.5,230.5C 318.335,227.482 318.502,224.482 319,221.5C 319.718,222.451 320.551,222.617 321.5,222C 333.167,210.333 344.833,198.667 356.5,187C 359.5,184.997 362.833,184.164 366.5,184.5 Z"/></g>
<g><path style="opacity:1" fill="#20c5f9" d="M 204.5,184.5 C 204.5,195.833 204.5,207.167 204.5,218.5C 203.394,225.439 199.394,229.606 192.5,231C 179.425,231.813 166.425,231.646 153.5,230.5C 152.833,230.5 152.5,230.167 152.5,229.5C 153.156,228.378 153.489,227.045 153.5,225.5C 152.701,220.843 152.035,216.176 151.5,211.5C 152.132,213.743 153.466,215.409 155.5,216.5C 155.852,220.776 157.019,224.776 159,228.5C 173.752,213.245 188.919,198.579 204.5,184.5 Z"/></g>
<g><path style="opacity:1" fill="#fbce9c" d="M 119.5,201.5 C 119.5,246.5 119.5,291.5 119.5,336.5C 117.297,336.604 115.297,337.27 113.5,338.5C 114.833,293.178 115.5,247.845 115.5,202.5C 116.568,201.566 117.901,201.232 119.5,201.5 Z"/></g>
<g><path style="opacity:1" fill="#0ac1f9" d="M 285.5,191.5 C 285.5,200.167 285.5,208.833 285.5,217.5C 285.138,224.187 281.805,228.521 275.5,230.5C 274.833,230.5 274.167,230.5 273.5,230.5C 264.5,230.5 255.5,230.5 246.5,230.5C 259.167,217.167 272.167,204.167 285.5,191.5 Z"/></g>
<g><path style="opacity:1" fill="#0cc1f9" d="M 366.5,191.5 C 366.5,200.167 366.5,208.833 366.5,217.5C 366.182,221.801 364.515,225.468 361.5,228.5C 359.412,229.939 357.079,230.606 354.5,230.5C 345.5,230.5 336.5,230.5 327.5,230.5C 340.167,217.167 353.167,204.167 366.5,191.5 Z"/></g>
<g><path style="opacity:1" fill="#f38b61" d="M 391.5,201.5 C 392.167,201.5 392.833,201.5 393.5,201.5C 394.494,246.428 394.828,291.428 394.5,336.5C 393.5,336.5 392.5,336.5 391.5,336.5C 391.5,291.5 391.5,246.5 391.5,201.5 Z"/></g>
<g><path style="opacity:1" fill="#fcd6a7" d="M 115.5,202.5 C 115.5,247.845 114.833,293.178 113.5,338.5C 111.833,339.833 110.167,341.167 108.5,342.5C 108.849,319.485 109.682,296.485 111,273.5C 111.5,250.169 111.667,226.836 111.5,203.5C 112.708,202.766 114.041,202.433 115.5,202.5 Z"/></g>
<g><path style="opacity:1" fill="#f8aa75" d="M 396.5,202.5 C 397.167,202.833 397.833,203.167 398.5,203.5C 398.5,248.5 398.5,293.5 398.5,338.5C 397.833,338.167 397.167,337.833 396.5,337.5C 396.5,292.5 396.5,247.5 396.5,202.5 Z"/></g>
<g><path style="opacity:1" fill="#fde1b6" d="M 111.5,203.5 C 111.667,226.836 111.5,250.169 111,273.5C 109.682,296.485 108.849,319.485 108.5,342.5C 106.701,348.316 106.035,354.316 106.5,360.5C 105.167,360.5 103.833,360.5 102.5,360.5C 105.762,308.891 107.096,257.225 106.5,205.5C 107.93,204.463 109.597,203.796 111.5,203.5 Z"/></g>
<g><path style="opacity:1" fill="#fbc990" d="M 401.5,204.5 C 402.791,204.263 403.791,204.596 404.5,205.5C 404.5,253.167 404.5,300.833 404.5,348.5C 403.659,346.188 402.659,343.855 401.5,341.5C 401.5,295.833 401.5,250.167 401.5,204.5 Z"/></g>
<g><path style="opacity:0.995" fill="#fffbe9" d="M 94.5,210.5 C 94.8965,260.373 93.5632,310.373 90.5,360.5C 66.8333,360.5 43.1667,360.5 19.5,360.5C 19.5,345.833 19.5,331.167 19.5,316.5C 42.5921,307.456 65.5921,298.123 88.5,288.5C 89.3184,285.893 89.8184,283.226 90,280.5C 90.5,257.836 90.6666,235.169 90.5,212.5C 91.5137,211.326 92.847,210.66 94.5,210.5 Z"/></g>
<g><path style="opacity:0.998" fill="#fefcef" d="M 90.5,212.5 C 90.6666,235.169 90.5,257.836 90,280.5C 89.8184,283.226 89.3184,285.893 88.5,288.5C 65.5921,298.123 42.5921,307.456 19.5,316.5C 20.1913,309.044 21.5247,301.711 23.5,294.5C 29.3394,275.487 38.3394,258.153 50.5,242.5C 57.7003,235.132 65.367,228.299 73.5,222C 78.8178,218.176 84.4845,215.009 90.5,212.5 Z"/></g>
<g><path style="opacity:1" fill="#53c1e6" d="M 200.5,174.5 C 203.165,176.835 204.498,179.835 204.5,183.5C 194.669,183.534 185.003,182.867 175.5,181.5C 170.456,181.727 165.456,181.394 160.5,180.5C 158.361,181.977 156.028,182.977 153.5,183.5C 152.944,191.423 153.944,199.09 156.5,206.5C 157.329,209.469 157.495,212.469 157,215.5C 155.992,210.459 155.492,210.792 155.5,216.5C 153.466,215.409 152.132,213.743 151.5,211.5C 149.654,202.267 149.154,192.933 150,183.5C 153.745,175.09 160.245,172.09 169.5,174.5C 179.206,174.725 188.873,175.392 198.5,176.5C 199.713,176.253 200.38,175.586 200.5,174.5 Z"/></g>
<g><path style="opacity:1" fill="#43cffa" d="M 175.5,181.5 C 185.003,182.867 194.669,183.534 204.5,183.5C 204.5,183.833 204.5,184.167 204.5,184.5C 188.919,198.579 173.752,213.245 159,228.5C 157.019,224.776 155.852,220.776 155.5,216.5C 155.492,210.792 155.992,210.459 157,215.5C 157.495,212.469 157.329,209.469 156.5,206.5C 164.963,199.207 173.296,191.707 181.5,184C 179.389,183.155 177.389,182.322 175.5,181.5 Z"/></g>
<g><path style="opacity:1" fill="#fee8ae" d="M 324.5,70.5 C 335.172,70.3335 345.839,70.5002 356.5,71C 361.772,74.6936 366.272,79.1936 370,84.5C 369,161.492 368.5,238.492 368.5,315.5C 366.167,315.5 363.833,315.5 361.5,315.5C 361.5,286.5 361.5,257.5 361.5,228.5C 364.515,225.468 366.182,221.801 366.5,217.5C 367.672,173.334 368.172,129.001 368,84.5C 365.666,81 362.832,78 359.5,75.5C 359.389,74.8826 359.056,74.3826 358.5,74C 338.54,72.2512 318.54,71.2512 298.5,71C 307.16,70.5002 315.827,70.3336 324.5,70.5 Z"/></g>
<g><path style="opacity:0.987" fill="#9c5e5e" d="M 476.5,217.5 C 491.31,233.612 501.31,252.446 506.5,274C 505.128,285.535 498.795,292.369 487.5,294.5C 486.072,288.875 484.072,283.541 481.5,278.5C 480.257,273.75 478.257,269.416 475.5,265.5C 474.231,261.946 472.231,258.946 469.5,256.5C 468.331,253.489 466.664,250.822 464.5,248.5C 462.823,246.46 461.156,244.46 459.5,242.5C 458.5,240.833 457.167,239.5 455.5,238.5C 454.5,236.833 453.167,235.5 451.5,234.5C 450.833,233.167 449.833,232.167 448.5,231.5C 448.167,230.833 447.833,230.167 447.5,229.5C 456.985,225.264 466.651,221.264 476.5,217.5 Z"/></g>
<g><path style="opacity:1" fill="#fef9de" d="M 413.5,208.5 C 425.838,213.996 437.172,220.996 447.5,229.5C 447.833,230.167 448.167,230.833 448.5,231.5C 446.719,247.298 445.719,263.298 445.5,279.5C 435.405,282.811 425.571,286.811 416,291.5C 414.457,263.86 413.623,236.193 413.5,208.5 Z"/></g>
<g><path style="opacity:1" fill="#fef4c8" d="M 361.5,228.5 C 361.5,257.5 361.5,286.5 361.5,315.5C 360.833,315.5 360.167,315.5 359.5,315.5C 359.667,297.83 359.5,280.164 359,262.5C 357.182,260.046 354.682,259.046 351.5,259.5C 348.989,259.288 346.822,259.955 345,261.5C 344.5,268.826 344.334,276.159 344.5,283.5C 344.333,297.837 344.5,312.171 345,326.5C 345.816,327.823 346.983,328.489 348.5,328.5C 351.625,329.479 354.958,329.813 358.5,329.5C 358.5,331.833 358.5,334.167 358.5,336.5C 346.5,336.5 334.5,336.5 322.5,336.5C 322.5,334.167 322.5,331.833 322.5,329.5C 326.702,329.817 330.702,329.483 334.5,328.5C 336.922,327.308 337.922,325.308 337.5,322.5C 337.931,319.607 336.931,317.607 334.5,316.5C 326.016,315.507 317.349,315.174 308.5,315.5C 308.5,310.5 308.5,305.5 308.5,300.5C 313.363,300.819 318.03,300.486 322.5,299.5C 325.287,298.622 326.62,296.622 326.5,293.5C 326.714,291.058 325.714,289.392 323.5,288.5C 318.695,287.513 313.695,287.179 308.5,287.5C 308.5,282.5 308.5,277.5 308.5,272.5C 317.349,272.826 326.016,272.493 334.5,271.5C 336.931,270.393 337.931,268.393 337.5,265.5C 337.674,263.307 337.007,261.473 335.5,260C 322.838,259.5 310.171,259.333 297.5,259.5C 299.042,258.837 300.709,258.17 302.5,257.5C 306.897,248.63 310.897,239.63 314.5,230.5C 315.167,230.5 315.833,230.5 316.5,230.5C 329.167,231.833 341.833,231.833 354.5,230.5C 357.079,230.606 359.412,229.939 361.5,228.5 Z"/></g>
<g><path style="opacity:1" fill="#fef6d4" d="M 273.5,230.5 C 274.167,230.5 274.833,230.5 275.5,230.5C 272.197,239.942 268.197,249.109 263.5,258C 270.346,258.172 277.013,258.672 283.5,259.5C 268.83,259.333 254.163,259.5 239.5,260C 237.972,261.648 237.305,263.648 237.5,266C 237.305,268.352 237.972,270.352 239.5,272C 244.489,272.499 249.489,272.666 254.5,272.5C 254.5,278.833 254.5,285.167 254.5,291.5C 254.207,303.55 254.541,315.55 255.5,327.5C 255.5,330.5 255.5,333.5 255.5,336.5C 242.5,336.5 229.5,336.5 216.5,336.5C 216.5,334.167 216.5,331.833 216.5,329.5C 223.135,327.754 227.969,323.754 231,317.5C 232.399,307.232 232.899,296.898 232.5,286.5C 234.492,276.505 231.492,268.505 223.5,262.5C 227.895,252.044 232.562,241.71 237.5,231.5C 249.678,231.828 261.678,231.495 273.5,230.5 Z"/></g>
<g><path style="opacity:1" fill="#fef7d7" d="M 412.5,208.5 C 412.833,208.5 413.167,208.5 413.5,208.5C 413.623,236.193 414.457,263.86 416,291.5C 425.571,286.811 435.405,282.811 445.5,279.5C 445.719,263.298 446.719,247.298 448.5,231.5C 449.833,232.167 450.833,233.167 451.5,234.5C 450.179,237.598 449.512,241.098 449.5,245C 447.988,270.85 446.321,296.683 444.5,322.5C 434.812,326.095 425.312,330.095 416,334.5C 413.866,292.54 412.699,250.54 412.5,208.5 Z"/></g>
<g><path style="opacity:1" fill="#f9b880" d="M 398.5,203.5 C 399.791,203.263 400.791,203.596 401.5,204.5C 401.5,250.167 401.5,295.833 401.5,341.5C 400.833,341.167 400.167,340.833 399.5,340.5C 399.167,339.833 398.833,339.167 398.5,338.5C 398.5,293.5 398.5,248.5 398.5,203.5 Z"/></g>
<g><path style="opacity:1" fill="#fef5cf" d="M 412.5,208.5 C 412.699,250.54 413.866,292.54 416,334.5C 425.312,330.095 434.812,326.095 444.5,322.5C 446.321,296.683 447.988,270.85 449.5,245C 449.512,241.098 450.179,237.598 451.5,234.5C 453.167,235.5 454.5,236.833 455.5,238.5C 453.048,279.103 450.714,319.77 448.5,360.5C 436.5,360.5 424.5,360.5 412.5,360.5C 411.52,309.667 411.52,259.001 412.5,208.5 Z"/></g>
<g><path style="opacity:1" fill="#feedc0" d="M 455.5,238.5 C 457.167,239.5 458.5,240.833 459.5,242.5C 457.802,281.846 455.802,321.18 453.5,360.5C 451.833,360.5 450.167,360.5 448.5,360.5C 450.714,319.77 453.048,279.103 455.5,238.5 Z"/></g>
<g><path style="opacity:1" fill="#f59a6a" d="M 393.5,201.5 C 394.609,201.557 395.609,201.89 396.5,202.5C 396.5,247.5 396.5,292.5 396.5,337.5C 395.833,337.5 395.167,337.5 394.5,337.5C 394.5,337.167 394.5,336.833 394.5,336.5C 394.828,291.428 394.494,246.428 393.5,201.5 Z"/></g>
<g><path style="opacity:1" fill="#fde4b3" d="M 407.5,206.5 C 408.167,206.5 408.833,206.5 409.5,206.5C 410.5,207.167 411.5,207.833 412.5,208.5C 411.52,259.001 411.52,309.667 412.5,360.5C 411.167,360.5 409.833,360.5 408.5,360.5C 408.178,316.662 407.512,272.829 406.5,229C 406.5,221.326 406.834,213.826 407.5,206.5 Z"/></g>
<g><path style="opacity:1" fill="#fee8b5" d="M 459.5,242.5 C 461.156,244.46 462.823,246.46 464.5,248.5C 463.514,285.947 461.514,323.28 458.5,360.5C 456.833,360.5 455.167,360.5 453.5,360.5C 455.802,321.18 457.802,281.846 459.5,242.5 Z"/></g>
<g><path style="opacity:1" fill="#fddfa7" d="M 464.5,248.5 C 466.664,250.822 468.331,253.489 469.5,256.5C 468.384,291.209 466.717,325.876 464.5,360.5C 462.5,360.5 460.5,360.5 458.5,360.5C 461.514,323.28 463.514,285.947 464.5,248.5 Z"/></g>
<g><path style="opacity:0.99" fill="#be8989" d="M 50.5,242.5 C 38.3394,258.153 29.3394,275.487 23.5,294.5C 12.205,292.369 5.87171,285.535 4.5,274C 5.27022,268.192 6.93688,262.692 9.5,257.5C 10.1174,257.611 10.6174,257.944 11,258.5C 24.0535,252.871 37.2202,247.538 50.5,242.5 Z"/></g>
<g><path style="opacity:1" fill="#f56f6c" d="M 297.5,259.5 C 310.171,259.333 322.838,259.5 335.5,260C 337.007,261.473 337.674,263.307 337.5,265.5C 337.931,268.393 336.931,270.393 334.5,271.5C 325.5,271.5 316.5,271.5 307.5,271.5C 307.5,276.167 307.5,280.833 307.5,285.5C 302.952,287.357 298.452,289.357 294,291.5C 293.5,302.828 293.333,314.162 293.5,325.5C 292.337,304.671 292.171,283.671 293,262.5C 294.129,260.859 295.629,259.859 297.5,259.5 Z"/></g>
<g><path style="opacity:1" fill="#fcd79f" d="M 404.5,205.5 C 405.791,205.263 406.791,205.596 407.5,206.5C 406.834,213.826 406.5,221.326 406.5,229C 407.512,272.829 408.178,316.662 408.5,360.5C 407.167,360.5 405.833,360.5 404.5,360.5C 404.5,356.5 404.5,352.5 404.5,348.5C 404.5,300.833 404.5,253.167 404.5,205.5 Z"/></g>
<g><path style="opacity:1" fill="#f77071" d="M 283.5,259.5 C 284.458,259.953 285.292,260.619 286,261.5C 287.023,265.317 286.523,268.817 284.5,272C 279.511,272.499 274.511,272.666 269.5,272.5C 269.5,283.5 269.5,294.5 269.5,305.5C 268.672,299.013 268.172,292.346 268,285.5C 263.618,287.793 259.118,289.793 254.5,291.5C 254.5,285.167 254.5,278.833 254.5,272.5C 249.489,272.666 244.489,272.499 239.5,272C 237.972,270.352 237.305,268.352 237.5,266C 237.305,263.648 237.972,261.648 239.5,260C 254.163,259.5 268.83,259.333 283.5,259.5 Z"/></g>
<g><path style="opacity:1" fill="#fcd397" d="M 469.5,256.5 C 472.231,258.946 474.231,261.946 475.5,265.5C 475.54,297.172 475.207,328.838 474.5,360.5C 471.167,360.5 467.833,360.5 464.5,360.5C 466.717,325.876 468.384,291.209 469.5,256.5 Z"/></g>
<g><path style="opacity:1" fill="#f97b7c" d="M 223.5,262.5 C 231.492,268.505 234.492,276.505 232.5,286.5C 228.313,288.76 223.979,290.76 219.5,292.5C 218.833,298.319 218.167,303.986 217.5,309.5C 217.957,297.732 217.457,286.065 216,274.5C 204.46,269.853 199.294,273.853 200.5,286.5C 195.715,287.819 191.215,289.819 187,292.5C 186.501,298.491 186.334,304.491 186.5,310.5C 185.341,299.341 185.174,288.008 186,276.5C 187.488,268.002 192.322,262.502 200.5,260C 208.48,258.75 216.147,259.583 223.5,262.5 Z"/></g>
<g><path style="opacity:1" fill="#f36762" d="M 359.5,315.5 C 358.833,303.327 358.167,290.993 357.5,278.5C 353.256,280.457 348.923,282.124 344.5,283.5C 344.334,276.159 344.5,268.826 345,261.5C 346.822,259.955 348.989,259.288 351.5,259.5C 354.682,259.046 357.182,260.046 359,262.5C 359.5,280.164 359.667,297.83 359.5,315.5 Z"/></g>
<g><path style="opacity:1" fill="#fbc88b" d="M 475.5,265.5 C 478.257,269.416 480.257,273.75 481.5,278.5C 481.5,305.833 481.5,333.167 481.5,360.5C 479.167,360.5 476.833,360.5 474.5,360.5C 475.207,328.838 475.54,297.172 475.5,265.5 Z"/></g>
<g><path style="opacity:1" fill="#fab9a0" d="M 334.5,271.5 C 326.016,272.493 317.349,272.826 308.5,272.5C 308.5,277.5 308.5,282.5 308.5,287.5C 313.695,287.179 318.695,287.513 323.5,288.5C 318.167,288.5 312.833,288.5 307.5,288.5C 307.5,287.5 307.5,286.5 307.5,285.5C 307.5,280.833 307.5,276.167 307.5,271.5C 316.5,271.5 325.5,271.5 334.5,271.5 Z"/></g>
<g><path style="opacity:1" fill="#fff5d7" d="M 217.5,309.5 C 215.74,315.55 211.74,317.717 205.5,316C 202.892,314.622 201.392,312.455 201,309.5C 200.5,301.841 200.334,294.174 200.5,286.5C 199.294,273.853 204.46,269.853 216,274.5C 217.457,286.065 217.957,297.732 217.5,309.5 Z"/></g>
<g><path style="opacity:1" fill="#fee7c0" d="M 106.5,205.5 C 107.096,257.225 105.762,308.891 102.5,360.5C 101.5,360.5 100.5,360.5 99.5,360.5C 101.477,309.197 102.477,257.864 102.5,206.5C 103.708,205.766 105.041,205.433 106.5,205.5 Z"/></g>
<g><path style="opacity:1" fill="#fb7e83" d="M 139.5,259.5 C 140.172,260.267 141.005,260.934 142,261.5C 142.5,269.827 142.666,278.16 142.5,286.5C 148.833,286.5 155.167,286.5 161.5,286.5C 161.334,278.16 161.5,269.827 162,261.5C 166.389,259.051 170.889,258.884 175.5,261C 176.488,272.753 176.821,284.586 176.5,296.5C 175.674,292.018 175.174,287.351 175,282.5C 159.907,289.296 144.741,295.962 129.5,302.5C 128.503,310.138 128.169,317.804 128.5,325.5C 127.337,304.671 127.171,283.671 128,262.5C 128.5,261.333 129.333,260.5 130.5,260C 133.482,259.502 136.482,259.335 139.5,259.5 Z"/></g>
<g><path style="opacity:1" fill="#f87476" d="M 176.5,296.5 C 176.786,306.885 176.452,317.218 175.5,327.5C 171.167,328.833 166.833,328.833 162.5,327.5C 161.551,317.886 161.218,308.219 161.5,298.5C 155.167,298.5 148.833,298.5 142.5,298.5C 142.806,308.25 142.473,317.916 141.5,327.5C 136.919,329.136 132.586,328.803 128.5,326.5C 128.5,326.167 128.5,325.833 128.5,325.5C 128.169,317.804 128.503,310.138 129.5,302.5C 144.741,295.962 159.907,289.296 175,282.5C 175.174,287.351 175.674,292.018 176.5,296.5 Z"/></g>
<g><path style="opacity:1" fill="#feeecd" d="M 102.5,206.5 C 102.477,257.864 101.477,309.197 99.5,360.5C 97.8333,360.5 96.1667,360.5 94.5,360.5C 97.406,309.894 98.7393,259.227 98.5,208.5C 99.5137,207.326 100.847,206.66 102.5,206.5 Z"/></g>
<g><path style="opacity:1" fill="#fef4d9" d="M 98.5,208.5 C 98.7393,259.227 97.406,309.894 94.5,360.5C 93.1667,360.5 91.8333,360.5 90.5,360.5C 93.5632,310.373 94.8965,260.373 94.5,210.5C 95.5137,209.326 96.847,208.66 98.5,208.5 Z"/></g>
<g><path style="opacity:1" fill="#f15f5b" d="M 307.5,285.5 C 307.5,286.5 307.5,287.5 307.5,288.5C 312.833,288.5 318.167,288.5 323.5,288.5C 325.714,289.392 326.714,291.058 326.5,293.5C 326.62,296.622 325.287,298.622 322.5,299.5C 317.5,299.5 312.5,299.5 307.5,299.5C 307.5,305.167 307.5,310.833 307.5,316.5C 316.5,316.5 325.5,316.5 334.5,316.5C 336.931,317.607 337.931,319.607 337.5,322.5C 337.922,325.308 336.922,327.308 334.5,328.5C 322.167,328.5 309.833,328.5 297.5,328.5C 295.596,328.262 294.262,327.262 293.5,325.5C 293.333,314.162 293.5,302.828 294,291.5C 298.452,289.357 302.952,287.357 307.5,285.5 Z"/></g>
<g><path style="opacity:1" fill="#fef9e0" d="M 162.5,327.5 C 162.5,330.5 162.5,333.5 162.5,336.5C 155.5,336.5 148.5,336.5 141.5,336.5C 141.5,333.5 141.5,330.5 141.5,327.5C 142.473,317.916 142.806,308.25 142.5,298.5C 148.833,298.5 155.167,298.5 161.5,298.5C 161.218,308.219 161.551,317.886 162.5,327.5 Z"/></g>
<g><path style="opacity:1" fill="#f56b6a" d="M 200.5,286.5 C 200.334,294.174 200.5,301.841 201,309.5C 201.392,312.455 202.892,314.622 205.5,316C 211.74,317.717 215.74,315.55 217.5,309.5C 218.167,303.986 218.833,298.319 219.5,292.5C 223.979,290.76 228.313,288.76 232.5,286.5C 232.899,296.898 232.399,307.232 231,317.5C 227.969,323.754 223.135,327.754 216.5,329.5C 211.833,329.5 207.167,329.5 202.5,329.5C 192.866,326.861 187.533,320.527 186.5,310.5C 186.334,304.491 186.501,298.491 187,292.5C 191.215,289.819 195.715,287.819 200.5,286.5 Z"/></g>
<g><path style="opacity:1" fill="#f26461" d="M 269.5,305.5 C 269.764,312.89 269.43,320.223 268.5,327.5C 264.167,328.833 259.833,328.833 255.5,327.5C 254.541,315.55 254.207,303.55 254.5,291.5C 259.118,289.793 263.618,287.793 268,285.5C 268.172,292.346 268.672,299.013 269.5,305.5 Z"/></g>
<g><path style="opacity:1" fill="#f9b77b" d="M 481.5,278.5 C 484.072,283.541 486.072,288.875 487.5,294.5C 489.237,300.687 490.404,307.021 491,313.5C 491.5,329.163 491.667,344.83 491.5,360.5C 488.167,360.5 484.833,360.5 481.5,360.5C 481.5,333.167 481.5,305.833 481.5,278.5 Z"/></g>
<g><path style="opacity:1" fill="#f7a88e" d="M 322.5,299.5 C 318.03,300.486 313.363,300.819 308.5,300.5C 308.5,305.5 308.5,310.5 308.5,315.5C 317.349,315.174 326.016,315.507 334.5,316.5C 325.5,316.5 316.5,316.5 307.5,316.5C 307.5,310.833 307.5,305.167 307.5,299.5C 312.5,299.5 317.5,299.5 322.5,299.5 Z"/></g>
<g><path style="opacity:1" fill="#ee584f" d="M 359.5,315.5 C 360.167,315.5 360.833,315.5 361.5,315.5C 363.833,315.5 366.167,315.5 368.5,315.5C 369.833,315.5 371.167,315.5 372.5,315.5C 373.5,315.5 374.5,315.5 375.5,315.5C 376.833,315.5 378.167,315.5 379.5,315.5C 380.5,315.5 381.5,315.5 382.5,315.5C 385.716,319.132 386.216,323.132 384,327.5C 379.934,328.464 375.767,328.797 371.5,328.5C 363.833,328.5 356.167,328.5 348.5,328.5C 346.983,328.489 345.816,327.823 345,326.5C 344.5,312.171 344.333,297.837 344.5,283.5C 348.923,282.124 353.256,280.457 357.5,278.5C 358.167,290.993 358.833,303.327 359.5,315.5 Z"/></g>
<g><path style="opacity:1" fill="#b8acaa" d="M 128.5,326.5 C 132.586,328.803 136.919,329.136 141.5,327.5C 141.5,330.5 141.5,333.5 141.5,336.5C 137.167,336.5 132.833,336.5 128.5,336.5C 128.5,333.167 128.5,329.833 128.5,326.5 Z"/></g>
<g><path style="opacity:1" fill="#bbafad" d="M 162.5,327.5 C 166.833,328.833 171.167,328.833 175.5,327.5C 175.5,330.5 175.5,333.5 175.5,336.5C 171.167,336.5 166.833,336.5 162.5,336.5C 162.5,333.5 162.5,330.5 162.5,327.5 Z"/></g>
<g><path style="opacity:1" fill="#b9afac" d="M 202.5,329.5 C 207.167,329.5 211.833,329.5 216.5,329.5C 216.5,331.833 216.5,334.167 216.5,336.5C 211.833,336.5 207.167,336.5 202.5,336.5C 202.5,334.167 202.5,331.833 202.5,329.5 Z"/></g>
<g><path style="opacity:1" fill="#b9adab" d="M 255.5,327.5 C 259.833,328.833 264.167,328.833 268.5,327.5C 268.5,330.5 268.5,333.5 268.5,336.5C 264.167,336.5 259.833,336.5 255.5,336.5C 255.5,333.5 255.5,330.5 255.5,327.5 Z"/></g>
<g><path style="opacity:1" fill="#c3aca6" d="M 297.5,328.5 C 309.833,328.5 322.167,328.5 334.5,328.5C 330.702,329.483 326.702,329.817 322.5,329.5C 322.5,331.833 322.5,334.167 322.5,336.5C 317.833,336.5 313.167,336.5 308.5,336.5C 308.5,334.167 308.5,331.833 308.5,329.5C 304.629,329.815 300.962,329.482 297.5,328.5 Z"/></g>
<g><path style="opacity:1" fill="#bba8a4" d="M 348.5,328.5 C 356.167,328.5 363.833,328.5 371.5,328.5C 371.5,331.167 371.5,333.833 371.5,336.5C 367.167,336.5 362.833,336.5 358.5,336.5C 358.5,334.167 358.5,331.833 358.5,329.5C 354.958,329.813 351.625,329.479 348.5,328.5 Z"/></g>
<g><path style="opacity:1" fill="#b37d7b" d="M 202.5,336.5 C 207.167,336.5 211.833,336.5 216.5,336.5C 229.5,336.5 242.5,336.5 255.5,336.5C 259.833,336.5 264.167,336.5 268.5,336.5C 281.833,336.5 295.167,336.5 308.5,336.5C 313.167,336.5 317.833,336.5 322.5,336.5C 334.5,336.5 346.5,336.5 358.5,336.5C 362.833,336.5 367.167,336.5 371.5,336.5C 376.5,336.5 381.5,336.5 386.5,336.5C 388.167,336.5 389.833,336.5 391.5,336.5C 392.5,336.5 393.5,336.5 394.5,336.5C 394.5,336.833 394.5,337.167 394.5,337.5C 394.167,337.5 393.833,337.5 393.5,337.5C 352.5,337.5 311.5,337.5 270.5,337.5C 262.5,337.5 254.5,337.5 246.5,337.5C 232.496,337.333 218.496,337.5 204.5,338C 196.5,346 188.5,354 180.5,362C 156.508,366.901 132.175,369.735 107.5,370.5C 106.118,370.683 105.785,367.683 106.5,361.5C 107.434,362.568 107.768,363.901 107.5,365.5C 117.241,364.574 126.908,363.074 136.5,361C 144.167,353.333 151.833,345.667 159.5,338C 174.006,337.831 188.339,337.331 202.5,336.5 Z"/></g>
<g><path style="opacity:1" fill="#aa7170" d="M 246.5,337.5 C 238.702,345.798 230.702,353.965 222.5,362C 218.931,362.39 215.597,363.39 212.5,365C 194.91,368.205 177.243,370.872 159.5,373C 142.518,374.136 125.518,374.636 108.5,374.5C 108.263,375.791 108.596,376.791 109.5,377.5C 109.328,378.492 109.662,379.158 110.5,379.5C 110.738,381.404 111.738,382.738 113.5,383.5C 113.842,384.338 114.508,384.672 115.5,384.5C 115.389,385.117 115.056,385.617 114.5,386C 106.936,388.474 99.2696,390.474 91.5,392C 61.4401,394.56 31.4401,397.227 1.5,400C 2.38017,401.356 2.71351,402.856 2.5,404.5C 1.32627,403.486 0.659599,402.153 0.5,400.5C 0.5,398.5 0.5,396.5 0.5,394.5C 25.0536,393.556 49.3869,390.723 73.5,386C 81.7024,377.965 89.7024,369.798 97.5,361.5C 100.5,361.5 103.5,361.5 106.5,361.5C 105.785,367.683 106.118,370.683 107.5,370.5C 132.175,369.735 156.508,366.901 180.5,362C 188.5,354 196.5,346 204.5,338C 218.496,337.5 232.496,337.333 246.5,337.5 Z"/></g>
<g><path style="opacity:1" fill="#a16665" d="M 246.5,337.5 C 254.5,337.5 262.5,337.5 270.5,337.5C 262.369,346.132 254.036,354.632 245.5,363C 238.833,365 232.167,367 225.5,369C 205.862,371.275 186.196,373.275 166.5,375C 147.322,375.396 128.322,376.23 109.5,377.5C 108.596,376.791 108.263,375.791 108.5,374.5C 125.518,374.636 142.518,374.136 159.5,373C 177.243,370.872 194.91,368.205 212.5,365C 215.597,363.39 218.931,362.39 222.5,362C 230.702,353.965 238.702,345.798 246.5,337.5 Z"/></g>
<g><path style="opacity:1" fill="#9a5d5d" d="M 270.5,337.5 C 311.5,337.5 352.5,337.5 393.5,337.5C 393.566,348.805 393.733,359.805 394,370.5C 393.535,371.931 392.701,373.097 391.5,374C 388.361,375.018 385.195,375.851 382,376.5C 337.904,375.337 293.738,375.17 249.5,376C 203.197,378.242 156.863,379.408 110.5,379.5C 109.662,379.158 109.328,378.492 109.5,377.5C 128.322,376.23 147.322,375.396 166.5,375C 186.196,373.275 205.862,371.275 225.5,369C 232.167,367 238.833,365 245.5,363C 254.036,354.632 262.369,346.132 270.5,337.5 Z"/></g>
<g><path style="opacity:1" fill="#be8989" d="M 119.5,336.5 C 122.5,336.5 125.5,336.5 128.5,336.5C 132.833,336.5 137.167,336.5 141.5,336.5C 148.5,336.5 155.5,336.5 162.5,336.5C 166.833,336.5 171.167,336.5 175.5,336.5C 184.5,336.5 193.5,336.5 202.5,336.5C 188.339,337.331 174.006,337.831 159.5,338C 151.833,345.667 144.167,353.333 136.5,361C 126.908,363.074 117.241,364.574 107.5,365.5C 107.768,363.901 107.434,362.568 106.5,361.5C 103.5,361.5 100.5,361.5 97.5,361.5C 82.163,361.333 66.8297,361.5 51.5,362C 43.8333,369.667 36.1667,377.333 28.5,385C 19.0109,387.665 9.34426,389.165 -0.5,389.5C -0.5,382.5 -0.5,375.5 -0.5,368.5C 4.1864,361.373 10.8531,358.706 19.5,360.5C 43.1667,360.5 66.8333,360.5 90.5,360.5C 91.8333,360.5 93.1667,360.5 94.5,360.5C 96.1667,360.5 97.8333,360.5 99.5,360.5C 100.5,360.5 101.5,360.5 102.5,360.5C 103.833,360.5 105.167,360.5 106.5,360.5C 106.035,354.316 106.701,348.316 108.5,342.5C 110.167,341.167 111.833,339.833 113.5,338.5C 115.297,337.27 117.297,336.604 119.5,336.5 Z"/></g>
<g><path style="opacity:1" fill="#b37b7b" d="M 97.5,361.5 C 89.7024,369.798 81.7024,377.965 73.5,386C 49.3869,390.723 25.0536,393.556 0.5,394.5C 0.5,396.5 0.5,398.5 0.5,400.5C 0.166667,400.5 -0.166667,400.5 -0.5,400.5C -0.5,396.833 -0.5,393.167 -0.5,389.5C 9.34426,389.165 19.0109,387.665 28.5,385C 36.1667,377.333 43.8333,369.667 51.5,362C 66.8297,361.5 82.163,361.333 97.5,361.5 Z"/></g>
<g><path style="opacity:1" fill="#9b5e5d" d="M 404.5,360.5 C 405.833,360.5 407.167,360.5 408.5,360.5C 409.833,360.5 411.167,360.5 412.5,360.5C 424.5,360.5 436.5,360.5 448.5,360.5C 450.167,360.5 451.833,360.5 453.5,360.5C 455.167,360.5 456.833,360.5 458.5,360.5C 460.5,360.5 462.5,360.5 464.5,360.5C 467.833,360.5 471.167,360.5 474.5,360.5C 476.833,360.5 479.167,360.5 481.5,360.5C 484.833,360.5 488.167,360.5 491.5,360.5C 493.5,360.5 495.5,360.5 497.5,360.5C 497.281,370.768 497.614,380.768 498.5,390.5C 497.699,393.133 496.033,394.967 493.5,396C 459.502,396.5 425.502,396.667 391.5,396.5C 391.5,392.5 391.5,388.5 391.5,384.5C 398.959,384.213 403.125,380.213 404,372.5C 404.499,368.514 404.666,364.514 404.5,360.5 Z"/></g>
<g><path style="opacity:1" fill="#8b4f4a" d="M 393.5,337.5 C 393.833,337.5 394.167,337.5 394.5,337.5C 395.167,337.5 395.833,337.5 396.5,337.5C 397.167,337.833 397.833,338.167 398.5,338.5C 398.833,339.167 399.167,339.833 399.5,340.5C 398.596,351.675 398.43,363.008 399,374.5C 397.62,377.883 395.12,379.716 391.5,380C 298.654,379.963 205.987,381.13 113.5,383.5C 111.738,382.738 110.738,381.404 110.5,379.5C 156.863,379.408 203.197,378.242 249.5,376C 293.738,375.17 337.904,375.337 382,376.5C 385.195,375.851 388.361,375.018 391.5,374C 392.701,373.097 393.535,371.931 394,370.5C 393.733,359.805 393.566,348.805 393.5,337.5 Z"/></g>
<g><path style="opacity:1" fill="#80453d" d="M 399.5,340.5 C 400.167,340.833 400.833,341.167 401.5,341.5C 402.659,343.855 403.659,346.188 404.5,348.5C 404.5,352.5 404.5,356.5 404.5,360.5C 404.666,364.514 404.499,368.514 404,372.5C 403.125,380.213 398.959,384.213 391.5,384.5C 300.833,384.5 210.167,384.5 119.5,384.5C 118.167,384.5 116.833,384.5 115.5,384.5C 114.508,384.672 113.842,384.338 113.5,383.5C 205.987,381.13 298.654,379.963 391.5,380C 395.12,379.716 397.62,377.883 399,374.5C 398.43,363.008 398.596,351.675 399.5,340.5 Z"/></g>
<g><path style="opacity:1" fill="#d38f63" d="M 119.5,384.5 C 210.167,384.5 300.833,384.5 391.5,384.5C 391.5,388.5 391.5,392.5 391.5,396.5C 391.5,399.167 391.5,401.833 391.5,404.5C 391.5,405.833 391.5,407.167 391.5,408.5C 390.596,407.791 390.263,406.791 390.5,405.5C 390.5,398.833 390.5,392.167 390.5,385.5C 383.167,385.5 375.833,385.5 368.5,385.5C 285.493,384.836 202.827,385.503 120.5,387.5C 120.5,388.833 120.5,390.167 120.5,391.5C 120.5,392.5 120.5,393.5 120.5,394.5C 120.5,396.167 120.5,397.833 120.5,399.5C 120.5,400.167 120.5,400.833 120.5,401.5C 120.5,403.833 120.5,406.167 120.5,408.5C 120.167,408.5 119.833,408.5 119.5,408.5C 119.5,406.833 119.5,405.167 119.5,403.5C 119.5,397.167 119.5,390.833 119.5,384.5 Z"/></g>
<g><path style="opacity:1" fill="#fbc183" d="M 120.5,387.5 C 169.493,388.401 218.493,388.734 267.5,388.5C 275.99,389.33 284.657,389.83 293.5,390C 278.167,390.333 262.833,390.667 247.5,391C 254.013,391.172 260.347,391.672 266.5,392.5C 255.5,392.5 244.5,392.5 233.5,392.5C 195.833,392.223 158.166,391.89 120.5,391.5C 120.5,390.167 120.5,388.833 120.5,387.5 Z"/></g>
<g><path style="opacity:1" fill="#f9a557" d="M 368.5,385.5 C 375.833,385.5 383.167,385.5 390.5,385.5C 390.5,392.167 390.5,398.833 390.5,405.5C 389.504,405.586 388.671,405.252 388,404.5C 384.914,394.579 378.414,388.246 368.5,385.5 Z"/></g>
<g><path style="opacity:1" fill="#80443d" d="M 506.5,362.5 C 508.167,364.5 509.833,366.5 511.5,368.5C 511.5,379.167 511.5,389.833 511.5,400.5C 507.314,408.47 500.647,411.47 491.5,409.5C 458.338,408.502 425.004,408.168 391.5,408.5C 391.5,407.167 391.5,405.833 391.5,404.5C 428.548,404.975 465.548,404.475 502.5,403C 505.666,401.334 507,398.668 506.5,395C 505.249,384.106 505.249,373.273 506.5,362.5 Z"/></g>
<g><path style="opacity:1" fill="#8f524f" d="M 497.5,360.5 C 500.877,360.068 503.877,360.735 506.5,362.5C 505.249,373.273 505.249,384.106 506.5,395C 507,398.668 505.666,401.334 502.5,403C 465.548,404.475 428.548,404.975 391.5,404.5C 391.5,401.833 391.5,399.167 391.5,396.5C 425.502,396.667 459.502,396.5 493.5,396C 496.033,394.967 497.699,393.133 498.5,390.5C 497.614,380.768 497.281,370.768 497.5,360.5 Z"/></g>
<g><path style="opacity:1" fill="#fddb9b" d="M 120.5,394.5 C 199.83,396.518 279.163,398.352 358.5,400C 364.302,404.8 369.802,409.967 375,415.5C 375.833,436.841 375.666,458.174 374.5,479.5C 369.912,484.238 364.578,488.071 358.5,491C 341.503,491.5 324.503,491.667 307.5,491.5C 307.5,490.833 307.5,490.167 307.5,489.5C 324.837,489.667 342.17,489.5 359.5,489C 362.634,485.502 366.134,482.335 370,479.5C 370.667,458.167 370.667,436.833 370,415.5C 366.466,411.631 362.633,408.131 358.5,405C 300.798,404.559 243.132,402.892 185.5,400C 163.836,399.5 142.169,399.333 120.5,399.5C 120.5,397.833 120.5,396.167 120.5,394.5 Z"/></g>
<g><path style="opacity:1" fill="#995e5c" d="M 115.5,384.5 C 116.833,384.5 118.167,384.5 119.5,384.5C 119.5,390.833 119.5,397.167 119.5,403.5C 80.8318,404.083 42.1651,404.75 3.5,405.5C 2.83333,405.5 2.5,405.167 2.5,404.5C 2.71351,402.856 2.38017,401.356 1.5,400C 31.4401,397.227 61.4401,394.56 91.5,392C 99.2696,390.474 106.936,388.474 114.5,386C 115.056,385.617 115.389,385.117 115.5,384.5 Z"/></g>
<g><path style="opacity:1" fill="#fee5a9" d="M 120.5,399.5 C 142.169,399.333 163.836,399.5 185.5,400C 243.132,402.892 300.798,404.559 358.5,405C 362.633,408.131 366.466,411.631 370,415.5C 370.667,436.833 370.667,458.167 370,479.5C 366.134,482.335 362.634,485.502 359.5,489C 342.17,489.5 324.837,489.667 307.5,489.5C 307.5,487.5 307.5,485.5 307.5,483.5C 324.503,483.667 341.503,483.5 358.5,483C 360.09,481.954 361.59,480.787 363,479.5C 363.667,458.167 363.667,436.833 363,415.5C 361.5,414 360,412.5 358.5,411C 340.17,410.5 321.836,410.333 303.5,410.5C 301.692,409.093 299.692,407.926 297.5,407C 283.504,406.5 269.504,406.333 255.5,406.5C 248.5,406.5 241.5,406.5 234.5,406.5C 196.68,404.295 158.68,402.629 120.5,401.5C 120.5,400.833 120.5,400.167 120.5,399.5 Z"/></g>
<g><path style="opacity:1" fill="#834941" d="M 119.5,403.5 C 119.5,405.167 119.5,406.833 119.5,408.5C 85.9958,408.168 52.6625,408.502 19.5,409.5C 15.4862,409.666 11.4862,409.499 7.5,409C 5.67634,408.34 4.34301,407.173 3.5,405.5C 42.1651,404.75 80.8318,404.083 119.5,403.5 Z"/></g>
<g><path style="opacity:1" fill="#feebbd" d="M 120.5,401.5 C 158.68,402.629 196.68,404.295 234.5,406.5C 227.492,406.334 220.492,406.5 213.5,407C 210.424,408.243 207.757,410.077 205.5,412.5C 177.133,411.516 148.8,410.182 120.5,408.5C 120.5,406.167 120.5,403.833 120.5,401.5 Z"/></g>
<g><path style="opacity:1" fill="#3ba5cd" d="M 234.5,406.5 C 241.5,406.5 248.5,406.5 255.5,406.5C 255.5,407.833 255.5,409.167 255.5,410.5C 235.218,405.029 219.718,411.029 209,428.5C 207.972,431.91 207.472,435.41 207.5,439C 210.646,463.062 212.646,487.229 213.5,511.5C 210.167,511.5 206.833,511.5 203.5,511.5C 203.5,510.167 203.5,508.833 203.5,507.5C 203.5,505.833 203.5,504.167 203.5,502.5C 203.5,501.167 203.5,499.833 203.5,498.5C 203.5,497.5 203.5,496.5 203.5,495.5C 203.5,494.167 203.5,492.833 203.5,491.5C 203.5,489.833 203.5,488.167 203.5,486.5C 203.5,484.5 203.5,482.5 203.5,480.5C 203.333,459.164 203.5,437.831 204,416.5C 204.791,415.255 205.291,413.922 205.5,412.5C 207.757,410.077 210.424,408.243 213.5,407C 220.492,406.5 227.492,406.334 234.5,406.5 Z"/></g>
<g><path style="opacity:1" fill="#fbc27b" d="M 267.5,388.5 C 299.502,388.333 331.502,388.5 363.5,389C 375.441,392.608 382.941,400.441 386,412.5C 386.168,435.337 386.668,458.004 387.5,480.5C 384.744,484.017 383.077,488.017 382.5,492.5C 378.881,491.756 375.215,491.423 371.5,491.5C 373.812,489.364 376.312,487.364 379,485.5C 380.439,483.725 381.439,481.725 382,479.5C 382.667,458.167 382.667,436.833 382,415.5C 375.621,406.622 367.788,399.288 358.5,393.5C 327.841,392.5 297.174,392.167 266.5,392.5C 260.347,391.672 254.013,391.172 247.5,391C 262.833,390.667 278.167,390.333 293.5,390C 284.657,389.83 275.99,389.33 267.5,388.5 Z"/></g>
<g><path style="opacity:1" fill="#fccb86" d="M 233.5,392.5 C 244.5,392.5 255.5,392.5 266.5,392.5C 297.174,392.167 327.841,392.5 358.5,393.5C 367.788,399.288 375.621,406.622 382,415.5C 382.667,436.833 382.667,458.167 382,479.5C 381.439,481.725 380.439,483.725 379,485.5C 376.312,487.364 373.812,489.364 371.5,491.5C 367.271,493.396 363.604,496.063 360.5,499.5C 343.08,499.464 325.413,499.464 307.5,499.5C 307.5,498.167 307.5,496.833 307.5,495.5C 324.503,495.667 341.503,495.5 358.5,495C 366.067,491.328 372.233,486.162 377,479.5C 377.667,458.167 377.667,436.833 377,415.5C 372.575,407.407 366.408,400.907 358.5,396C 316.642,395.922 274.975,394.755 233.5,392.5 Z"/></g>
<g><path style="opacity:1" fill="#f2af7a" d="M 119.5,408.5 C 119.5,408.833 119.5,409.167 119.5,409.5C 111.16,409.334 102.827,409.5 94.5,410C 89.3609,411.751 89.6943,412.918 95.5,413.5C 96.8502,414.65 96.6836,415.317 95,415.5C 69.6374,415.173 44.4708,414.173 19.5,412.5C 19.5,411.5 19.5,410.5 19.5,409.5C 52.6625,408.502 85.9958,408.168 119.5,408.5 Z"/></g>
<g><path style="opacity:1" fill="#fef6d1" d="M 120.5,408.5 C 148.8,410.182 177.133,411.516 205.5,412.5C 205.291,413.922 204.791,415.255 204,416.5C 203.5,437.831 203.333,459.164 203.5,480.5C 175.863,481.964 148.196,482.964 120.5,483.5C 120.5,482.5 120.5,481.5 120.5,480.5C 134.502,480.227 148.502,479.894 162.5,479.5C 171.473,458.052 181.139,436.886 191.5,416C 167.834,414.675 144.168,413.509 120.5,412.5C 120.5,411.167 120.5,409.833 120.5,408.5 Z"/></g>
<g><path style="opacity:1" fill="#fdd390" d="M 120.5,391.5 C 158.166,391.89 195.833,392.223 233.5,392.5C 274.975,394.755 316.642,395.922 358.5,396C 366.408,400.907 372.575,407.407 377,415.5C 377.667,436.833 377.667,458.167 377,479.5C 372.233,486.162 366.067,491.328 358.5,495C 341.503,495.5 324.503,495.667 307.5,495.5C 307.5,494.167 307.5,492.833 307.5,491.5C 324.503,491.667 341.503,491.5 358.5,491C 364.578,488.071 369.912,484.238 374.5,479.5C 375.666,458.174 375.833,436.841 375,415.5C 369.802,409.967 364.302,404.8 358.5,400C 279.163,398.352 199.83,396.518 120.5,394.5C 120.5,393.5 120.5,392.5 120.5,391.5 Z"/></g>
<g><path style="opacity:1" fill="#fff8d8" d="M 120.5,412.5 C 144.168,413.509 167.834,414.675 191.5,416C 181.139,436.886 171.473,458.052 162.5,479.5C 148.502,479.894 134.502,480.227 120.5,480.5C 120.5,457.833 120.5,435.167 120.5,412.5 Z"/></g>
<g><path style="opacity:1" fill="#fab874" d="M 411.5,409.5 C 424.167,409.5 436.833,409.5 449.5,409.5C 452.141,411.453 455.141,412.953 458.5,414C 465.099,415.132 471.433,417.132 477.5,420C 481.407,423.204 485.574,426.038 490,428.5C 490.181,425.305 490.681,422.305 491.5,419.5C 491.5,450.167 491.5,480.833 491.5,511.5C 487.833,511.5 484.167,511.5 480.5,511.5C 480.667,484.831 480.5,458.165 480,431.5C 477.133,426.922 473.3,423.422 468.5,421C 450.284,414.422 431.618,412.756 412.5,416C 409.624,418.175 407.124,420.675 405,423.5C 404,426.833 403,430.167 402,433.5C 401.5,445.829 401.333,458.162 401.5,470.5C 400.329,471.345 398.995,472.011 397.5,472.5C 397.5,458.833 397.5,445.167 397.5,431.5C 398.927,427.246 400.427,422.913 402,418.5C 405.391,415.606 408.558,412.606 411.5,409.5 Z"/></g>
<g><path style="opacity:1" fill="#fab269" d="M 119.5,409.5 C 119.5,414.167 119.5,418.833 119.5,423.5C 115.194,421.012 110.861,418.512 106.5,416C 102.703,415.591 99.0358,414.758 95.5,413.5C 89.6943,412.918 89.3609,411.751 94.5,410C 102.827,409.5 111.16,409.334 119.5,409.5 Z"/></g>
<g><path style="opacity:1" fill="#fef4c5" d="M 306.5,414.5 C 323.833,414.5 341.167,414.5 358.5,414.5C 358.5,436.5 358.5,458.5 358.5,480.5C 341.5,480.5 324.5,480.5 307.5,480.5C 307.831,458.993 307.497,437.66 306.5,416.5C 306.5,415.833 306.5,415.167 306.5,414.5 Z"/></g>
<g><path style="opacity:1" fill="#f9b674" d="M 368.5,385.5 C 378.414,388.246 384.914,394.579 388,404.5C 388.671,405.252 389.504,405.586 390.5,405.5C 390.263,406.791 390.596,407.791 391.5,408.5C 391.169,431.006 391.503,453.34 392.5,475.5C 391.167,477.5 389.5,479.167 387.5,480.5C 386.668,458.004 386.168,435.337 386,412.5C 382.941,400.441 375.441,392.608 363.5,389C 331.502,388.5 299.502,388.333 267.5,388.5C 218.493,388.734 169.493,388.401 120.5,387.5C 202.827,385.503 285.493,384.836 368.5,385.5 Z"/></g>
<g><path style="opacity:1" fill="#34b2de" d="M 304.5,412.5 C 305.167,413.167 305.833,413.833 306.5,414.5C 306.5,415.167 306.5,415.833 306.5,416.5C 306.5,418.5 306.5,420.5 306.5,422.5C 298.493,422.666 290.493,422.5 282.5,422C 277.768,419.599 272.768,418.932 267.5,420C 265.628,422.293 264.128,424.793 263,427.5C 262.5,434.158 262.334,440.825 262.5,447.5C 263.232,463.167 264.065,478.834 265,494.5C 265.198,496.382 265.698,498.048 266.5,499.5C 266.5,503.5 266.5,507.5 266.5,511.5C 264.5,511.5 262.5,511.5 260.5,511.5C 260.137,486.81 259.137,462.143 257.5,437.5C 257.667,434.5 257.833,431.5 258,428.5C 259.981,426.641 260.981,424.308 261,421.5C 262.746,418.08 264.913,414.913 267.5,412C 277.848,411.86 288.181,412.36 298.5,413.5C 300.696,413.495 302.696,413.162 304.5,412.5 Z"/></g>
<g><path style="opacity:1" fill="#f8a056" d="M 411.5,409.5 C 408.558,412.606 405.391,415.606 402,418.5C 400.427,422.913 398.927,427.246 397.5,431.5C 396.272,430.694 395.272,429.694 394.5,428.5C 393.803,422.485 394.803,416.818 397.5,411.5C 398.025,410.808 398.692,410.308 399.5,410C 403.486,409.501 407.486,409.334 411.5,409.5 Z"/></g>
<g><path style="opacity:1" fill="#f8a658" d="M 449.5,409.5 C 463.5,409.5 477.5,409.5 491.5,409.5C 491.5,412.833 491.5,416.167 491.5,419.5C 490.681,422.305 490.181,425.305 490,428.5C 485.574,426.038 481.407,423.204 477.5,420C 471.433,417.132 465.099,415.132 458.5,414C 455.141,412.953 452.141,411.453 449.5,409.5 Z"/></g>
<g><path style="opacity:1" fill="#64c4e5" d="M 255.5,415.5 C 255.5,419.5 255.5,423.5 255.5,427.5C 245.742,426.84 236.076,426.007 226.5,425C 223.707,427.119 221.707,429.786 220.5,433C 222.636,440.074 224.303,447.241 225.5,454.5C 225.5,455.5 225.5,456.5 225.5,457.5C 223.585,453.61 221.751,449.61 220,445.5C 220.57,457.181 220.403,468.847 219.5,480.5C 219.5,482.167 219.5,483.833 219.5,485.5C 218.442,484.4 217.608,483.066 217,481.5C 216.667,476.167 216.333,470.833 216,465.5C 215.667,466.167 215.333,466.833 215,467.5C 212.82,457.817 211.653,447.984 211.5,438C 212.084,428.08 216.75,420.747 225.5,416C 235.494,415.5 245.494,415.334 255.5,415.5 Z"/></g>
<g><path style="opacity:1" fill="#fce4b1" d="M 19.5,422.5 C 43.4276,423.323 67.4276,423.823 91.5,424C 93.5968,425.61 95.9302,426.777 98.5,427.5C 100.607,429.727 102.94,431.727 105.5,433.5C 106.586,449.497 106.586,465.497 105.5,481.5C 105.167,481.5 104.833,481.5 104.5,481.5C 104.267,479.938 103.6,478.605 102.5,477.5C 102.829,463.99 102.496,450.656 101.5,437.5C 101.262,435.596 100.262,434.262 98.5,433.5C 97.1064,431.292 95.1064,429.792 92.5,429C 78.4551,428.202 64.4551,428.368 50.5,429.5C 40.1667,429.5 29.8333,429.5 19.5,429.5C 19.5,427.167 19.5,424.833 19.5,422.5 Z"/></g>
<g><path style="opacity:1" fill="#7adcf9" d="M 255.5,427.5 C 255.5,428.5 255.5,429.5 255.5,430.5C 246.896,439.605 238.063,448.605 229,457.5C 227.961,456.29 226.794,455.29 225.5,454.5C 224.303,447.241 222.636,440.074 220.5,433C 221.707,429.786 223.707,427.119 226.5,425C 236.076,426.007 245.742,426.84 255.5,427.5 Z"/></g>
<g><path style="opacity:1" fill="#239ecc" d="M 255.5,406.5 C 269.504,406.333 283.504,406.5 297.5,407C 299.692,407.926 301.692,409.093 303.5,410.5C 303.833,411.167 304.167,411.833 304.5,412.5C 302.696,413.162 300.696,413.495 298.5,413.5C 288.181,412.36 277.848,411.86 267.5,412C 264.913,414.913 262.746,418.08 261,421.5C 260.981,424.308 259.981,426.641 258,428.5C 257.833,431.5 257.667,434.5 257.5,437.5C 259.137,462.143 260.137,486.81 260.5,511.5C 258.833,511.5 257.167,511.5 255.5,511.5C 255.5,500.167 255.5,488.833 255.5,477.5C 255.5,470.833 255.5,464.167 255.5,457.5C 255.5,448.5 255.5,439.5 255.5,430.5C 255.5,429.5 255.5,428.5 255.5,427.5C 255.5,423.5 255.5,419.5 255.5,415.5C 255.5,413.833 255.5,412.167 255.5,410.5C 255.5,409.167 255.5,407.833 255.5,406.5 Z"/></g>
<g><path style="opacity:1" fill="#48cdf5" d="M 306.5,416.5 C 307.497,437.66 307.831,458.993 307.5,480.5C 307.5,481.5 307.5,482.5 307.5,483.5C 307.5,485.5 307.5,487.5 307.5,489.5C 307.5,490.167 307.5,490.833 307.5,491.5C 307.5,492.833 307.5,494.167 307.5,495.5C 307.5,496.833 307.5,498.167 307.5,499.5C 307.5,500.833 307.5,502.167 307.5,503.5C 307.5,504.833 307.5,506.167 307.5,507.5C 307.5,508.833 307.5,510.167 307.5,511.5C 307.167,511.5 306.833,511.5 306.5,511.5C 306.5,494.833 306.5,478.167 306.5,461.5C 306.5,450.167 306.5,438.833 306.5,427.5C 303.15,427.335 299.817,427.502 296.5,428C 297.554,429.388 297.72,430.888 297,432.5C 286.255,443.245 275.921,453.579 266,463.5C 265.415,458.489 264.749,453.489 264,448.5C 263.617,447.944 263.117,447.611 262.5,447.5C 262.334,440.825 262.5,434.158 263,427.5C 264.128,424.793 265.628,422.293 267.5,420C 272.768,418.932 277.768,419.599 282.5,422C 290.493,422.5 298.493,422.666 306.5,422.5C 306.5,420.5 306.5,418.5 306.5,416.5 Z"/></g>
<g><path style="opacity:1" fill="#fadb9b" d="M 462.5,430.5 C 465.265,430.798 467.765,431.798 470,433.5C 470.5,459.498 470.667,485.498 470.5,511.5C 465.833,511.5 461.167,511.5 456.5,511.5C 456.5,504.167 456.5,496.833 456.5,489.5C 462.041,488.125 465.874,484.792 468,479.5C 468.5,469.506 468.666,459.506 468.5,449.5C 468.5,446.833 468.5,444.167 468.5,441.5C 468.834,438.509 467.834,436.176 465.5,434.5C 464.5,433.167 463.5,431.833 462.5,430.5 Z"/></g>
<g><path style="opacity:1" fill="#fdd28e" d="M 474.5,511.5 C 473.167,511.5 471.833,511.5 470.5,511.5C 470.667,485.498 470.5,459.498 470,433.5C 467.765,431.798 465.265,430.798 462.5,430.5C 459.692,429.071 456.692,428.405 453.5,428.5C 451.026,426.76 448.359,425.26 445.5,424C 434.818,423.168 424.151,423.334 413.5,424.5C 411.42,426.993 409.586,429.659 408,432.5C 407.5,444.829 407.333,457.162 407.5,469.5C 406.041,469.433 404.708,469.766 403.5,470.5C 403.333,457.829 403.5,445.162 404,432.5C 407.062,426.77 410.896,421.603 415.5,417C 425.833,416.333 436.167,416.333 446.5,417C 450.297,419.124 454.297,420.791 458.5,422C 461.995,425.251 465.995,427.751 470.5,429.5C 471.667,431.167 472.833,432.833 474,434.5C 474.5,460.165 474.667,485.831 474.5,511.5 Z"/></g>
<g><path style="opacity:1" fill="#fddaa1" d="M 19.5,416.5 C 20.404,417.209 20.7373,418.209 20.5,419.5C 43.5024,419.333 66.5024,419.5 89.5,420C 97.486,423.659 104.653,428.492 111,434.5C 111.5,452.83 111.667,471.164 111.5,489.5C 110.167,489.5 108.833,489.5 107.5,489.5C 107.416,486.673 106.75,484.006 105.5,481.5C 106.586,465.497 106.586,449.497 105.5,433.5C 102.94,431.727 100.607,429.727 98.5,427.5C 95.9302,426.777 93.5968,425.61 91.5,424C 67.4276,423.823 43.4276,423.323 19.5,422.5C 19.5,420.5 19.5,418.5 19.5,416.5 Z"/></g>
<g><path style="opacity:1" fill="#eb8654" d="M 391.5,408.5 C 425.004,408.168 458.338,408.502 491.5,409.5C 477.5,409.5 463.5,409.5 449.5,409.5C 436.833,409.5 424.167,409.5 411.5,409.5C 407.486,409.334 403.486,409.501 399.5,410C 398.692,410.308 398.025,410.808 397.5,411.5C 394.803,416.818 393.803,422.485 394.5,428.5C 394.5,443.833 394.5,459.167 394.5,474.5C 393.833,474.833 393.167,475.167 392.5,475.5C 391.503,453.34 391.169,431.006 391.5,408.5 Z"/></g>
<g><path style="opacity:1" fill="#fbc781" d="M 480.5,511.5 C 478.5,511.5 476.5,511.5 474.5,511.5C 474.667,485.831 474.5,460.165 474,434.5C 472.833,432.833 471.667,431.167 470.5,429.5C 465.995,427.751 461.995,425.251 458.5,422C 454.297,420.791 450.297,419.124 446.5,417C 436.167,416.333 425.833,416.333 415.5,417C 410.896,421.603 407.062,426.77 404,432.5C 403.5,445.162 403.333,457.829 403.5,470.5C 402.833,470.5 402.167,470.5 401.5,470.5C 401.333,458.162 401.5,445.829 402,433.5C 403,430.167 404,426.833 405,423.5C 407.124,420.675 409.624,418.175 412.5,416C 431.618,412.756 450.284,414.422 468.5,421C 473.3,423.422 477.133,426.922 480,431.5C 480.5,458.165 480.667,484.831 480.5,511.5 Z"/></g>
<g><path style="opacity:1" fill="#fce2a4" d="M 453.5,428.5 C 441.829,428.333 430.162,428.5 418.5,429C 414.388,430.779 411.222,433.612 409,437.5C 408.5,448.161 408.333,458.828 408.5,469.5C 408.167,469.5 407.833,469.5 407.5,469.5C 407.333,457.162 407.5,444.829 408,432.5C 409.586,429.659 411.42,426.993 413.5,424.5C 424.151,423.334 434.818,423.168 445.5,424C 448.359,425.26 451.026,426.76 453.5,428.5 Z"/></g>
<g><path style="opacity:1" fill="#f69d65" d="M 394.5,428.5 C 395.272,429.694 396.272,430.694 397.5,431.5C 397.5,445.167 397.5,458.833 397.5,472.5C 396.5,473.167 395.5,473.833 394.5,474.5C 394.5,459.167 394.5,443.833 394.5,428.5 Z"/></g>
<g><path style="opacity:1" fill="#fccd90" d="M 19.5,412.5 C 44.4708,414.173 69.6374,415.173 95,415.5C 96.6836,415.317 96.8502,414.65 95.5,413.5C 99.0358,414.758 102.703,415.591 106.5,416C 110.861,418.512 115.194,421.012 119.5,423.5C 119.5,445.5 119.5,467.5 119.5,489.5C 116.833,489.5 114.167,489.5 111.5,489.5C 111.667,471.164 111.5,452.83 111,434.5C 104.653,428.492 97.486,423.659 89.5,420C 66.5024,419.5 43.5024,419.333 20.5,419.5C 20.7373,418.209 20.404,417.209 19.5,416.5C 19.5,415.167 19.5,413.833 19.5,412.5 Z"/></g>
<g><path style="opacity:1" fill="#48b3d9" d="M 98.5,433.5 C 100.262,434.262 101.262,435.596 101.5,437.5C 95.028,437.814 88.3614,437.814 81.5,437.5C 72.9527,433.957 63.9527,432.957 54.5,434.5C 53.5,436.167 52.1667,437.5 50.5,438.5C 49.5018,447.475 49.1685,456.475 49.5,465.5C 49.5,465.833 49.5,466.167 49.5,466.5C 48.1667,466.5 46.8333,466.5 45.5,466.5C 45.3336,457.494 45.5002,448.494 46,439.5C 48.5,437 51,434.5 53.5,432C 67.5457,431.837 81.5457,432.671 95.5,434.5C 96.7261,434.48 97.7261,434.147 98.5,433.5 Z"/></g>
<g><path style="opacity:1" fill="#4eb8dc" d="M 465.5,434.5 C 467.834,436.176 468.834,438.509 468.5,441.5C 464.466,441.495 460.466,441.162 456.5,440.5C 448.823,439.268 441.156,437.934 433.5,436.5C 430.45,436.97 430.117,437.803 432.5,439C 429.144,439.215 425.811,439.215 422.5,439C 419.196,441.273 417.696,444.439 418,448.5C 417.479,455.848 417.645,463.181 418.5,470.5C 416.139,470.326 413.806,469.993 411.5,469.5C 411.334,459.494 411.5,449.494 412,439.5C 414.167,437.333 416.333,435.167 418.5,433C 421.544,431.928 424.71,431.428 428,431.5C 440.47,433.049 452.97,434.049 465.5,434.5 Z"/></g>
<g><path style="opacity:1" fill="#68d8f9" d="M 81.5,441.5 C 82.6085,442.29 83.9419,442.79 85.5,443C 77.5,451 69.5,459 61.5,467C 62.056,467.383 62.3893,467.883 62.5,468.5C 58.3263,466.936 53.993,466.269 49.5,466.5C 49.5,466.167 49.5,465.833 49.5,465.5C 50.8333,465.5 52.1667,465.5 53.5,465.5C 53.3336,457.826 53.5003,450.159 54,442.5C 54.8333,441.667 55.6667,440.833 56.5,440C 64.8689,438.983 73.2023,439.483 81.5,441.5 Z"/></g>
<g><path style="opacity:1" fill="#62d5f7" d="M 456.5,440.5 C 454.031,441.317 451.365,441.817 448.5,442C 449.5,442.333 450.5,442.667 451.5,443C 441.575,452.421 432.242,462.254 423.5,472.5C 421.694,471.976 420.028,471.309 418.5,470.5C 417.645,463.181 417.479,455.848 418,448.5C 417.696,444.439 419.196,441.273 422.5,439C 425.811,439.215 429.144,439.215 432.5,439C 430.117,437.803 430.45,436.97 433.5,436.5C 441.156,437.934 448.823,439.268 456.5,440.5 Z"/></g>
<g><path style="opacity:1" fill="#45a8ce" d="M 98.5,433.5 C 97.7261,434.147 96.7261,434.48 95.5,434.5C 81.5457,432.671 67.5457,431.837 53.5,432C 51,434.5 48.5,437 46,439.5C 45.5002,448.494 45.3336,457.494 45.5,466.5C 44.609,467.11 43.609,467.443 42.5,467.5C 42.3335,457.494 42.5002,447.494 43,437.5C 45.0282,434.308 47.5282,431.641 50.5,429.5C 64.4551,428.368 78.4551,428.202 92.5,429C 95.1064,429.792 97.1064,431.292 98.5,433.5 Z"/></g>
<g><path style="opacity:1" fill="#44a8cd" d="M 453.5,428.5 C 456.692,428.405 459.692,429.071 462.5,430.5C 463.5,431.833 464.5,433.167 465.5,434.5C 452.97,434.049 440.47,433.049 428,431.5C 424.71,431.428 421.544,431.928 418.5,433C 416.333,435.167 414.167,437.333 412,439.5C 411.5,449.494 411.334,459.494 411.5,469.5C 410.5,469.5 409.5,469.5 408.5,469.5C 408.333,458.828 408.5,448.161 409,437.5C 411.222,433.612 414.388,430.779 418.5,429C 430.162,428.5 441.829,428.333 453.5,428.5 Z"/></g>
<g><path style="opacity:0.98" fill="#fef7d8" d="M 19.5,429.5 C 29.8333,429.5 40.1667,429.5 50.5,429.5C 47.5282,431.641 45.0282,434.308 43,437.5C 42.5002,447.494 42.3335,457.494 42.5,467.5C 31.996,471.338 25.3293,478.671 22.5,489.5C 21.5,489.5 20.5,489.5 19.5,489.5C 19.5,469.5 19.5,449.5 19.5,429.5 Z"/></g>
<g><path style="opacity:1" fill="#2ec9f8" d="M 81.5,437.5 C 88.3614,437.814 95.028,437.814 101.5,437.5C 102.496,450.656 102.829,463.99 102.5,477.5C 101.5,476.833 100.5,476.167 99.5,475.5C 90.6083,468.077 81.4417,467.744 72,474.5C 69.2161,471.881 66.0494,469.881 62.5,468.5C 62.3893,467.883 62.056,467.383 61.5,467C 69.5,459 77.5,451 85.5,443C 83.9419,442.79 82.6085,442.29 81.5,441.5C 84.5184,441.665 87.5184,441.498 90.5,441C 87.198,440.339 84.198,439.172 81.5,437.5 Z"/></g>
<g><path style="opacity:1" fill="#33cbf9" d="M 456.5,440.5 C 460.466,441.162 464.466,441.495 468.5,441.5C 468.5,444.167 468.5,446.833 468.5,449.5C 457.167,460.167 446.167,471.167 435.5,482.5C 431.792,478.79 427.792,475.457 423.5,472.5C 432.242,462.254 441.575,452.421 451.5,443C 450.5,442.667 449.5,442.333 448.5,442C 451.365,441.817 454.031,441.317 456.5,440.5 Z"/></g>
<g><path style="opacity:1" fill="#5fd7fa" d="M 255.5,430.5 C 255.5,439.5 255.5,448.5 255.5,457.5C 246.188,466.146 237.188,475.146 228.5,484.5C 227.522,484.023 226.689,483.357 226,482.5C 224.726,474.218 224.559,465.885 225.5,457.5C 225.5,456.5 225.5,455.5 225.5,454.5C 226.794,455.29 227.961,456.29 229,457.5C 238.063,448.605 246.896,439.605 255.5,430.5 Z"/></g>
<g><path style="opacity:1" fill="#63c6e7" d="M 81.5,437.5 C 84.198,439.172 87.198,440.339 90.5,441C 87.5184,441.498 84.5184,441.665 81.5,441.5C 73.2023,439.483 64.8689,438.983 56.5,440C 55.6667,440.833 54.8333,441.667 54,442.5C 53.5003,450.159 53.3336,457.826 53.5,465.5C 52.1667,465.5 50.8333,465.5 49.5,465.5C 49.1685,456.475 49.5018,447.475 50.5,438.5C 52.1667,437.5 53.5,436.167 54.5,434.5C 63.9527,432.957 72.9527,433.957 81.5,437.5 Z"/></g>
<g><path style="opacity:1" fill="#23c7f9" d="M 306.5,461.5 C 293.535,473.965 280.702,486.631 268,499.5C 267.169,484.848 266.669,484.848 266.5,499.5C 265.698,498.048 265.198,496.382 265,494.5C 264.065,478.834 263.232,463.167 262.5,447.5C 263.117,447.611 263.617,447.944 264,448.5C 264.749,453.489 265.415,458.489 266,463.5C 275.921,453.579 286.255,443.245 297,432.5C 297.72,430.888 297.554,429.388 296.5,428C 299.817,427.502 303.15,427.335 306.5,427.5C 306.5,438.833 306.5,450.167 306.5,461.5 Z"/></g>
<g><path style="opacity:1" fill="#14c1f8" d="M 468.5,449.5 C 468.666,459.506 468.5,469.506 468,479.5C 465.874,484.792 462.041,488.125 456.5,489.5C 450.5,489.5 444.5,489.5 438.5,489.5C 437.5,487.5 436.5,485.5 435.5,483.5C 435.5,483.167 435.5,482.833 435.5,482.5C 446.167,471.167 457.167,460.167 468.5,449.5 Z"/></g>
<g><path style="opacity:1" fill="#4acff8" d="M 225.5,457.5 C 224.559,465.885 224.726,474.218 226,482.5C 226.689,483.357 227.522,484.023 228.5,484.5C 237.188,475.146 246.188,466.146 255.5,457.5C 255.5,464.167 255.5,470.833 255.5,477.5C 246.535,485.964 237.702,494.631 229,503.5C 227.908,500.956 227.241,498.289 227,495.5C 224.041,492.902 222.707,489.568 223,485.5C 221.97,483.654 220.804,481.987 219.5,480.5C 220.403,468.847 220.57,457.181 220,445.5C 221.751,449.61 223.585,453.61 225.5,457.5 Z"/></g>
<g><path style="opacity:1" fill="#04c0f9" d="M 306.5,461.5 C 306.5,478.167 306.5,494.833 306.5,511.5C 293.167,511.5 279.833,511.5 266.5,511.5C 266.5,507.5 266.5,503.5 266.5,499.5C 266.669,484.848 267.169,484.848 268,499.5C 280.702,486.631 293.535,473.965 306.5,461.5 Z"/></g>
<g><path style="opacity:1" fill="#aadc5b" d="M 45.5,466.5 C 46.8333,466.5 48.1667,466.5 49.5,466.5C 53.993,466.269 58.3263,466.936 62.5,468.5C 66.0494,469.881 69.2161,471.881 72,474.5C 81.4417,467.744 90.6083,468.077 99.5,475.5C 71.0021,480.066 42.6688,485.4 14.5,491.5C 15.9303,490.463 17.597,489.796 19.5,489.5C 20.5,489.5 21.5,489.5 22.5,489.5C 25.3293,478.671 31.996,471.338 42.5,467.5C 43.609,467.443 44.609,467.11 45.5,466.5 Z"/></g>
<g><path style="opacity:0.996" fill="#9dce49" d="M 99.5,475.5 C 100.5,476.167 101.5,476.833 102.5,477.5C 103.6,478.605 104.267,479.938 104.5,481.5C 70.2111,488.271 35.8777,494.938 1.5,501.5C 4.53246,496.483 8.86579,493.15 14.5,491.5C 42.6688,485.4 71.0021,480.066 99.5,475.5 Z"/></g>
<g><path style="opacity:1" fill="#fef0bb" d="M 303.5,410.5 C 321.836,410.333 340.17,410.5 358.5,411C 360,412.5 361.5,414 363,415.5C 363.667,436.833 363.667,458.167 363,479.5C 361.59,480.787 360.09,481.954 358.5,483C 341.503,483.5 324.503,483.667 307.5,483.5C 307.5,482.5 307.5,481.5 307.5,480.5C 324.5,480.5 341.5,480.5 358.5,480.5C 358.5,458.5 358.5,436.5 358.5,414.5C 341.167,414.5 323.833,414.5 306.5,414.5C 305.833,413.833 305.167,413.167 304.5,412.5C 304.167,411.833 303.833,411.167 303.5,410.5 Z"/></g>
<g><path style="opacity:1" fill="#acdc5b" d="M 407.5,469.5 C 407.833,469.5 408.167,469.5 408.5,469.5C 409.5,469.5 410.5,469.5 411.5,469.5C 413.806,469.993 416.139,470.326 418.5,470.5C 420.028,471.309 421.694,471.976 423.5,472.5C 427.792,475.457 431.792,478.79 435.5,482.5C 435.5,482.833 435.5,483.167 435.5,483.5C 417.682,485.597 400.015,488.597 382.5,492.5C 383.077,488.017 384.744,484.017 387.5,480.5C 389.5,479.167 391.167,477.5 392.5,475.5C 393.167,475.167 393.833,474.833 394.5,474.5C 395.5,473.833 396.5,473.167 397.5,472.5C 398.995,472.011 400.329,471.345 401.5,470.5C 402.167,470.5 402.833,470.5 403.5,470.5C 404.708,469.766 406.041,469.433 407.5,469.5 Z"/></g>
<g><path style="opacity:1" fill="#fee8b7" d="M 119.5,408.5 C 119.833,408.5 120.167,408.5 120.5,408.5C 120.5,409.833 120.5,411.167 120.5,412.5C 120.5,435.167 120.5,457.833 120.5,480.5C 120.5,481.5 120.5,482.5 120.5,483.5C 148.196,482.964 175.863,481.964 203.5,480.5C 203.5,482.5 203.5,484.5 203.5,486.5C 175.827,487.586 148.161,488.586 120.5,489.5C 120.167,489.5 119.833,489.5 119.5,489.5C 119.5,467.5 119.5,445.5 119.5,423.5C 119.5,418.833 119.5,414.167 119.5,409.5C 119.5,409.167 119.5,408.833 119.5,408.5 Z"/></g>
<g><path style="opacity:1" fill="#41b4dc" d="M 255.5,410.5 C 255.5,412.167 255.5,413.833 255.5,415.5C 245.494,415.334 235.494,415.5 225.5,416C 216.75,420.747 212.084,428.08 211.5,438C 211.653,447.984 212.82,457.817 215,467.5C 215.333,466.833 215.667,466.167 216,465.5C 216.333,470.833 216.667,476.167 217,481.5C 217.608,483.066 218.442,484.4 219.5,485.5C 219.5,494.167 219.5,502.833 219.5,511.5C 217.5,511.5 215.5,511.5 213.5,511.5C 212.646,487.229 210.646,463.062 207.5,439C 207.472,435.41 207.972,431.91 209,428.5C 219.718,411.029 235.218,405.029 255.5,410.5 Z"/></g>
<g><path style="opacity:1" fill="#9bcb47" d="M 435.5,483.5 C 436.5,485.5 437.5,487.5 438.5,489.5C 439.15,491.435 439.483,493.435 439.5,495.5C 412.224,499.685 384.891,504.685 357.5,510.5C 357.5,509.5 357.5,508.5 357.5,507.5C 357.5,506.5 357.5,505.5 357.5,504.5C 358.737,503.035 359.737,501.368 360.5,499.5C 363.604,496.063 367.271,493.396 371.5,491.5C 375.215,491.423 378.881,491.756 382.5,492.5C 400.015,488.597 417.682,485.597 435.5,483.5 Z"/></g>
<g><path style="opacity:1" fill="#fddfa6" d="M 203.5,486.5 C 203.5,488.167 203.5,489.833 203.5,491.5C 175.818,491.238 148.152,491.571 120.5,492.5C 120.5,491.5 120.5,490.5 120.5,489.5C 148.161,488.586 175.827,487.586 203.5,486.5 Z"/></g>
<g><path style="opacity:1" fill="#feeeb7" d="M 438.5,489.5 C 444.5,489.5 450.5,489.5 456.5,489.5C 456.5,496.833 456.5,504.167 456.5,511.5C 454.5,511.5 452.5,511.5 450.5,511.5C 450.313,504.813 446.979,500.646 440.5,499C 439.663,497.989 439.33,496.822 439.5,495.5C 439.483,493.435 439.15,491.435 438.5,489.5 Z"/></g>
<g><path style="opacity:1" fill="#81b22a" d="M 119.5,490.5 C 119.5,497.5 119.5,504.5 119.5,511.5C 80.8333,511.5 42.1667,511.5 3.5,511.5C 36.3051,504.706 69.3051,498.206 102.5,492C 108.112,490.869 113.779,490.369 119.5,490.5 Z"/></g>
<g><path style="opacity:1" fill="#2ec9f9" d="M 255.5,477.5 C 255.5,488.833 255.5,500.167 255.5,511.5C 243.5,511.5 231.5,511.5 219.5,511.5C 219.5,502.833 219.5,494.167 219.5,485.5C 219.5,483.833 219.5,482.167 219.5,480.5C 220.804,481.987 221.97,483.654 223,485.5C 222.707,489.568 224.041,492.902 227,495.5C 227.241,498.289 227.908,500.956 229,503.5C 237.702,494.631 246.535,485.964 255.5,477.5 Z"/></g>
<g><path style="opacity:1" fill="#fdd295" d="M 203.5,491.5 C 203.5,492.833 203.5,494.167 203.5,495.5C 175.833,495.787 148.166,496.12 120.5,496.5C 120.5,495.167 120.5,493.833 120.5,492.5C 148.152,491.571 175.818,491.238 203.5,491.5 Z"/></g>
<g><path style="opacity:1" fill="#91c13b" d="M 104.5,481.5 C 104.833,481.5 105.167,481.5 105.5,481.5C 106.75,484.006 107.416,486.673 107.5,489.5C 108.833,489.5 110.167,489.5 111.5,489.5C 114.167,489.5 116.833,489.5 119.5,489.5C 119.5,489.833 119.5,490.167 119.5,490.5C 113.779,490.369 108.112,490.869 102.5,492C 69.3051,498.206 36.3051,504.706 3.5,511.5C 2.83333,511.5 2.16667,511.5 1.5,511.5C 1.16667,510.5 0.5,509.833 -0.5,509.5C -0.5,507.167 -0.5,504.833 -0.5,502.5C 0.166667,502.167 0.833333,501.833 1.5,501.5C 35.8777,494.938 70.2111,488.271 104.5,481.5 Z"/></g>
<g><path style="opacity:1" fill="#88b932" d="M 439.5,495.5 C 439.33,496.822 439.663,497.989 440.5,499C 446.979,500.646 450.313,504.813 450.5,511.5C 419.5,511.5 388.5,511.5 357.5,511.5C 357.5,511.167 357.5,510.833 357.5,510.5C 384.891,504.685 412.224,499.685 439.5,495.5 Z"/></g>
<g><path style="opacity:1" fill="#f9c587" d="M 119.5,489.5 C 119.833,489.5 120.167,489.5 120.5,489.5C 120.5,490.5 120.5,491.5 120.5,492.5C 120.5,493.833 120.5,495.167 120.5,496.5C 148.166,496.12 175.833,495.787 203.5,495.5C 203.5,496.5 203.5,497.5 203.5,498.5C 175.835,498.937 148.168,499.27 120.5,499.5C 120.5,500.5 120.5,501.5 120.5,502.5C 120.5,504.167 120.5,505.833 120.5,507.5C 120.5,508.833 120.5,510.167 120.5,511.5C 120.167,511.5 119.833,511.5 119.5,511.5C 119.5,504.5 119.5,497.5 119.5,490.5C 119.5,490.167 119.5,489.833 119.5,489.5 Z"/></g>
<g><path style="opacity:1" fill="#f9ba7c" d="M 203.5,498.5 C 203.5,499.833 203.5,501.167 203.5,502.5C 175.833,502.5 148.167,502.5 120.5,502.5C 120.5,501.5 120.5,500.5 120.5,499.5C 148.168,499.27 175.835,498.937 203.5,498.5 Z"/></g>
<g><path style="opacity:1" fill="#f9b473" d="M 360.5,499.5 C 359.737,501.368 358.737,503.035 357.5,504.5C 341.008,503.503 324.342,503.17 307.5,503.5C 307.5,502.167 307.5,500.833 307.5,499.5C 325.413,499.464 343.08,499.464 360.5,499.5 Z"/></g>
<g><path style="opacity:1" fill="#f7a56e" d="M 120.5,502.5 C 148.167,502.5 175.833,502.5 203.5,502.5C 203.5,504.167 203.5,505.833 203.5,507.5C 175.833,507.5 148.167,507.5 120.5,507.5C 120.5,505.833 120.5,504.167 120.5,502.5 Z"/></g>
<g><path style="opacity:1" fill="#f7a368" d="M 307.5,503.5 C 324.342,503.17 341.008,503.503 357.5,504.5C 357.5,505.5 357.5,506.5 357.5,507.5C 340.833,507.5 324.167,507.5 307.5,507.5C 307.5,506.167 307.5,504.833 307.5,503.5 Z"/></g>
<g><path style="opacity:1" fill="#f49262" d="M 120.5,507.5 C 148.167,507.5 175.833,507.5 203.5,507.5C 203.5,508.833 203.5,510.167 203.5,511.5C 175.833,511.5 148.167,511.5 120.5,511.5C 120.5,510.167 120.5,508.833 120.5,507.5 Z"/></g>
<g><path style="opacity:1" fill="#f48f5d" d="M 307.5,507.5 C 324.167,507.5 340.833,507.5 357.5,507.5C 357.5,508.5 357.5,509.5 357.5,510.5C 357.5,510.833 357.5,511.167 357.5,511.5C 340.833,511.5 324.167,511.5 307.5,511.5C 307.5,510.167 307.5,508.833 307.5,507.5 Z"/></g>
</svg>
