<?xml version="1.0" encoding="UTF-8"?>
<!DOCTYPE svg PUBLIC "-//W3C//DTD SVG 1.1//EN" "http://www.w3.org/Graphics/SVG/1.1/DTD/svg11.dtd">
<svg xmlns="http://www.w3.org/2000/svg" version="1.1" width="512px" height="512px" style="shape-rendering:geometricPrecision; text-rendering:geometricPrecision; image-rendering:optimizeQuality; fill-rule:evenodd; clip-rule:evenodd" xmlns:xlink="http://www.w3.org/1999/xlink">
<g><path style="opacity:1" fill="#e33629" d="M 337.5,-0.5 C 346.5,-0.5 355.5,-0.5 364.5,-0.5C 420.591,10.7614 453.091,44.7614 462,101.5C 462.5,108.826 462.666,116.159 462.5,123.5C 461.116,134.059 458.449,144.392 454.5,154.5C 452.836,158.496 451.169,162.496 449.5,166.5C 438.119,184.068 424.619,200.068 409,214.5C 404.583,219.682 400.417,225.016 396.5,230.5C 384.473,250.386 374.64,271.386 367,293.5C 364.802,300.081 360.636,304.915 354.5,308C 344.151,309.831 337.484,305.664 334.5,295.5C 342.363,274.075 351.863,253.408 363,233.5C 376.255,216.908 390.255,200.908 405,185.5C 431.245,151.379 437.579,113.712 424,72.5C 413.981,46.4812 396.815,26.6478 372.5,13C 360.842,7.95648 349.175,3.45648 337.5,-0.5 Z"/></g>
<g><path style="opacity:0.998" fill="#f65632" d="M 334.5,-0.5 C 335.5,-0.5 336.5,-0.5 337.5,-0.5C 349.175,3.45648 360.842,7.95648 372.5,13C 396.815,26.6478 413.981,46.4812 424,72.5C 437.579,113.712 431.245,151.379 405,185.5C 390.255,200.908 376.255,216.908 363,233.5C 351.863,253.408 342.363,274.075 334.5,295.5C 328.718,281.923 322.885,268.256 317,254.5C 315.643,251.102 313.81,248.102 311.5,245.5C 308.363,237.894 304.197,230.894 299,224.5C 284.587,209.259 270.753,193.592 257.5,177.5C 254.102,172.762 251.102,167.762 248.5,162.5C 247.134,159.768 245.801,157.101 244.5,154.5C 241.37,144.318 239.037,133.984 237.5,123.5C 234.981,73.3578 255.314,35.8578 298.5,11C 310.136,5.61966 322.136,1.78633 334.5,-0.5 Z"/></g>
<g><path style="opacity:1" fill="#f3f2f1" d="M 341.5,60.5 C 371.236,59.1019 390.736,72.4352 400,100.5C 403.436,132.826 389.602,153.326 358.5,162C 329.174,164.757 309.674,152.257 300,124.5C 295.521,91.1678 309.355,69.8345 341.5,60.5 Z"/></g>
<g><path style="opacity:0.995" fill="#f2f2f2" d="M 237.5,123.5 C 239.037,133.984 241.37,144.318 244.5,154.5C 173.668,155.333 102.668,155.833 31.5,156C 30.5036,193.761 30.1703,231.594 30.5,269.5C 30.5,306.833 30.5,344.167 30.5,381.5C 30.3334,413.835 30.5,446.168 31,478.5C 31.5,479 32,479.5 32.5,480C 171.5,480.5 310.5,480.667 449.5,480.5C 459.582,480.807 469.582,480.474 479.5,479.5C 480.494,489.987 480.828,500.654 480.5,511.5C 320.5,511.5 160.5,511.5 0.5,511.5C 0.5,510.833 0.166667,510.5 -0.5,510.5C -0.5,382.167 -0.5,253.833 -0.5,125.5C 0.28913,125.217 0.955796,124.717 1.5,124C 80.166,123.5 158.833,123.333 237.5,123.5 Z"/></g>
<g><path style="opacity:0.982" fill="#f2f2f2" d="M 462.5,123.5 C 468.5,123.5 474.5,123.5 480.5,123.5C 480.5,134.5 480.5,145.5 480.5,156.5C 479.527,156.013 478.527,155.513 477.5,155C 469.841,154.5 462.174,154.334 454.5,154.5C 458.449,144.392 461.116,134.059 462.5,123.5 Z"/></g>
<g><path style="opacity:1" fill="#e3e3e3" d="M 480.5,123.5 C 490.172,123.334 499.839,123.5 509.5,124C 510.044,124.717 510.711,125.217 511.5,125.5C 511.5,253.833 511.5,382.167 511.5,510.5C 510.833,510.5 510.5,510.833 510.5,511.5C 500.5,511.5 490.5,511.5 480.5,511.5C 480.828,500.654 480.494,489.987 479.5,479.5C 480.497,403.238 480.83,326.904 480.5,250.5C 480.5,219.167 480.5,187.833 480.5,156.5C 480.5,145.5 480.5,134.5 480.5,123.5 Z"/></g>
<g><path style="opacity:1" fill="#9bcb65" d="M 244.5,154.5 C 245.801,157.101 247.134,159.768 248.5,162.5C 232.16,171.652 217.66,183.319 205,197.5C 195.333,208.833 185.667,220.167 176,231.5C 160.936,248.898 142.436,261.065 120.5,268C 113.327,269.333 106.327,270.833 99.5,272.5C 76.5568,270.571 53.5568,269.571 30.5,269.5C 30.1703,231.594 30.5036,193.761 31.5,156C 102.668,155.833 173.668,155.333 244.5,154.5 Z"/></g>
<g><path style="opacity:1" fill="#23b5ec" d="M 454.5,154.5 C 462.174,154.334 469.841,154.5 477.5,155C 478.527,155.513 479.527,156.013 480.5,156.5C 480.5,187.833 480.5,219.167 480.5,250.5C 470.305,246.769 459.972,243.435 449.5,240.5C 449.5,215.833 449.5,191.167 449.5,166.5C 451.169,162.496 452.836,158.496 454.5,154.5 Z"/></g>
<g><path style="opacity:1" fill="#8ac34b" d="M 248.5,162.5 C 251.102,167.762 254.102,172.762 257.5,177.5C 239.788,193.379 223.621,210.713 209,229.5C 180.114,262.748 143.614,277.082 99.5,272.5C 106.327,270.833 113.327,269.333 120.5,268C 142.436,261.065 160.936,248.898 176,231.5C 185.667,220.167 195.333,208.833 205,197.5C 217.66,183.319 232.16,171.652 248.5,162.5 Z"/></g>
<g><path style="opacity:1" fill="#30cdf3" d="M 449.5,166.5 C 449.5,191.167 449.5,215.833 449.5,240.5C 432.35,234.475 414.683,231.141 396.5,230.5C 400.417,225.016 404.583,219.682 409,214.5C 424.619,200.068 438.119,184.068 449.5,166.5 Z"/></g>
<g><path style="opacity:1" fill="#2acdf5" d="M 257.5,177.5 C 270.753,193.592 284.587,209.259 299,224.5C 304.197,230.894 308.363,237.894 311.5,245.5C 299.136,251.679 288.303,260.012 279,270.5C 265.621,286.21 252.621,302.21 240,318.5C 224.121,336.679 205.288,350.846 183.5,361C 172.351,364.873 160.851,366.373 149,365.5C 134.408,365.508 119.908,364.342 105.5,362C 77.0514,356.309 52.0514,362.809 30.5,381.5C 30.5,344.167 30.5,306.833 30.5,269.5C 53.5568,269.571 76.5568,270.571 99.5,272.5C 143.614,277.082 180.114,262.748 209,229.5C 223.621,210.713 239.788,193.379 257.5,177.5 Z"/></g>
<g><path style="opacity:1" fill="#fed44f" d="M 396.5,230.5 C 414.683,231.141 432.35,234.475 449.5,240.5C 449.5,320.5 449.5,400.5 449.5,480.5C 310.5,480.667 171.5,480.5 32.5,480C 32,479.5 31.5,479 31,478.5C 30.5,446.168 30.3334,413.835 30.5,381.5C 52.0514,362.809 77.0514,356.309 105.5,362C 119.908,364.342 134.408,365.508 149,365.5C 160.851,366.373 172.351,364.873 183.5,361C 205.288,350.846 224.121,336.679 240,318.5C 252.621,302.21 265.621,286.21 279,270.5C 288.303,260.012 299.136,251.679 311.5,245.5C 313.81,248.102 315.643,251.102 317,254.5C 322.885,268.256 328.718,281.923 334.5,295.5C 337.484,305.664 344.151,309.831 354.5,308C 360.636,304.915 364.802,300.081 367,293.5C 374.64,271.386 384.473,250.386 396.5,230.5 Z"/></g>
<g><path style="opacity:1" fill="#fec328" d="M 449.5,240.5 C 459.972,243.435 470.305,246.769 480.5,250.5C 480.83,326.904 480.497,403.238 479.5,479.5C 469.582,480.474 459.582,480.807 449.5,480.5C 449.5,400.5 449.5,320.5 449.5,240.5 Z"/></g>
<g><path style="opacity:1" fill="#576f79" d="M 330.5,318.5 C 332.989,318.298 335.323,318.798 337.5,320C 341.348,324.016 345.348,327.849 349.5,331.5C 354.018,327.148 358.684,322.981 363.5,319C 372.118,318.613 374.951,322.447 372,330.5C 367.984,334.348 364.151,338.348 360.5,342.5C 364.485,346.985 368.651,351.318 373,355.5C 373.938,364.567 370.105,367.734 361.5,365C 357.652,360.984 353.652,357.151 349.5,353.5C 344.982,357.852 340.316,362.019 335.5,366C 330.145,366.65 326.812,364.316 325.5,359C 325.625,357.373 326.125,355.873 327,354.5C 331.016,350.652 334.849,346.652 338.5,342.5C 334.148,337.982 329.981,333.316 326,328.5C 325.077,324.017 326.577,320.683 330.5,318.5 Z"/></g>
<g><path style="opacity:1" fill="#587079" d="M 348.5,376.5 C 354.013,375.91 357.347,378.244 358.5,383.5C 357.767,390.02 354.434,394.353 348.5,396.5C 343.734,396.234 341.067,393.734 340.5,389C 342.059,384.031 344.726,379.864 348.5,376.5 Z"/></g>
<g><path style="opacity:1" fill="#597078" d="M 328.5,404.5 C 335.831,404 339.331,407.333 339,414.5C 336.167,418.667 332.667,422.167 328.5,425C 319.961,428.451 315.794,425.618 316,416.5C 320.036,412.296 324.202,408.296 328.5,404.5 Z"/></g>
<g><path style="opacity:1" fill="#587079" d="M 164.5,411.5 C 170.952,411.084 177.285,411.584 183.5,413C 185.504,415.841 186.004,419.007 185,422.5C 183.786,424.049 182.286,425.215 180.5,426C 174.388,426.909 168.388,426.576 162.5,425C 158.188,419.731 158.855,415.231 164.5,411.5 Z"/></g>
<g><path style="opacity:1" fill="#576f79" d="M 130.5,414.5 C 134.902,414.228 139.235,414.561 143.5,415.5C 147.59,419.922 147.257,424.089 142.5,428C 138.853,428.774 135.186,429.441 131.5,430C 121.842,431.515 118.675,427.681 122,418.5C 124.564,416.376 127.397,415.042 130.5,414.5 Z"/></g>
<g><path style="opacity:1" fill="#597079" d="M 204.5,413.5 C 210.566,414.343 216.566,415.509 222.5,417C 226.826,422.044 226.16,426.378 220.5,430C 214.707,430.535 209.041,429.869 203.5,428C 198.003,422.683 198.336,417.85 204.5,413.5 Z"/></g>
<g><path style="opacity:1" fill="#576f79" d="M 243.5,420.5 C 249.976,420.962 256.31,422.129 262.5,424C 265.345,428.264 265.012,432.264 261.5,436C 254.647,436.961 247.98,436.294 241.5,434C 237.121,428.696 237.788,424.196 243.5,420.5 Z"/></g>
<g><path style="opacity:1" fill="#587079" d="M 290.5,422.5 C 294.308,422.163 297.974,422.663 301.5,424C 305.875,429.121 305.209,433.455 299.5,437C 293.835,437.801 288.168,438.134 282.5,438C 277.167,433.333 277.167,428.667 282.5,424C 285.365,423.817 288.031,423.317 290.5,422.5 Z"/></g>
<g><path style="opacity:1" fill="#576f79" d="M 95.5,423.5 C 105.681,421.841 109.181,425.841 106,435.5C 101.597,437.524 97.0972,439.358 92.5,441C 84.212,442.291 81.0454,438.791 83,430.5C 86.8623,427.502 91.029,425.169 95.5,423.5 Z"/></g>
<g><path style="opacity:1" fill="#597178" d="M 61.5,439.5 C 71.1096,439.936 73.7762,444.436 69.5,453C 66.2901,455.104 62.9568,456.937 59.5,458.5C 52.9556,456.969 50.7889,452.969 53,446.5C 55.9958,444.267 58.8292,441.934 61.5,439.5 Z"/></g>
</svg>
