<?xml version="1.0" encoding="UTF-8"?>
<!DOCTYPE svg PUBLIC "-//W3C//DTD SVG 1.1//EN" "http://www.w3.org/Graphics/SVG/1.1/DTD/svg11.dtd">
<svg xmlns="http://www.w3.org/2000/svg" version="1.1" width="512px" height="512px" style="shape-rendering:geometricPrecision; text-rendering:geometricPrecision; image-rendering:optimizeQuality; fill-rule:evenodd; clip-rule:evenodd" xmlns:xlink="http://www.w3.org/1999/xlink">
<g><path style="opacity:0.994" fill="#9bd4ca" d="M 90.5,-0.5 C 96.5,-0.5 102.5,-0.5 108.5,-0.5C 108.5,-0.166667 108.5,0.166667 108.5,0.5C 107.448,0.350549 106.448,0.517215 105.5,1C 95.6311,10.7016 85.9645,20.5349 76.5,30.5C 63.4448,37.2219 53.7781,47.2219 47.5,60.5C 37.1405,69.1824 27.1405,78.849 17.5,89.5C 16.746,84.5365 16.4126,79.5365 16.5,74.5C 41.1394,49.5269 65.8061,24.5269 90.5,-0.5 Z"/></g>
<g><path style="opacity:0.986" fill="#a3d5db" d="M 83.5,-0.5 C 85.8333,-0.5 88.1667,-0.5 90.5,-0.5C 65.8061,24.5269 41.1394,49.5269 16.5,74.5C 16.8625,69.248 17.8625,64.248 19.5,59.5C 39.1667,40.5 58.5,21.1667 77.5,1.5C 79.6264,0.951844 81.6264,0.285178 83.5,-0.5 Z"/></g>
<g><path style="opacity:0.977" fill="#94d2bb" d="M 108.5,0.5 C 112.122,0.321976 115.456,0.988643 118.5,2.5C 108.869,11.3098 98.8695,19.6432 88.5,27.5C 84.4993,28.5003 80.4993,29.5003 76.5,30.5C 85.9645,20.5349 95.6311,10.7016 105.5,1C 106.448,0.517215 107.448,0.350549 108.5,0.5 Z"/></g>
<g><path style="opacity:0.964" fill="#a9d7e9" d="M 77.5,1.5 C 58.5,21.1667 39.1667,40.5 19.5,59.5C 25.8948,33.9272 41.2282,15.7605 65.5,5C 69.4299,3.5226 73.4299,2.35593 77.5,1.5 Z"/></g>
<g><path style="opacity:1" fill="#7ac98b" d="M 124.5,4.5 C 126.579,4.97065 128.579,5.63732 130.5,6.5C 128.495,9.59496 126.328,12.595 124,15.5C 119.41,18.8792 114.91,22.3792 110.5,26C 109.748,26.6708 109.414,27.5041 109.5,28.5C 104.537,27.746 99.5365,27.4126 94.5,27.5C 104.86,20.318 114.86,12.6513 124.5,4.5 Z"/></g>
<g><path style="opacity:1" fill="#8acfa6" d="M 118.5,2.5 C 120.786,2.59495 122.786,3.26162 124.5,4.5C 114.86,12.6513 104.86,20.318 94.5,27.5C 92.5,27.5 90.5,27.5 88.5,27.5C 98.8695,19.6432 108.869,11.3098 118.5,2.5 Z"/></g>
<g><path style="opacity:0.995" fill="#89bef5" d="M 241.5,18.5 C 241.611,19.1174 241.944,19.6174 242.5,20C 217.965,44.7016 193.299,69.2016 168.5,93.5C 164.21,90.8607 159.544,89.0274 154.5,88C 151.961,87.2042 149.628,87.3709 147.5,88.5C 147.167,88.5 146.833,88.5 146.5,88.5C 140.23,88.9225 134.563,90.9225 129.5,94.5C 129.351,93.448 129.517,92.448 130,91.5C 150.833,70.6667 171.667,49.8333 192.5,29C 191.944,28.6174 191.611,28.1174 191.5,27.5C 208.037,23.7258 224.703,20.7258 241.5,18.5 Z"/></g>
<g><path style="opacity:0.998" fill="#89b8f1" d="M 241.5,18.5 C 253.358,19.4317 263.358,24.0984 271.5,32.5C 240.752,62.2468 210.752,92.5801 181.5,123.5C 181.63,114.211 178.63,106.211 172.5,99.5C 171.585,97.2459 170.252,95.2459 168.5,93.5C 193.299,69.2016 217.965,44.7016 242.5,20C 241.944,19.6174 241.611,19.1174 241.5,18.5 Z"/></g>
<g><path style="opacity:1" fill="#4eb160" d="M 130.5,6.5 C 137.147,10.1592 143.481,14.3258 149.5,19C 152.447,21.4356 154.78,24.2689 156.5,27.5C 155.542,27.0472 154.708,26.3805 154,25.5C 147.252,30.1243 140.419,34.6243 133.5,39C 134.056,39.3826 134.389,39.8826 134.5,40.5C 133.167,40.5 131.833,40.5 130.5,40.5C 124.239,35.2031 117.239,31.2031 109.5,28.5C 109.414,27.5041 109.748,26.6708 110.5,26C 114.91,22.3792 119.41,18.8792 124,15.5C 126.328,12.595 128.495,9.59496 130.5,6.5 Z"/></g>
<g><path style="opacity:0.998" fill="#8ac4fa" d="M 191.5,27.5 C 191.611,28.1174 191.944,28.6174 192.5,29C 171.667,49.8333 150.833,70.6667 130,91.5C 129.517,92.448 129.351,93.448 129.5,94.5C 119.549,102.324 115.215,112.657 116.5,125.5C 114.491,127.065 112.157,128.065 109.5,128.5C 98.7316,131.36 88.065,131.026 77.5,127.5C 73.8751,125.57 70.2084,123.57 66.5,121.5C 66.1667,120.833 65.8333,120.167 65.5,119.5C 66.3013,114.438 67.3013,109.438 68.5,104.5C 70.4192,92.6456 73.0859,80.9789 76.5,69.5C 82.7798,58.1711 92.1132,50.3378 104.5,46C 113.171,44.0993 121.838,42.266 130.5,40.5C 131.833,40.5 133.167,40.5 134.5,40.5C 143.106,38.4785 151.773,36.6452 160.5,35C 161.056,34.6174 161.389,34.1174 161.5,33.5C 171.58,31.8839 181.58,29.8839 191.5,27.5 Z"/></g>
<g><path style="opacity:1" fill="#1b8d4f" d="M 156.5,27.5 C 158.89,28.8908 160.557,30.8908 161.5,33.5C 161.389,34.1174 161.056,34.6174 160.5,35C 151.773,36.6452 143.106,38.4785 134.5,40.5C 134.389,39.8826 134.056,39.3826 133.5,39C 140.419,34.6243 147.252,30.1243 154,25.5C 154.708,26.3805 155.542,27.0472 156.5,27.5 Z"/></g>
<g><path style="opacity:0.998" fill="#88afea" d="M 271.5,32.5 C 286.5,46.8333 301.167,61.5 315.5,76.5C 289.783,101.217 264.783,126.55 240.5,152.5C 234.606,151.044 228.606,150.377 222.5,150.5C 215.77,150.226 209.103,150.726 202.5,152C 197.547,153.143 193.214,155.31 189.5,158.5C 181.833,163.367 177,170.367 175,179.5C 174.5,200.164 174.333,220.831 174.5,241.5C 173.671,234.011 173.171,226.344 173,218.5C 149.965,241.368 127.132,264.368 104.5,287.5C 102.167,285.5 99.8333,283.5 97.5,281.5C 93.8333,277.167 89.8333,273.167 85.5,269.5C 82.5,265.833 79.1667,262.5 75.5,259.5C 73.5,257.167 71.5,254.833 69.5,252.5C 88.9524,231.184 107.952,210.017 126.5,189C 126.167,188.667 125.833,188.333 125.5,188C 132.502,182.333 138.502,176.333 143.5,170C 143.167,169.667 142.833,169.333 142.5,169C 146.132,166.37 149.465,163.37 152.5,160C 151.72,158.927 151.887,157.76 153,156.5C 154.362,155.075 155.862,154.242 157.5,154C 156.207,153.51 154.873,153.343 153.5,153.5C 169.333,149.664 178.667,139.664 181.5,123.5C 210.752,92.5801 240.752,62.2468 271.5,32.5 Z"/></g>
<g><path style="opacity:0.976" fill="#93d2b8" d="M 47.5,60.5 C 46.0685,66.4222 45.0685,72.4222 44.5,78.5C 37.0351,85.4641 29.7018,92.6308 22.5,100C 21.552,100.483 20.552,100.649 19.5,100.5C 18.6745,96.8641 18.0078,93.1974 17.5,89.5C 27.1405,78.849 37.1405,69.1824 47.5,60.5 Z"/></g>
<g><path style="opacity:0.996" fill="#87a5e3" d="M 315.5,76.5 C 322.5,82.8333 329.167,89.5 335.5,96.5C 311.833,120.833 287.833,144.833 263.5,168.5C 262.833,168.167 262.167,167.833 261.5,167.5C 259.126,164.126 256.126,161.459 252.5,159.5C 252.047,158.542 251.381,157.708 250.5,157C 247.107,155.38 243.774,153.88 240.5,152.5C 264.783,126.55 289.783,101.217 315.5,76.5 Z"/></g>
<g><path style="opacity:1" fill="#f48d41" d="M 76.5,69.5 C 73.0859,80.9789 70.4192,92.6456 68.5,104.5C 62.6636,99.5004 56.6636,94.6671 50.5,90C 49.7476,89.3292 49.4142,88.4959 49.5,87.5C 58.2911,81.2651 67.2911,75.2651 76.5,69.5 Z"/></g>
<g><path style="opacity:1" fill="#1e8f43" d="M 147.5,88.5 C 149.628,87.3709 151.961,87.2042 154.5,88C 159.544,89.0274 164.21,90.8607 168.5,93.5C 170.252,95.2459 171.585,97.2459 172.5,99.5C 172.233,101.965 171.566,104.299 170.5,106.5C 163.757,101.263 157.423,95.4294 151.5,89C 150.207,88.51 148.873,88.3433 147.5,88.5 Z"/></g>
<g><path style="opacity:1" fill="#89ce9e" d="M 44.5,78.5 C 44.9422,82.1545 45.2756,85.8212 45.5,89.5C 46.1667,91.8333 46.8333,94.1667 47.5,96.5C 40.7788,103.225 33.7788,109.558 26.5,115.5C 24.8007,112.101 23.134,108.768 21.5,105.5C 20.8333,103.833 20.1667,102.167 19.5,100.5C 20.552,100.649 21.552,100.483 22.5,100C 29.7018,92.6308 37.0351,85.4641 44.5,78.5 Z"/></g>
<g><path style="opacity:0.994" fill="#30a434" d="M 146.5,88.5 C 146.833,88.5 147.167,88.5 147.5,88.5C 148.873,88.3433 150.207,88.51 151.5,89C 157.423,95.4294 163.757,101.263 170.5,106.5C 169.008,110.818 167.008,114.818 164.5,118.5C 157.59,113.096 151.09,107.096 145,100.5C 144.517,99.552 144.351,98.552 144.5,97.5C 145.167,94.5 145.833,91.5 146.5,88.5 Z"/></g>
<g><path style="opacity:1" fill="#f59e42" d="M 49.5,87.5 C 49.4142,88.4959 49.7476,89.3292 50.5,90C 56.6636,94.6671 62.6636,99.5004 68.5,104.5C 67.3013,109.438 66.3013,114.438 65.5,119.5C 61.562,116.902 57.8953,113.902 54.5,110.5C 51.6527,106.139 49.3194,101.472 47.5,96.5C 46.8333,94.1667 46.1667,91.8333 45.5,89.5C 46.6049,88.3995 47.9382,87.7329 49.5,87.5 Z"/></g>
<g><path style="opacity:0.997" fill="#879ede" d="M 335.5,96.5 C 346.5,106.833 357.167,117.5 367.5,128.5C 364.167,132.833 360.833,137.167 357.5,141.5C 349.57,136.316 341.737,136.316 334,141.5C 323.136,163.227 312.303,184.894 301.5,206.5C 298.141,203.471 294.808,200.471 291.5,197.5C 282.167,187.833 272.833,178.167 263.5,168.5C 287.833,144.833 311.833,120.833 335.5,96.5 Z"/></g>
<g><path style="opacity:1" fill="#7dcc85" d="M 47.5,96.5 C 49.3194,101.472 51.6527,106.139 54.5,110.5C 48.7772,117.225 42.4439,123.225 35.5,128.5C 31.7729,124.727 28.7729,120.394 26.5,115.5C 33.7788,109.558 40.7788,103.225 47.5,96.5 Z"/></g>
<g><path style="opacity:0.992" fill="#4dbf25" d="M 144.5,97.5 C 144.351,98.552 144.517,99.552 145,100.5C 151.09,107.096 157.59,113.096 164.5,118.5C 157.16,131.84 146.827,142.173 133.5,149.5C 133.167,149.5 132.833,149.5 132.5,149.5C 125.212,152.264 117.878,154.597 110.5,156.5C 102.534,157.365 94.5341,157.698 86.5,157.5C 85.391,157.443 84.391,157.11 83.5,156.5C 92.5558,147.447 101.223,138.114 109.5,128.5C 112.157,128.065 114.491,127.065 116.5,125.5C 129.506,119.827 138.84,110.494 144.5,97.5 Z"/></g>
<g><path style="opacity:0.998" fill="#fac247" d="M 21.5,105.5 C 23.134,108.768 24.8007,112.101 26.5,115.5C 28.7729,120.394 31.7729,124.727 35.5,128.5C 38.5,133.5 42.5,137.5 47.5,140.5C 50.894,143.221 54.5606,145.554 58.5,147.5C 58.5,147.833 58.5,148.167 58.5,148.5C 57.6339,154.96 56.3006,161.293 54.5,167.5C 52.2086,166.458 51.2086,164.958 51.5,163C 50.4281,161.716 49.0948,161.383 47.5,162C 46.1667,161.333 46.1667,160.667 47.5,160C 41.9581,155.119 36.4581,150.286 31,145.5C 30.6667,145.833 30.3333,146.167 30,146.5C 26.9742,142.5 23.4742,139 19.5,136C 18.5,135.667 17.5,135.333 16.5,135C 12.1675,131.395 8.50087,127.228 5.5,122.5C 8.75388,114.912 14.0872,109.245 21.5,105.5 Z"/></g>
<g><path style="opacity:1" fill="#72c96c" d="M 54.5,110.5 C 57.8953,113.902 61.562,116.902 65.5,119.5C 65.8333,120.167 66.1667,120.833 66.5,121.5C 59.1667,126.833 52.8333,133.167 47.5,140.5C 42.5,137.5 38.5,133.5 35.5,128.5C 42.4439,123.225 48.7772,117.225 54.5,110.5 Z"/></g>
<g><path style="opacity:1" fill="#68c758" d="M 66.5,121.5 C 70.2084,123.57 73.8751,125.57 77.5,127.5C 70.423,133.071 63.7563,139.238 57.5,146C 58.056,146.383 58.3893,146.883 58.5,147.5C 54.5606,145.554 50.894,143.221 47.5,140.5C 52.8333,133.167 59.1667,126.833 66.5,121.5 Z"/></g>
<g><path style="opacity:1" fill="#57c237" d="M 77.5,127.5 C 88.065,131.026 98.7316,131.36 109.5,128.5C 101.223,138.114 92.5558,147.447 83.5,156.5C 74.771,155.035 66.4377,152.368 58.5,148.5C 58.5,148.167 58.5,147.833 58.5,147.5C 58.3893,146.883 58.056,146.383 57.5,146C 63.7563,139.238 70.423,133.071 77.5,127.5 Z"/></g>
<g><path style="opacity:0.995" fill="#fccf4b" d="M 5.5,122.5 C 8.50087,127.228 12.1675,131.395 16.5,135C 17.5,135.333 18.5,135.667 19.5,136C 23.4742,139 26.9742,142.5 30,146.5C 30.3333,146.167 30.6667,145.833 31,145.5C 36.4581,150.286 41.9581,155.119 47.5,160C 46.1667,160.667 46.1667,161.333 47.5,162C 49.0948,161.383 50.4281,161.716 51.5,163C 51.2086,164.958 52.2086,166.458 54.5,167.5C 53.0069,175.139 51.6736,182.806 50.5,190.5C 49.7148,192.374 49.0482,194.374 48.5,196.5C 48.643,193.585 46.9763,191.585 43.5,190.5C 43.7093,189.914 44.0426,189.414 44.5,189C 43.3333,187.833 42.1667,186.667 41,185.5C 40.6667,185.833 40.3333,186.167 40,186.5C 39.9604,182.795 38.1271,180.628 34.5,180C 34.9574,179.586 35.2907,179.086 35.5,178.5C 31.1457,171.966 25.979,166.966 20,163.5C 13.5264,157.174 6.69307,151.507 -0.5,146.5C -0.5,142.833 -0.5,139.167 -0.5,135.5C 0.73077,132.313 1.89744,128.98 3,125.5C 3.37675,124.058 4.21009,123.058 5.5,122.5 Z"/></g>
<g><path style="opacity:1" fill="#b3d9fd" d="M 357.5,141.5 C 359.424,143.695 361.091,146.028 362.5,148.5C 363.884,152.211 363.718,155.877 362,159.5C 325.997,234.171 289.497,308.504 252.5,382.5C 252.831,358.328 252.498,334.328 251.5,310.5C 268.164,275.838 284.831,241.171 301.5,206.5C 312.303,184.894 323.136,163.227 334,141.5C 341.737,136.316 349.57,136.316 357.5,141.5 Z"/></g>
<g><path style="opacity:0.967" fill="#8593d6" d="M 367.5,128.5 C 378.833,139.167 389.833,150.167 400.5,161.5C 396.833,165.833 392.833,169.833 388.5,173.5C 383.833,169.167 379.167,164.833 374.5,160.5C 370.833,156.167 366.833,152.167 362.5,148.5C 361.091,146.028 359.424,143.695 357.5,141.5C 360.833,137.167 364.167,132.833 367.5,128.5 Z"/></g>
<g><path style="opacity:1" fill="#d9edfe" d="M 222.5,150.5 C 222.5,159.167 222.5,167.833 222.5,176.5C 220.265,176.205 218.265,176.539 216.5,177.5C 211.644,178.349 208.144,181.015 206,185.5C 205.333,204.167 205.333,222.833 206,241.5C 207.979,246.989 211.812,249.989 217.5,250.5C 218.919,251.451 220.585,251.784 222.5,251.5C 222.5,260.167 222.5,268.833 222.5,277.5C 212.339,278.515 202.673,276.848 193.5,272.5C 192.306,271.728 191.306,270.728 190.5,269.5C 190.832,232.33 190.498,195.33 189.5,158.5C 193.214,155.31 197.547,153.143 202.5,152C 209.103,150.726 215.77,150.226 222.5,150.5 Z"/></g>
<g><path style="opacity:1" fill="#829fda" d="M 132.5,149.5 C 132.833,149.5 133.167,149.5 133.5,149.5C 139.748,152.727 146.415,154.06 153.5,153.5C 154.873,153.343 156.207,153.51 157.5,154C 155.862,154.242 154.362,155.075 153,156.5C 151.887,157.76 151.72,158.927 152.5,160C 149.465,163.37 146.132,166.37 142.5,169C 142.833,169.333 143.167,169.667 143.5,170C 138.502,176.333 132.502,182.333 125.5,188C 125.833,188.333 126.167,188.667 126.5,189C 107.952,210.017 88.9524,231.184 69.5,252.5C 68.1667,251.5 66.8333,250.5 65.5,249.5C 61.7899,245.792 58.4566,241.792 55.5,237.5C 59.757,234.749 63.5903,231.416 67,227.5C 78.3333,214.833 89.6667,202.167 101,189.5C 105.333,183.833 109.667,178.167 114,172.5C 119,167.5 124,162.5 129,157.5C 130.308,155.359 131.808,153.359 133.5,151.5C 133.137,150.817 132.804,150.15 132.5,149.5 Z"/></g>
<g><path style="opacity:1" fill="#c0dffc" d="M 222.5,150.5 C 228.606,150.377 234.606,151.044 240.5,152.5C 243.774,153.88 247.107,155.38 250.5,157C 251.381,157.708 252.047,158.542 252.5,159.5C 252.5,195.833 252.5,232.167 252.5,268.5C 249.01,271.415 245.01,273.582 240.5,275C 234.591,276.549 228.591,277.382 222.5,277.5C 222.5,268.833 222.5,260.167 222.5,251.5C 220.585,251.784 218.919,251.451 217.5,250.5C 224.131,251.348 229.631,249.348 234,244.5C 235.132,234.069 235.632,223.569 235.5,213C 235.333,203.5 235.167,194 235,184.5C 233.833,182 232,180.167 229.5,179C 225.27,177.71 220.936,177.21 216.5,177.5C 218.265,176.539 220.265,176.205 222.5,176.5C 222.5,167.833 222.5,159.167 222.5,150.5 Z"/></g>
<g><path style="opacity:1" fill="#6e6ca8" d="M 58.5,148.5 C 66.4377,152.368 74.771,155.035 83.5,156.5C 84.391,157.11 85.391,157.443 86.5,157.5C 85.0885,161.793 82.0885,165.293 77.5,168C 77.8333,168.333 78.1667,168.667 78.5,169C 75.465,172.37 72.1317,175.37 68.5,178C 68.8333,178.333 69.1667,178.667 69.5,179C 64.0002,184.812 58.5002,190.645 53,196.5C 52.6667,195.5 52.3333,194.5 52,193.5C 51.6667,193.833 51.3333,194.167 51,194.5C 50.51,193.207 50.3433,191.873 50.5,190.5C 51.6736,182.806 53.0069,175.139 54.5,167.5C 56.3006,161.293 57.6339,154.96 58.5,148.5 Z"/></g>
<g><path style="opacity:1" fill="#7681bc" d="M 110.5,156.5 C 112.355,156.272 113.188,156.939 113,158.5C 91.5595,181.432 70.7261,204.765 50.5,228.5C 48.937,224.478 47.6037,220.478 46.5,216.5C 46.286,209.732 46.9527,203.065 48.5,196.5C 49.0482,194.374 49.7148,192.374 50.5,190.5C 50.3433,191.873 50.51,193.207 51,194.5C 51.3333,194.167 51.6667,193.833 52,193.5C 52.3333,194.5 52.6667,195.5 53,196.5C 58.5002,190.645 64.0002,184.812 69.5,179C 69.1667,178.667 68.8333,178.333 68.5,178C 72.1317,175.37 75.465,172.37 78.5,169C 78.1667,168.667 77.8333,168.333 77.5,168C 82.0885,165.293 85.0885,161.793 86.5,157.5C 94.5341,157.698 102.534,157.365 110.5,156.5 Z"/></g>
<g><path style="opacity:1" fill="#b7dbfd" d="M 252.5,159.5 C 256.126,161.459 259.126,164.126 261.5,167.5C 264.027,172.915 265.86,178.582 267,184.5C 267.667,203.833 267.667,223.167 267,242.5C 265.799,248.768 263.799,254.768 261,260.5C 258.953,264.048 256.12,266.715 252.5,268.5C 252.5,232.167 252.5,195.833 252.5,159.5 Z"/></g>
<g><path style="opacity:1" fill="#fdde54" d="M -0.5,159.5 C 3.65487,164 7.9882,168.333 12.5,172.5C 13.086,172.291 13.586,171.957 14,171.5C 16.3333,175.167 19.3333,178.167 23,180.5C 23.6172,181.449 23.4506,182.282 22.5,183C 26.5971,183.634 27.2637,185.301 24.5,188C 25.5786,188.956 26.7453,189.789 28,190.5C 28.6172,191.449 28.4506,192.282 27.5,193C 28.9842,194.574 30.6508,195.907 32.5,197C 32.1667,197.333 31.8333,197.667 31.5,198C 32.8333,199.333 34.1667,200.667 35.5,202C 34.6433,202.689 33.9767,203.522 33.5,204.5C 35.7421,208.399 38.0754,212.233 40.5,216C 39.8333,216.333 39.1667,216.667 38.5,217C 40.3939,218.101 41.0606,219.434 40.5,221C 41.8333,222.333 43.1667,223.667 44.5,225C 29.6319,240.035 14.6319,254.869 -0.5,269.5C -0.5,232.833 -0.5,196.167 -0.5,159.5 Z"/></g>
<g><path style="opacity:1" fill="#e4f3fe" d="M 189.5,158.5 C 190.498,195.33 190.832,232.33 190.5,269.5C 184.827,266.217 180.494,261.55 177.5,255.5C 175.737,251.022 174.737,246.355 174.5,241.5C 174.333,220.831 174.5,200.164 175,179.5C 177,170.367 181.833,163.367 189.5,158.5 Z"/></g>
<g><path style="opacity:1" fill="#7365a8" d="M 374.5,160.5 C 379.167,164.833 383.833,169.167 388.5,173.5C 394.167,179.5 399.833,185.5 405.5,191.5C 404.209,192.542 404.209,193.708 405.5,195C 404.167,196.667 402.833,198.333 401.5,200C 402.167,200.333 402.833,200.667 403.5,201C 401.676,207.188 399.009,213.355 395.5,219.5C 395.833,220.167 396.167,220.833 396.5,221.5C 394.961,224.746 393.294,227.912 391.5,231C 391.833,231.333 392.167,231.667 392.5,232C 390.5,235.667 388.5,239.333 386.5,243C 387.308,243.308 387.975,243.808 388.5,244.5C 387.309,247.568 385.642,250.235 383.5,252.5C 368.395,248.215 353.395,248.548 338.5,253.5C 343.989,239.661 350.323,225.828 357.5,212C 356.643,211.311 355.977,210.478 355.5,209.5C 361.76,195.147 368.426,180.98 375.5,167C 373.442,165.192 373.108,163.025 374.5,160.5 Z"/></g>
<g><path style="opacity:1" fill="#6c5d9d" d="M 216.5,177.5 C 220.936,177.21 225.27,177.71 229.5,179C 232,180.167 233.833,182 235,184.5C 235.167,194 235.333,203.5 235.5,213C 235.632,223.569 235.132,234.069 234,244.5C 229.631,249.348 224.131,251.348 217.5,250.5C 211.812,249.989 207.979,246.989 206,241.5C 205.333,222.833 205.333,204.167 206,185.5C 208.144,181.015 211.644,178.349 216.5,177.5 Z"/></g>
<g><path style="opacity:1" fill="#7b7ebf" d="M 261.5,167.5 C 262.167,167.833 262.833,168.167 263.5,168.5C 272.833,178.167 282.167,187.833 291.5,197.5C 291.403,200.979 290.069,203.812 287.5,206C 287.5,207.667 287.5,209.333 287.5,211C 284.392,215.938 281.725,220.605 279.5,225C 280.167,225.333 280.833,225.667 281.5,226C 278.633,230.706 275.966,235.54 273.5,240.5C 274.167,240.833 274.833,241.167 275.5,241.5C 273.979,244.718 272.312,247.218 270.5,249C 271.634,250.016 271.301,250.683 269.5,251C 270.634,252.016 270.301,252.683 268.5,253C 269.308,253.308 269.975,253.808 270.5,254.5C 268.167,259.167 265.833,263.833 263.5,268.5C 264.443,270.47 263.776,271.97 261.5,273C 261.833,273.333 262.167,273.667 262.5,274C 258.108,280.921 255.441,287.255 254.5,293C 251.772,297.787 249.106,303.121 246.5,309C 247.167,309.333 247.833,309.667 248.5,310C 247.167,311 245.833,312 244.5,313C 243.411,315.759 243.411,318.425 244.5,321C 243.207,321.49 241.873,321.657 240.5,321.5C 233.833,314.167 226.833,307.167 219.5,300.5C 211.833,292.167 203.833,284.167 195.5,276.5C 194.71,275.206 193.71,274.039 192.5,273C 192.728,272.601 193.062,272.435 193.5,272.5C 202.673,276.848 212.339,278.515 222.5,277.5C 228.591,277.382 234.591,276.549 240.5,275C 245.01,273.582 249.01,271.415 252.5,268.5C 256.12,266.715 258.953,264.048 261,260.5C 263.799,254.768 265.799,248.768 267,242.5C 267.667,223.167 267.667,203.833 267,184.5C 265.86,178.582 264.027,172.915 261.5,167.5 Z"/></g>
<g><path style="opacity:0.988" fill="#8583ca" d="M 400.5,161.5 C 422.167,182.5 443.5,203.833 464.5,225.5C 461.269,230.239 457.436,234.572 453,238.5C 447.631,232.964 442.131,227.63 436.5,222.5C 426.5,211.833 416.167,201.5 405.5,191.5C 399.833,185.5 394.167,179.5 388.5,173.5C 392.833,169.833 396.833,165.833 400.5,161.5 Z"/></g>
<g><path style="opacity:1" fill="#7b91cc" d="M 132.5,149.5 C 132.804,150.15 133.137,150.817 133.5,151.5C 131.808,153.359 130.308,155.359 129,157.5C 124,162.5 119,167.5 114,172.5C 109.667,178.167 105.333,183.833 101,189.5C 89.6667,202.167 78.3333,214.833 67,227.5C 63.5903,231.416 59.757,234.749 55.5,237.5C 54.407,235.651 53.0737,233.984 51.5,232.5C 51.1667,231.167 50.8333,229.833 50.5,228.5C 70.7261,204.765 91.5595,181.432 113,158.5C 113.188,156.939 112.355,156.272 110.5,156.5C 117.878,154.597 125.212,152.264 132.5,149.5 Z"/></g>
<g><path style="opacity:1" fill="#6d589a" d="M 362.5,148.5 C 366.833,152.167 370.833,156.167 374.5,160.5C 373.108,163.025 373.442,165.192 375.5,167C 368.426,180.98 361.76,195.147 355.5,209.5C 355.977,210.478 356.643,211.311 357.5,212C 350.323,225.828 343.989,239.661 338.5,253.5C 326.603,259.595 319.27,269.262 316.5,282.5C 313.608,287.28 310.941,292.28 308.5,297.5C 308.709,298.086 309.043,298.586 309.5,299C 307.039,303.421 304.706,307.921 302.5,312.5C 302.833,313.167 303.167,313.833 303.5,314.5C 295.007,330.637 287.341,346.803 280.5,363C 283.167,363.667 283.167,364.333 280.5,365C 281.634,366.016 281.301,366.683 279.5,367C 280.634,368.016 280.301,368.683 278.5,369C 279.634,370.016 279.301,370.683 277.5,371C 278.634,372.016 278.301,372.683 276.5,373C 276.5,374 276.5,375 276.5,376C 274.122,376.974 274.456,377.641 277.5,378C 275.699,378.317 275.366,378.984 276.5,380C 274.699,380.317 274.366,380.984 275.5,382C 273.699,382.317 273.366,382.984 274.5,384C 272.699,384.317 272.366,384.984 273.5,386C 269.771,393.984 265.271,403.15 260,413.5C 258.989,414.337 257.822,414.67 256.5,414.5C 247.818,406.833 240.152,398.833 233.5,390.5C 237.936,390.79 242.27,390.29 246.5,389C 249.409,387.594 251.409,385.428 252.5,382.5C 289.497,308.504 325.997,234.171 362,159.5C 363.718,155.877 363.884,152.211 362.5,148.5 Z"/></g>
<g><path style="opacity:1" fill="#7b70b6" d="M 405.5,191.5 C 416.167,201.5 426.5,211.833 436.5,222.5C 435.091,229.369 432.425,236.036 428.5,242.5C 428.709,243.086 429.043,243.586 429.5,244C 426.833,249 424.167,254 421.5,259C 423.167,258 424.833,257 426.5,256C 421.775,263.573 418.442,271.407 416.5,279.5C 412.12,275.45 407.787,271.45 403.5,267.5C 398.532,260.194 391.865,255.194 383.5,252.5C 385.642,250.235 387.309,247.568 388.5,244.5C 387.975,243.808 387.308,243.308 386.5,243C 388.5,239.333 390.5,235.667 392.5,232C 392.167,231.667 391.833,231.333 391.5,231C 393.294,227.912 394.961,224.746 396.5,221.5C 396.167,220.833 395.833,220.167 395.5,219.5C 399.009,213.355 401.676,207.188 403.5,201C 402.833,200.667 402.167,200.333 401.5,200C 402.833,198.333 404.167,196.667 405.5,195C 404.209,193.708 404.209,192.542 405.5,191.5 Z"/></g>
<g><path style="opacity:1" fill="#88a5e3" d="M 174.5,241.5 C 174.737,246.355 175.737,251.022 177.5,255.5C 159.448,272.551 142.115,290.217 125.5,308.5C 122.833,306.167 120.167,303.833 117.5,301.5C 113.167,296.833 108.833,292.167 104.5,287.5C 127.132,264.368 149.965,241.368 173,218.5C 173.171,226.344 173.671,234.011 174.5,241.5 Z"/></g>
<g><path style="opacity:1" fill="#8277c0" d="M 436.5,222.5 C 442.131,227.63 447.631,232.964 453,238.5C 457.436,234.572 461.269,230.239 464.5,225.5C 471.833,232.167 478.833,239.167 485.5,246.5C 468.833,263.833 451.833,280.833 434.5,297.5C 428.167,291.833 422.167,285.833 416.5,279.5C 418.442,271.407 421.775,263.573 426.5,256C 424.833,257 423.167,258 421.5,259C 424.167,254 426.833,249 429.5,244C 429.043,243.586 428.709,243.086 428.5,242.5C 432.425,236.036 435.091,229.369 436.5,222.5 Z"/></g>
<g><path style="opacity:1" fill="#fdcc3f" d="M 46.5,216.5 C 47.6037,220.478 48.937,224.478 50.5,228.5C 50.8333,229.833 51.1667,231.167 51.5,232.5C 56.0373,245.567 60.3706,258.067 64.5,270C 64.3552,270.772 64.0219,271.439 63.5,272C 66.5211,274.022 67.5211,276.688 66.5,280C 67.9374,284.582 69.6041,289.082 71.5,293.5C 69.0087,294.541 69.0087,295.374 71.5,296C 70.8333,296.667 70.1667,297.333 69.5,298C 71.4768,301.043 73.4768,303.376 75.5,305C 75.1667,306 74.8333,307 74.5,308C 77.4264,311.297 78.0931,314.631 76.5,318C 77.5,319 78.5,320 79.5,321C 78.5876,323.906 79.2543,326.573 81.5,329C 80.6433,329.689 79.9767,330.522 79.5,331.5C 81.5457,335.518 83.2124,339.684 84.5,344C 85.2677,347.188 85.2677,350.688 84.5,354.5C 85.6368,356.607 86.6368,358.773 87.5,361C 86.7282,362.221 85.7282,363.221 84.5,364C 87.7377,365.467 88.7377,367.8 87.5,371C 88.1667,372.667 88.8333,374.333 89.5,376C 60.0055,406.661 30.0055,436.828 -0.5,466.5C -0.5,436.167 -0.5,405.833 -0.5,375.5C 19.6726,356.161 39.3392,336.327 58.5,316C 55.99,312.692 56.3233,310.026 59.5,308C 57.534,305.816 56.8673,303.482 57.5,301C 56.9706,299.441 56.304,297.941 55.5,296.5C 54.6808,293.685 54.6808,290.685 55.5,287.5C 55.5142,285.407 54.8476,283.574 53.5,282C 54.8941,281.044 55.5607,279.711 55.5,278C 54.4699,274.206 53.1366,270.54 51.5,267C 52.1667,266 52.8333,265 53.5,264C 52.1667,262 50.8333,260 49.5,258C 49.5,256.333 49.5,254.667 49.5,253C 47.1925,252.646 46.8592,251.646 48.5,250C 47.8846,243.023 47.2179,236.19 46.5,229.5C 46.5,225.167 46.5,220.833 46.5,216.5 Z"/></g>
<g><path style="opacity:1" fill="#fdd347" d="M 46.5,229.5 C 47.2179,236.19 47.8846,243.023 48.5,250C 46.8592,251.646 47.1925,252.646 49.5,253C 49.5,254.667 49.5,256.333 49.5,258C 50.8333,260 52.1667,262 53.5,264C 52.8333,265 52.1667,266 51.5,267C 53.1366,270.54 54.4699,274.206 55.5,278C 55.5607,279.711 54.8941,281.044 53.5,282C 54.8476,283.574 55.5142,285.407 55.5,287.5C 54.6808,290.685 54.6808,293.685 55.5,296.5C 56.304,297.941 56.9706,299.441 57.5,301C 56.8673,303.482 57.534,305.816 59.5,308C 56.3233,310.026 55.99,312.692 58.5,316C 39.3392,336.327 19.6726,356.161 -0.5,375.5C -0.5,359.167 -0.5,342.833 -0.5,326.5C 15.1319,311.368 30.6319,296.035 46,280.5C 46.4999,263.503 46.6666,246.503 46.5,229.5 Z"/></g>
<g><path style="opacity:1" fill="#fdd94d" d="M -0.5,146.5 C 6.69307,151.507 13.5264,157.174 20,163.5C 25.979,166.966 31.1457,171.966 35.5,178.5C 35.2907,179.086 34.9574,179.586 34.5,180C 38.1271,180.628 39.9604,182.795 40,186.5C 40.3333,186.167 40.6667,185.833 41,185.5C 42.1667,186.667 43.3333,187.833 44.5,189C 44.0426,189.414 43.7093,189.914 43.5,190.5C 46.9763,191.585 48.643,193.585 48.5,196.5C 46.9527,203.065 46.286,209.732 46.5,216.5C 46.5,220.833 46.5,225.167 46.5,229.5C 46.6666,246.503 46.4999,263.503 46,280.5C 30.6319,296.035 15.1319,311.368 -0.5,326.5C -0.5,307.5 -0.5,288.5 -0.5,269.5C 14.6319,254.869 29.6319,240.035 44.5,225C 43.1667,223.667 41.8333,222.333 40.5,221C 41.0606,219.434 40.3939,218.101 38.5,217C 39.1667,216.667 39.8333,216.333 40.5,216C 38.0754,212.233 35.7421,208.399 33.5,204.5C 33.9767,203.522 34.6433,202.689 35.5,202C 34.1667,200.667 32.8333,199.333 31.5,198C 31.8333,197.667 32.1667,197.333 32.5,197C 30.6508,195.907 28.9842,194.574 27.5,193C 28.4506,192.282 28.6172,191.449 28,190.5C 26.7453,189.789 25.5786,188.956 24.5,188C 27.2637,185.301 26.5971,183.634 22.5,183C 23.4506,182.282 23.6172,181.449 23,180.5C 19.3333,178.167 16.3333,175.167 14,171.5C 13.586,171.957 13.086,172.291 12.5,172.5C 7.9882,168.333 3.65487,164 -0.5,159.5C -0.5,155.167 -0.5,150.833 -0.5,146.5 Z"/></g>
<g><path style="opacity:0.996" fill="#8473be" d="M 485.5,246.5 C 492.936,252.598 499.27,259.598 504.5,267.5C 489.088,284.415 473.088,300.915 456.5,317C 455.906,317.464 455.239,317.631 454.5,317.5C 447.833,311.167 441.167,304.833 434.5,298.5C 434.5,298.167 434.5,297.833 434.5,297.5C 451.833,280.833 468.833,263.833 485.5,246.5 Z"/></g>
<g><path style="opacity:1" fill="#b2d9fd" d="M 383.5,252.5 C 391.865,255.194 398.532,260.194 403.5,267.5C 406.017,272.214 407.85,277.214 409,282.5C 409.667,302.5 409.667,322.5 409,342.5C 406.208,362.626 394.708,374.126 374.5,377C 360.535,379.038 347.202,377.205 334.5,371.5C 329.54,368.208 325.207,364.208 321.5,359.5C 319.225,354.067 317.725,348.401 317,342.5C 316.5,322.503 316.333,302.503 316.5,282.5C 319.27,269.262 326.603,259.595 338.5,253.5C 353.395,248.548 368.395,248.215 383.5,252.5 Z"/></g>
<g><path style="opacity:1" fill="#879fde" d="M 177.5,255.5 C 180.494,261.55 184.827,266.217 190.5,269.5C 191.306,270.728 192.306,271.728 193.5,272.5C 193.062,272.435 192.728,272.601 192.5,273C 193.71,274.039 194.71,275.206 195.5,276.5C 195.631,277.239 195.464,277.906 195,278.5C 178.298,295.035 161.798,311.701 145.5,328.5C 142.5,325.833 139.5,323.167 136.5,320.5C 133.5,316.833 130.167,313.5 126.5,310.5C 126.167,309.833 125.833,309.167 125.5,308.5C 142.115,290.217 159.448,272.551 177.5,255.5 Z"/></g>
<g><path style="opacity:1" fill="#67488b" d="M 358.5,276.5 C 367.413,275.399 373.913,278.733 378,286.5C 378.667,304.167 378.667,321.833 378,339.5C 377.239,345.195 374.073,348.695 368.5,350C 358.154,352.912 351.321,349.412 348,339.5C 347.333,321.833 347.333,304.167 348,286.5C 350.106,281.557 353.606,278.224 358.5,276.5 Z"/></g>
<g><path style="opacity:1" fill="#8798d9" d="M 195.5,276.5 C 203.833,284.167 211.833,292.167 219.5,300.5C 219.631,301.239 219.464,301.906 219,302.5C 202.298,319.035 185.798,335.701 169.5,352.5C 167.833,351.167 166.167,349.833 164.5,348.5C 158.833,342.167 152.833,336.167 146.5,330.5C 146.167,329.833 145.833,329.167 145.5,328.5C 161.798,311.701 178.298,295.035 195,278.5C 195.464,277.906 195.631,277.239 195.5,276.5 Z"/></g>
<g><path style="opacity:0.999" fill="#7b62ad" d="M 434.5,298.5 C 441.167,304.833 447.833,311.167 454.5,317.5C 457.997,321.166 461.331,324.999 464.5,329C 462.767,331.53 461.767,334.53 461.5,338C 461.957,338.414 462.291,338.914 462.5,339.5C 461.438,340.77 460.438,341.937 459.5,343C 460.634,344.016 460.301,344.683 458.5,345C 459.634,346.016 459.301,346.683 457.5,347C 458.634,348.016 458.301,348.683 456.5,349C 457.641,349.741 457.641,350.575 456.5,351.5C 457.167,352.167 457.833,352.833 458.5,353.5C 455.468,357.889 453.302,362.556 452,367.5C 453.392,365.158 454.225,365.158 454.5,367.5C 433.833,388.833 412.833,409.833 391.5,430.5C 389.833,428.5 388.167,426.5 386.5,424.5C 387.552,424.649 388.552,424.483 389.5,424C 389.167,423.667 388.833,423.333 388.5,423C 391.825,421.386 392.158,419.386 389.5,417C 390.819,413.842 392.485,410.342 394.5,406.5C 394.291,405.914 393.957,405.414 393.5,405C 394.833,403.333 396.167,401.667 397.5,400C 398.089,398.127 397.422,396.46 395.5,395C 398.42,390.496 401.086,385.829 403.5,381C 402.949,379.602 402.616,378.268 402.5,377C 404.301,376.683 404.634,376.016 403.5,375C 405.301,374.683 405.634,374.016 404.5,373C 406.301,372.683 406.634,372.016 405.5,371C 407.127,369.259 408.794,366.926 410.5,364C 409.707,362.915 409.04,361.748 408.5,360.5C 409.706,357.921 411.039,355.421 412.5,353C 412.043,352.586 411.709,352.086 411.5,351.5C 412.562,350.23 413.562,349.063 414.5,348C 414.938,344.324 416.605,340.324 419.5,336C 419.329,332.302 420.662,328.969 423.5,326C 423.167,325.667 422.833,325.333 422.5,325C 423.5,324 424.5,323 425.5,322C 424.5,321 423.5,320 422.5,319C 424.301,318.683 424.634,318.016 423.5,317C 425.301,316.683 425.634,316.016 424.5,315C 425.167,314.667 425.833,314.333 426.5,314C 426.5,313 426.5,312 426.5,311C 429.049,306.73 431.716,302.563 434.5,298.5 Z"/></g>
<g><path style="opacity:1" fill="#8692d5" d="M 219.5,300.5 C 226.833,307.167 233.833,314.167 240.5,321.5C 224.202,338.299 207.702,354.965 191,371.5C 190.536,372.094 190.369,372.761 190.5,373.5C 184.833,368.167 179.167,362.833 173.5,357.5C 172.167,355.833 170.833,354.167 169.5,352.5C 185.798,335.701 202.298,319.035 219,302.5C 219.464,301.906 219.631,301.239 219.5,300.5 Z"/></g>
<g><path style="opacity:0.957" fill="#836bb8" d="M 504.5,267.5 C 506.136,268.749 507.303,270.416 508,272.5C 509.103,275.98 510.269,279.313 511.5,282.5C 511.5,288.833 511.5,295.167 511.5,301.5C 509.523,307.792 506.69,313.792 503,319.5C 486.965,335.702 470.799,351.702 454.5,367.5C 454.225,365.158 453.392,365.158 452,367.5C 453.302,362.556 455.468,357.889 458.5,353.5C 457.833,352.833 457.167,352.167 456.5,351.5C 457.641,350.575 457.641,349.741 456.5,349C 458.301,348.683 458.634,348.016 457.5,347C 459.301,346.683 459.634,346.016 458.5,345C 460.301,344.683 460.634,344.016 459.5,343C 460.438,341.937 461.438,340.77 462.5,339.5C 462.291,338.914 461.957,338.414 461.5,338C 461.767,334.53 462.767,331.53 464.5,329C 461.331,324.999 457.997,321.166 454.5,317.5C 455.239,317.631 455.906,317.464 456.5,317C 473.088,300.915 489.088,284.415 504.5,267.5 Z"/></g>
<g><path style="opacity:1" fill="#858bce" d="M 291.5,197.5 C 294.808,200.471 298.141,203.471 301.5,206.5C 284.831,241.171 268.164,275.838 251.5,310.5C 241.408,330.351 231.575,350.351 222,370.5C 221.242,374.362 221.742,378.028 223.5,381.5C 218.56,384.77 214.227,388.77 210.5,393.5C 209.167,392.5 207.833,391.5 206.5,390.5C 204.833,388.167 202.833,386.167 200.5,384.5C 198.167,381.5 195.5,378.833 192.5,376.5C 191.833,375.5 191.167,374.5 190.5,373.5C 190.369,372.761 190.536,372.094 191,371.5C 207.702,354.965 224.202,338.299 240.5,321.5C 241.873,321.657 243.207,321.49 244.5,321C 243.411,318.425 243.411,315.759 244.5,313C 245.833,312 247.167,311 248.5,310C 247.833,309.667 247.167,309.333 246.5,309C 249.106,303.121 251.772,297.787 254.5,293C 255.441,287.255 258.108,280.921 262.5,274C 262.167,273.667 261.833,273.333 261.5,273C 263.776,271.97 264.443,270.47 263.5,268.5C 265.833,263.833 268.167,259.167 270.5,254.5C 269.975,253.808 269.308,253.308 268.5,253C 270.301,252.683 270.634,252.016 269.5,251C 271.301,250.683 271.634,250.016 270.5,249C 272.312,247.218 273.979,244.718 275.5,241.5C 274.833,241.167 274.167,240.833 273.5,240.5C 275.966,235.54 278.633,230.706 281.5,226C 280.833,225.667 280.167,225.333 279.5,225C 281.725,220.605 284.392,215.938 287.5,211C 287.5,209.333 287.5,207.667 287.5,206C 290.069,203.812 291.403,200.979 291.5,197.5 Z"/></g>
<g><path style="opacity:1" fill="#715da1" d="M 316.5,282.5 C 316.333,302.503 316.5,322.503 317,342.5C 317.725,348.401 319.225,354.067 321.5,359.5C 318.421,366.623 315.088,372.457 311.5,377C 312.624,377.249 313.624,377.749 314.5,378.5C 312.689,381.955 311.022,385.455 309.5,389C 311.891,390.309 311.891,391.309 309.5,392C 310.634,393.016 310.301,393.683 308.5,394C 309.634,395.016 309.301,395.683 307.5,396C 308.634,397.016 308.301,397.683 306.5,398C 306.5,399 306.5,400 306.5,401C 300.652,414.075 294.319,427.909 287.5,442.5C 287.043,443.298 286.376,443.631 285.5,443.5C 278.833,437.167 272.167,430.833 265.5,424.5C 262.5,421.167 259.5,417.833 256.5,414.5C 257.822,414.67 258.989,414.337 260,413.5C 265.271,403.15 269.771,393.984 273.5,386C 272.366,384.984 272.699,384.317 274.5,384C 273.366,382.984 273.699,382.317 275.5,382C 274.366,380.984 274.699,380.317 276.5,380C 275.366,378.984 275.699,378.317 277.5,378C 274.456,377.641 274.122,376.974 276.5,376C 276.5,375 276.5,374 276.5,373C 278.301,372.683 278.634,372.016 277.5,371C 279.301,370.683 279.634,370.016 278.5,369C 280.301,368.683 280.634,368.016 279.5,367C 281.301,366.683 281.634,366.016 280.5,365C 283.167,364.333 283.167,363.667 280.5,363C 287.341,346.803 295.007,330.637 303.5,314.5C 303.167,313.833 302.833,313.167 302.5,312.5C 304.706,307.921 307.039,303.421 309.5,299C 309.043,298.586 308.709,298.086 308.5,297.5C 310.941,292.28 313.608,287.28 316.5,282.5 Z"/></g>
<g><path style="opacity:1" fill="#c2e1fd" d="M 251.5,310.5 C 252.498,334.328 252.831,358.328 252.5,382.5C 251.409,385.428 249.409,387.594 246.5,389C 242.27,390.29 237.936,390.79 233.5,390.5C 228.991,388.896 225.658,385.896 223.5,381.5C 221.742,378.028 221.242,374.362 222,370.5C 231.575,350.351 241.408,330.351 251.5,310.5 Z"/></g>
<g><path style="opacity:1" fill="#fdc437" d="M 51.5,232.5 C 53.0737,233.984 54.407,235.651 55.5,237.5C 58.4566,241.792 61.7899,245.792 65.5,249.5C 65.3893,250.117 65.056,250.617 64.5,251C 66.3496,255.733 68.3496,260.4 70.5,265C 72.4203,274.588 75.7537,283.922 80.5,293C 79.3389,295.721 80.0056,298.054 82.5,300C 82.1667,300.333 81.8333,300.667 81.5,301C 83.7457,303.427 84.4124,306.094 83.5,309C 84.8333,310.667 86.1667,312.333 87.5,314C 86.8333,314.667 86.1667,315.333 85.5,316C 87.5,320.333 89.5,324.667 91.5,329C 90.4464,330.388 90.2797,331.888 91,333.5C 91.3333,333.167 91.6667,332.833 92,332.5C 93.9536,334.785 93.787,336.952 91.5,339C 92.3081,339.308 92.9747,339.808 93.5,340.5C 94.2736,344.049 95.607,347.382 97.5,350.5C 97.0233,351.478 96.3567,352.311 95.5,353C 97.7457,355.427 98.4124,358.094 97.5,361C 98.5,362 99.5,363 100.5,364C 99.3346,365.868 99.668,367.702 101.5,369.5C 100.975,370.192 100.308,370.692 99.5,371C 102.416,371.827 103.083,373.494 101.5,376C 101.99,377.982 102.99,379.649 104.5,381C 102.219,382.482 102.219,384.149 104.5,386C 104.507,387.583 104.174,389.249 103.5,391C 106.507,393.915 106.84,396.915 104.5,400C 107.167,400.667 107.167,401.333 104.5,402C 105.5,403 106.5,404 107.5,405C 105.179,408.123 105.513,411.123 108.5,414C 90.8604,431.64 73.1937,449.306 55.5,467C 36.6903,468.481 18.0237,470.648 -0.5,473.5C -0.5,471.167 -0.5,468.833 -0.5,466.5C 30.0055,436.828 60.0055,406.661 89.5,376C 88.8333,374.333 88.1667,372.667 87.5,371C 88.7377,367.8 87.7377,365.467 84.5,364C 85.7282,363.221 86.7282,362.221 87.5,361C 86.6368,358.773 85.6368,356.607 84.5,354.5C 85.2677,350.688 85.2677,347.188 84.5,344C 83.2124,339.684 81.5457,335.518 79.5,331.5C 79.9767,330.522 80.6433,329.689 81.5,329C 79.2543,326.573 78.5876,323.906 79.5,321C 78.5,320 77.5,319 76.5,318C 78.0931,314.631 77.4264,311.297 74.5,308C 74.8333,307 75.1667,306 75.5,305C 73.4768,303.376 71.4768,301.043 69.5,298C 70.1667,297.333 70.8333,296.667 71.5,296C 69.0087,295.374 69.0087,294.541 71.5,293.5C 69.6041,289.082 67.9374,284.582 66.5,280C 67.5211,276.688 66.5211,274.022 63.5,272C 64.0219,271.439 64.3552,270.772 64.5,270C 60.3706,258.067 56.0373,245.567 51.5,232.5 Z"/></g>
<g><path style="opacity:1" fill="#7964ac" d="M 321.5,359.5 C 325.207,364.208 329.54,368.208 334.5,371.5C 334.062,371.435 333.728,371.601 333.5,372C 338.37,376.702 343.037,381.535 347.5,386.5C 334.616,413.268 321.45,439.935 308,466.5C 300.298,458.965 292.798,451.298 285.5,443.5C 286.376,443.631 287.043,443.298 287.5,442.5C 294.319,427.909 300.652,414.075 306.5,401C 306.5,400 306.5,399 306.5,398C 308.301,397.683 308.634,397.016 307.5,396C 309.301,395.683 309.634,395.016 308.5,394C 310.301,393.683 310.634,393.016 309.5,392C 311.891,391.309 311.891,390.309 309.5,389C 311.022,385.455 312.689,381.955 314.5,378.5C 313.624,377.749 312.624,377.249 311.5,377C 315.088,372.457 318.421,366.623 321.5,359.5 Z"/></g>
<g><path style="opacity:1" fill="#755aa2" d="M 403.5,267.5 C 407.787,271.45 412.12,275.45 416.5,279.5C 422.167,285.833 428.167,291.833 434.5,297.5C 434.5,297.833 434.5,298.167 434.5,298.5C 431.716,302.563 429.049,306.73 426.5,311C 426.5,312 426.5,313 426.5,314C 425.833,314.333 425.167,314.667 424.5,315C 425.634,316.016 425.301,316.683 423.5,317C 424.634,318.016 424.301,318.683 422.5,319C 423.5,320 424.5,321 425.5,322C 424.5,323 423.5,324 422.5,325C 422.833,325.333 423.167,325.667 423.5,326C 420.662,328.969 419.329,332.302 419.5,336C 416.605,340.324 414.938,344.324 414.5,348C 413.562,349.063 412.562,350.23 411.5,351.5C 411.709,352.086 412.043,352.586 412.5,353C 411.039,355.421 409.706,357.921 408.5,360.5C 409.04,361.748 409.707,362.915 410.5,364C 408.794,366.926 407.127,369.259 405.5,371C 406.634,372.016 406.301,372.683 404.5,373C 405.634,374.016 405.301,374.683 403.5,375C 404.634,376.016 404.301,376.683 402.5,377C 402.616,378.268 402.949,379.602 403.5,381C 401.086,385.829 398.42,390.496 395.5,395C 397.422,396.46 398.089,398.127 397.5,400C 396.167,401.667 394.833,403.333 393.5,405C 393.957,405.414 394.291,405.914 394.5,406.5C 392.485,410.342 390.819,413.842 389.5,417C 392.158,419.386 391.825,421.386 388.5,423C 388.833,423.333 389.167,423.667 389.5,424C 388.552,424.483 387.552,424.649 386.5,424.5C 373.5,411.833 360.5,399.167 347.5,386.5C 343.037,381.535 338.37,376.702 333.5,372C 333.728,371.601 334.062,371.435 334.5,371.5C 347.202,377.205 360.535,379.038 374.5,377C 394.708,374.126 406.208,362.626 409,342.5C 409.667,322.5 409.667,302.5 409,282.5C 407.85,277.214 406.017,272.214 403.5,267.5 Z"/></g>
<g><path style="opacity:1" fill="#fdbe31" d="M 65.5,249.5 C 66.8333,250.5 68.1667,251.5 69.5,252.5C 71.5,254.833 73.5,257.167 75.5,259.5C 76.2122,261.928 77.2122,264.261 78.5,266.5C 77.9984,267.716 77.6651,268.883 77.5,270C 81.7388,276.611 85.0721,284.611 87.5,294C 85.8592,295.646 86.1925,296.646 88.5,297C 87.3659,298.016 87.6992,298.683 89.5,299C 89.1667,299.333 88.8333,299.667 88.5,300C 90.078,302.482 91.4113,305.149 92.5,308C 92.2549,310.089 92.2549,312.089 92.5,314C 93.8333,314.667 94.8333,315.667 95.5,317C 95.5,318 95.5,319 95.5,320C 96.1667,320.333 96.8333,320.667 97.5,321C 97.1667,322 96.8333,323 96.5,324C 99.0788,326.703 100.079,329.703 99.5,333C 100.868,336.808 102.534,340.475 104.5,344C 104.355,344.772 104.022,345.439 103.5,346C 104.5,347 105.5,348 106.5,349C 106.335,350.117 106.002,351.284 105.5,352.5C 106.983,356.639 108.65,360.806 110.5,365C 110.355,365.772 110.022,366.439 109.5,367C 110.833,368.667 112.167,370.333 113.5,372C 112.833,372.667 112.167,373.333 111.5,374C 113.746,376.427 114.412,379.094 113.5,382C 114.833,383.667 116.167,385.333 117.5,387C 116.167,388.333 116.167,389.667 117.5,391C 114.833,391.667 114.833,392.333 117.5,393C 117.167,393.333 116.833,393.667 116.5,394C 117.614,395.449 118.614,396.783 119.5,398C 118.366,399.016 118.699,399.683 120.5,400C 120.167,401 119.833,402 119.5,403C 122.687,406.166 123.02,409.5 120.5,413C 121.5,414 122.5,415 123.5,416C 122.455,418.675 123.121,421.509 125.5,424.5C 124.687,425.814 123.687,426.981 122.5,428C 124.746,430.427 125.412,433.094 124.5,436C 125.27,438.567 126.27,441.067 127.5,443.5C 125.436,445.433 125.436,447.6 127.5,450C 122.555,455.947 117.222,461.614 111.5,467C 74.6683,472.242 37.6683,475.409 0.5,476.5C 0.5,475.833 0.166667,475.5 -0.5,475.5C -0.5,474.833 -0.5,474.167 -0.5,473.5C 18.0237,470.648 36.6903,468.481 55.5,467C 73.1937,449.306 90.8604,431.64 108.5,414C 105.513,411.123 105.179,408.123 107.5,405C 106.5,404 105.5,403 104.5,402C 107.167,401.333 107.167,400.667 104.5,400C 106.84,396.915 106.507,393.915 103.5,391C 104.174,389.249 104.507,387.583 104.5,386C 102.219,384.149 102.219,382.482 104.5,381C 102.99,379.649 101.99,377.982 101.5,376C 103.083,373.494 102.416,371.827 99.5,371C 100.308,370.692 100.975,370.192 101.5,369.5C 99.668,367.702 99.3346,365.868 100.5,364C 99.5,363 98.5,362 97.5,361C 98.4124,358.094 97.7457,355.427 95.5,353C 96.3567,352.311 97.0233,351.478 97.5,350.5C 95.607,347.382 94.2736,344.049 93.5,340.5C 92.9747,339.808 92.3081,339.308 91.5,339C 93.787,336.952 93.9536,334.785 92,332.5C 91.6667,332.833 91.3333,333.167 91,333.5C 90.2797,331.888 90.4464,330.388 91.5,329C 89.5,324.667 87.5,320.333 85.5,316C 86.1667,315.333 86.8333,314.667 87.5,314C 86.1667,312.333 84.8333,310.667 83.5,309C 84.4124,306.094 83.7457,303.427 81.5,301C 81.8333,300.667 82.1667,300.333 82.5,300C 80.0056,298.054 79.3389,295.721 80.5,293C 75.7537,283.922 72.4203,274.588 70.5,265C 68.3496,260.4 66.3496,255.733 64.5,251C 65.056,250.617 65.3893,250.117 65.5,249.5 Z"/></g>
<g><path style="opacity:1" fill="#f06735" d="M 200.5,384.5 C 202.833,386.167 204.833,388.167 206.5,390.5C 218.771,414.095 230.938,439.428 243,466.5C 251.963,471.986 259.963,478.652 267,486.5C 268.442,489.05 269.608,491.716 270.5,494.5C 268.973,496.193 267.64,498.027 266.5,500C 259.178,503.144 251.511,505.477 243.5,507C 218.392,509.329 193.392,510.829 168.5,511.5C 124.167,511.5 79.8333,511.5 35.5,511.5C 35.5,511.167 35.5,510.833 35.5,510.5C 77.998,509.667 120.665,509.167 163.5,509C 188.266,508.728 212.933,507.062 237.5,504C 243.949,502.342 250.282,500.509 256.5,498.5C 256.5,497.5 256.5,496.5 256.5,495.5C 259.718,495.349 260.051,494.516 257.5,493C 258.624,492.751 259.624,492.251 260.5,491.5C 254.985,480.815 247.152,472.148 237,465.5C 224.821,438.478 212.655,411.478 200.5,384.5 Z"/></g>
<g><path style="opacity:1" fill="#816bb7" d="M 347.5,386.5 C 360.5,399.167 373.5,411.833 386.5,424.5C 388.167,426.5 389.833,428.5 391.5,430.5C 376.339,446.494 360.673,461.994 344.5,477C 328.711,486.312 312.711,486.812 296.5,478.5C 295.421,476.457 293.754,475.124 291.5,474.5C 278.86,462.527 266.527,450.194 254.5,437.5C 258.565,433.441 262.232,429.107 265.5,424.5C 272.167,430.833 278.833,437.167 285.5,443.5C 292.798,451.298 300.298,458.965 308,466.5C 321.45,439.935 334.616,413.268 347.5,386.5 Z"/></g>
<g><path style="opacity:1" fill="#8781c7" d="M 223.5,381.5 C 225.658,385.896 228.991,388.896 233.5,390.5C 240.152,398.833 247.818,406.833 256.5,414.5C 259.5,417.833 262.5,421.167 265.5,424.5C 262.232,429.107 258.565,433.441 254.5,437.5C 247.833,431.167 241.167,424.833 234.5,418.5C 226.5,410.167 218.5,401.833 210.5,393.5C 214.227,388.77 218.56,384.77 223.5,381.5 Z"/></g>
<g><path style="opacity:1" fill="#fcb22b" d="M 85.5,269.5 C 89.8333,273.167 93.8333,277.167 97.5,281.5C 97.5858,282.496 97.2524,283.329 96.5,284C 99.9458,290.391 103.279,296.891 106.5,303.5C 106.291,304.086 105.957,304.586 105.5,305C 112.569,320.171 118.902,335.837 124.5,352C 124.043,352.414 123.709,352.914 123.5,353.5C 127.179,360.13 129.512,366.963 130.5,374C 134.654,381.656 137.987,389.323 140.5,397C 139.833,397.333 139.167,397.667 138.5,398C 140.452,400.746 142.119,403.413 143.5,406C 142.978,406.561 142.645,407.228 142.5,408C 143.842,411.015 145.175,414.015 146.5,417C 143.833,417.667 143.833,418.333 146.5,419C 146.835,420.164 146.835,421.497 146.5,423C 147.833,424.667 149.167,426.333 150.5,428C 149.713,431.004 150.379,433.837 152.5,436.5C 151.975,437.192 151.308,437.692 150.5,438C 151.833,439.667 153.167,441.333 154.5,443C 153.879,445.498 154.545,447.832 156.5,450C 156.167,451 155.833,452 155.5,453C 159.335,454.803 159.669,456.136 156.5,457C 157.562,459.791 158.895,462.457 160.5,465C 159.998,468.02 158.332,470.02 155.5,471C 156.167,471.333 156.833,471.667 157.5,472C 155.671,472.273 154.171,473.107 153,474.5C 152.667,474.167 152.333,473.833 152,473.5C 150.333,474.833 148.667,476.167 147,477.5C 99.7096,480.673 52.2096,483.006 4.5,484.5C 4.5,485.5 4.5,486.5 4.5,487.5C 3.51385,485.574 2.51385,483.574 1.5,481.5C 45.8873,479.395 90.2206,476.229 134.5,472C 136.7,469.407 139.367,468.74 142.5,470C 143.357,469.311 144.023,468.478 144.5,467.5C 142.724,466.685 142.057,465.518 142.5,464C 143.833,463.333 144.833,462.333 145.5,461C 144.167,459.333 142.833,457.667 141.5,456C 142.497,453.597 142.164,451.264 140.5,449C 140.903,447.527 141.57,446.194 142.5,445C 141.167,443.333 139.833,441.667 138.5,440C 139.167,439 139.833,438 140.5,437C 139.5,436 138.5,435 137.5,434C 138.938,430.994 138.271,427.994 135.5,425C 135.833,424 136.167,423 136.5,422C 135.833,421.667 135.167,421.333 134.5,421C 134.647,419.026 134.981,417.026 135.5,415C 134.874,414.25 134.374,413.416 134,412.5C 132.334,413.34 132.167,412.84 133.5,411C 132.833,410.667 132.167,410.333 131.5,410C 131.5,407 131.5,404 131.5,401C 128.479,398.978 127.479,396.312 128.5,393C 127.283,388.78 125.616,384.78 123.5,381C 123.645,380.228 123.978,379.561 124.5,379C 123.5,378 122.5,377 121.5,376C 123.878,375.026 123.544,374.359 120.5,374C 122.891,372.691 122.891,371.691 120.5,371C 120.833,370.667 121.167,370.333 121.5,370C 120.5,369 119.5,368 118.5,367C 119.517,365.951 119.684,364.784 119,363.5C 117.708,361.751 116.542,359.918 115.5,358C 114.978,355.814 114.978,353.481 115.5,351C 113.006,349.054 112.339,346.721 113.5,344C 111.699,343.683 111.366,343.016 112.5,342C 110.699,341.683 110.366,341.016 111.5,340C 110.258,337.61 108.591,334.944 106.5,332C 107.308,331.692 107.975,331.192 108.5,330.5C 105.5,323.833 102.5,317.167 99.5,310.5C 100.255,307.781 99.5888,305.281 97.5,303C 97.8333,302.667 98.1667,302.333 98.5,302C 97.5,301 96.5,300 95.5,299C 95.8333,298.667 96.1667,298.333 96.5,298C 92.1151,290.706 89.4484,283.373 88.5,276C 87.4147,273.828 86.0814,271.828 84.5,270C 84.7284,269.601 85.0618,269.435 85.5,269.5 Z"/></g>
<g><path style="opacity:1" fill="#fdb82c" d="M 75.5,259.5 C 79.1667,262.5 82.5,265.833 85.5,269.5C 85.0618,269.435 84.7284,269.601 84.5,270C 86.0814,271.828 87.4147,273.828 88.5,276C 89.4484,283.373 92.1151,290.706 96.5,298C 96.1667,298.333 95.8333,298.667 95.5,299C 96.5,300 97.5,301 98.5,302C 98.1667,302.333 97.8333,302.667 97.5,303C 99.5888,305.281 100.255,307.781 99.5,310.5C 102.5,317.167 105.5,323.833 108.5,330.5C 107.975,331.192 107.308,331.692 106.5,332C 108.591,334.944 110.258,337.61 111.5,340C 110.366,341.016 110.699,341.683 112.5,342C 111.366,343.016 111.699,343.683 113.5,344C 112.339,346.721 113.006,349.054 115.5,351C 114.978,353.481 114.978,355.814 115.5,358C 116.542,359.918 117.708,361.751 119,363.5C 119.684,364.784 119.517,365.951 118.5,367C 119.5,368 120.5,369 121.5,370C 121.167,370.333 120.833,370.667 120.5,371C 122.891,371.691 122.891,372.691 120.5,374C 123.544,374.359 123.878,375.026 121.5,376C 122.5,377 123.5,378 124.5,379C 123.978,379.561 123.645,380.228 123.5,381C 125.616,384.78 127.283,388.78 128.5,393C 127.479,396.312 128.479,398.978 131.5,401C 131.5,404 131.5,407 131.5,410C 132.167,410.333 132.833,410.667 133.5,411C 132.167,412.84 132.334,413.34 134,412.5C 134.374,413.416 134.874,414.25 135.5,415C 134.981,417.026 134.647,419.026 134.5,421C 135.167,421.333 135.833,421.667 136.5,422C 136.167,423 135.833,424 135.5,425C 138.271,427.994 138.938,430.994 137.5,434C 138.5,435 139.5,436 140.5,437C 139.833,438 139.167,439 138.5,440C 139.833,441.667 141.167,443.333 142.5,445C 141.57,446.194 140.903,447.527 140.5,449C 142.164,451.264 142.497,453.597 141.5,456C 142.833,457.667 144.167,459.333 145.5,461C 144.833,462.333 143.833,463.333 142.5,464C 142.057,465.518 142.724,466.685 144.5,467.5C 144.023,468.478 143.357,469.311 142.5,470C 139.367,468.74 136.7,469.407 134.5,472C 90.2206,476.229 45.8873,479.395 1.5,481.5C 0.962003,479.883 0.628669,478.216 0.5,476.5C 37.6683,475.409 74.6683,472.242 111.5,467C 117.222,461.614 122.555,455.947 127.5,450C 125.436,447.6 125.436,445.433 127.5,443.5C 126.27,441.067 125.27,438.567 124.5,436C 125.412,433.094 124.746,430.427 122.5,428C 123.687,426.981 124.687,425.814 125.5,424.5C 123.121,421.509 122.455,418.675 123.5,416C 122.5,415 121.5,414 120.5,413C 123.02,409.5 122.687,406.166 119.5,403C 119.833,402 120.167,401 120.5,400C 118.699,399.683 118.366,399.016 119.5,398C 118.614,396.783 117.614,395.449 116.5,394C 116.833,393.667 117.167,393.333 117.5,393C 114.833,392.333 114.833,391.667 117.5,391C 116.167,389.667 116.167,388.333 117.5,387C 116.167,385.333 114.833,383.667 113.5,382C 114.412,379.094 113.746,376.427 111.5,374C 112.167,373.333 112.833,372.667 113.5,372C 112.167,370.333 110.833,368.667 109.5,367C 110.022,366.439 110.355,365.772 110.5,365C 108.65,360.806 106.983,356.639 105.5,352.5C 106.002,351.284 106.335,350.117 106.5,349C 105.5,348 104.5,347 103.5,346C 104.022,345.439 104.355,344.772 104.5,344C 102.534,340.475 100.868,336.808 99.5,333C 100.079,329.703 99.0788,326.703 96.5,324C 96.8333,323 97.1667,322 97.5,321C 96.8333,320.667 96.1667,320.333 95.5,320C 95.5,319 95.5,318 95.5,317C 94.8333,315.667 93.8333,314.667 92.5,314C 92.2549,312.089 92.2549,310.089 92.5,308C 91.4113,305.149 90.078,302.482 88.5,300C 88.8333,299.667 89.1667,299.333 89.5,299C 87.6992,298.683 87.3659,298.016 88.5,297C 86.1925,296.646 85.8592,295.646 87.5,294C 85.0721,284.611 81.7388,276.611 77.5,270C 77.6651,268.883 77.9984,267.716 78.5,266.5C 77.2122,264.261 76.2122,261.928 75.5,259.5 Z"/></g>
<g><path style="opacity:1" fill="#ee5d38" d="M 206.5,390.5 C 207.833,391.5 209.167,392.5 210.5,393.5C 218.5,401.833 226.5,410.167 234.5,418.5C 241.626,434.752 249.293,450.752 257.5,466.5C 261.03,469.195 264.696,471.695 268.5,474C 276.159,474.5 283.826,474.666 291.5,474.5C 293.754,475.124 295.421,476.457 296.5,478.5C 290.929,496.074 279.263,507.074 261.5,511.5C 230.5,511.5 199.5,511.5 168.5,511.5C 193.392,510.829 218.392,509.329 243.5,507C 251.511,505.477 259.178,503.144 266.5,500C 267.64,498.027 268.973,496.193 270.5,494.5C 269.608,491.716 268.442,489.05 267,486.5C 259.963,478.652 251.963,471.986 243,466.5C 230.938,439.428 218.771,414.095 206.5,390.5 Z"/></g>
<g><path style="opacity:1" fill="#e94742" d="M 234.5,418.5 C 241.167,424.833 247.833,431.167 254.5,437.5C 266.527,450.194 278.86,462.527 291.5,474.5C 283.826,474.666 276.159,474.5 268.5,474C 264.696,471.695 261.03,469.195 257.5,466.5C 249.293,450.752 241.626,434.752 234.5,418.5 Z"/></g>
<g><path style="opacity:1" fill="#fba929" d="M 97.5,281.5 C 99.8333,283.5 102.167,285.5 104.5,287.5C 108.833,292.167 113.167,296.833 117.5,301.5C 120.319,311.669 123.985,320.503 128.5,328C 128.262,330.562 129.262,332.896 131.5,335C 131.167,335.333 130.833,335.667 130.5,336C 131.46,337.419 132.293,338.919 133,340.5C 133.333,340.167 133.667,339.833 134,339.5C 132.766,343.142 133.599,346.309 136.5,349C 136.043,349.414 135.709,349.914 135.5,350.5C 137.644,351.886 138.977,353.386 139.5,355C 139.167,355.333 138.833,355.667 138.5,356C 140.455,358.168 141.121,360.502 140.5,363C 142.738,365.104 143.738,367.438 143.5,370C 146.95,375.73 149.117,381.897 150,388.5C 152.235,390.745 153.068,393.245 152.5,396C 156.285,402.902 159.618,409.569 162.5,416C 162.23,419.193 163.23,422.193 165.5,425C 165.167,425.333 164.833,425.667 164.5,426C 165.5,427 166.5,428 167.5,429C 167.043,429.414 166.709,429.914 166.5,430.5C 168.181,432.992 168.848,435.492 168.5,438C 169.833,439.667 171.167,441.333 172.5,443C 172.043,443.414 171.709,443.914 171.5,444.5C 175.174,451.821 177.507,459.321 178.5,467C 179.5,468 180.5,469 181.5,470C 179.195,474.972 175.528,478.639 170.5,481C 161.576,483.368 152.576,485.201 143.5,486.5C 142.833,486.167 142.167,485.833 141.5,485.5C 137.555,486.268 133.555,486.768 129.5,487C 94.1761,488.315 58.8427,489.315 23.5,490C 17.7401,489.878 12.4068,490.711 7.5,492.5C 6.26315,491.035 5.26315,489.368 4.5,487.5C 4.5,486.5 4.5,485.5 4.5,484.5C 52.2096,483.006 99.7096,480.673 147,477.5C 148.667,476.167 150.333,474.833 152,473.5C 152.333,473.833 152.667,474.167 153,474.5C 154.171,473.107 155.671,472.273 157.5,472C 156.833,471.667 156.167,471.333 155.5,471C 158.332,470.02 159.998,468.02 160.5,465C 158.895,462.457 157.562,459.791 156.5,457C 159.669,456.136 159.335,454.803 155.5,453C 155.833,452 156.167,451 156.5,450C 154.545,447.832 153.879,445.498 154.5,443C 153.167,441.333 151.833,439.667 150.5,438C 151.308,437.692 151.975,437.192 152.5,436.5C 150.379,433.837 149.713,431.004 150.5,428C 149.167,426.333 147.833,424.667 146.5,423C 146.835,421.497 146.835,420.164 146.5,419C 143.833,418.333 143.833,417.667 146.5,417C 145.175,414.015 143.842,411.015 142.5,408C 142.645,407.228 142.978,406.561 143.5,406C 142.119,403.413 140.452,400.746 138.5,398C 139.167,397.667 139.833,397.333 140.5,397C 137.987,389.323 134.654,381.656 130.5,374C 129.512,366.963 127.179,360.13 123.5,353.5C 123.709,352.914 124.043,352.414 124.5,352C 118.902,335.837 112.569,320.171 105.5,305C 105.957,304.586 106.291,304.086 106.5,303.5C 103.279,296.891 99.9458,290.391 96.5,284C 97.2524,283.329 97.5858,282.496 97.5,281.5 Z"/></g>
<g><path style="opacity:1" fill="#f99f29" d="M 117.5,301.5 C 120.167,303.833 122.833,306.167 125.5,308.5C 125.833,309.167 126.167,309.833 126.5,310.5C 131.41,323.189 136.576,335.856 142,348.5C 145.039,357.281 149.206,367.115 154.5,378C 154.043,378.414 153.709,378.914 153.5,379.5C 157.294,385.87 159.961,392.37 161.5,399C 162.167,401 163.5,402.333 165.5,403C 165.055,408.453 166.722,413.787 170.5,419C 169.366,420.016 169.699,420.683 171.5,421C 171.704,424.491 173.37,428.158 176.5,432C 174.109,433.309 174.109,434.309 176.5,435C 175.366,436.016 175.699,436.683 177.5,437C 177.167,437.333 176.833,437.667 176.5,438C 178.77,440.807 179.77,443.807 179.5,447C 180.5,448 181.5,449 182.5,450C 181.409,454.729 182.743,458.729 186.5,462C 185.366,463.016 185.699,463.683 187.5,464C 188.239,465.765 188.239,467.765 187.5,470C 188.91,470.368 189.91,471.201 190.5,472.5C 189.667,474.167 188.833,475.833 188,477.5C 176.409,485.308 163.742,488.974 150,488.5C 111.412,490.29 72.7451,491.624 34,492.5C 25.4716,492.502 17.3049,493.169 9.5,494.5C 8.5,494.167 7.83333,493.5 7.5,492.5C 12.4068,490.711 17.7401,489.878 23.5,490C 58.8427,489.315 94.1761,488.315 129.5,487C 133.555,486.768 137.555,486.268 141.5,485.5C 142.167,485.833 142.833,486.167 143.5,486.5C 152.576,485.201 161.576,483.368 170.5,481C 175.528,478.639 179.195,474.972 181.5,470C 180.5,469 179.5,468 178.5,467C 177.507,459.321 175.174,451.821 171.5,444.5C 171.709,443.914 172.043,443.414 172.5,443C 171.167,441.333 169.833,439.667 168.5,438C 168.848,435.492 168.181,432.992 166.5,430.5C 166.709,429.914 167.043,429.414 167.5,429C 166.5,428 165.5,427 164.5,426C 164.833,425.667 165.167,425.333 165.5,425C 163.23,422.193 162.23,419.193 162.5,416C 159.618,409.569 156.285,402.902 152.5,396C 153.068,393.245 152.235,390.745 150,388.5C 149.117,381.897 146.95,375.73 143.5,370C 143.738,367.438 142.738,365.104 140.5,363C 141.121,360.502 140.455,358.168 138.5,356C 138.833,355.667 139.167,355.333 139.5,355C 138.977,353.386 137.644,351.886 135.5,350.5C 135.709,349.914 136.043,349.414 136.5,349C 133.599,346.309 132.766,343.142 134,339.5C 133.667,339.833 133.333,340.167 133,340.5C 132.293,338.919 131.46,337.419 130.5,336C 130.833,335.667 131.167,335.333 131.5,335C 129.262,332.896 128.262,330.562 128.5,328C 123.985,320.503 120.319,311.669 117.5,301.5 Z"/></g>
<g><path style="opacity:1" fill="#f16d32" d="M 192.5,376.5 C 195.5,378.833 198.167,381.5 200.5,384.5C 212.655,411.478 224.821,438.478 237,465.5C 247.152,472.148 254.985,480.815 260.5,491.5C 259.624,492.251 258.624,492.751 257.5,493C 260.051,494.516 259.718,495.349 256.5,495.5C 256.5,496.5 256.5,497.5 256.5,498.5C 250.282,500.509 243.949,502.342 237.5,504C 212.933,507.062 188.266,508.728 163.5,509C 120.665,509.167 77.998,509.667 35.5,510.5C 33.901,510.768 32.5676,510.434 31.5,509.5C 34.977,508.677 38.6437,508.177 42.5,508C 83.8747,507.828 125.208,507.328 166.5,506.5C 169.448,507.032 172.448,507.365 175.5,507.5C 196.266,505.915 216.933,503.415 237.5,500C 241.699,498.664 245.365,496.497 248.5,493.5C 249.582,491.116 250.249,488.95 250.5,487C 248.543,482.917 246.21,479.083 243.5,475.5C 234.269,468.444 228.269,459.611 225.5,449C 214.29,425.379 203.29,401.213 192.5,376.5 Z"/></g>
<g><path style="opacity:1" fill="#f89229" d="M 136.5,320.5 C 139.5,323.167 142.5,325.833 145.5,328.5C 145.833,329.167 146.167,329.833 146.5,330.5C 149.084,337.503 152.084,344.336 155.5,351C 154.483,352.049 154.316,353.216 155,354.5C 157.386,356.731 159.219,359.397 160.5,362.5C 160.291,363.086 159.957,363.586 159.5,364C 165.683,376.869 171.683,389.869 177.5,403C 178.832,407.19 180.832,411.524 183.5,416C 182.465,417.507 182.632,419.007 184,420.5C 184.654,419.304 185.154,419.304 185.5,420.5C 185.167,421.167 184.833,421.833 184.5,422.5C 188.862,430.062 191.862,437.395 193.5,444.5C 196.957,451.374 200.124,458.374 203,465.5C 204.467,468.266 206.3,470.766 208.5,473C 208.087,474.537 208.087,476.204 208.5,478C 207.297,479.368 206.297,480.868 205.5,482.5C 203.377,484.991 200.377,487.157 196.5,489C 184.268,491.571 171.935,493.571 159.5,495C 111.507,496.316 63.5073,497.316 15.5,498C 14.7476,498.671 14.4142,499.504 14.5,500.5C 13.5,500.167 12.8333,499.5 12.5,498.5C 12.5858,497.504 12.2524,496.671 11.5,496C 59.566,495.534 107.566,494.034 155.5,491.5C 156.293,491.931 157.127,492.265 158,492.5C 166.464,490.902 174.964,489.402 183.5,488C 189.986,485.483 195.319,482.149 199.5,478C 198.646,476.119 198.979,474.286 200.5,472.5C 198.141,468.356 195.475,463.856 192.5,459C 193.634,457.984 193.301,457.317 191.5,457C 192.634,455.984 192.301,455.317 190.5,455C 191.062,451.391 190.062,448.058 187.5,445C 187.833,444.667 188.167,444.333 188.5,444C 187.5,443 186.5,442 185.5,441C 184.556,435.886 182.556,430.886 179.5,426C 179.833,425.667 180.167,425.333 180.5,425C 179.328,424.581 178.328,423.915 177.5,423C 178.051,421.602 178.384,420.268 178.5,419C 176.699,418.683 176.366,418.016 177.5,417C 175.699,416.683 175.366,416.016 176.5,415C 176.077,413.491 174.91,411.991 173,410.5C 172.316,409.216 172.483,408.049 173.5,407C 170.984,404.68 169.984,402.013 170.5,399C 167.687,395.815 166.354,392.815 166.5,390C 164.699,389.683 164.366,389.016 165.5,388C 155.939,365.983 146.273,343.483 136.5,320.5 Z"/></g>
<g><path style="opacity:1" fill="#f99929" d="M 126.5,310.5 C 130.167,313.5 133.5,316.833 136.5,320.5C 146.273,343.483 155.939,365.983 165.5,388C 164.366,389.016 164.699,389.683 166.5,390C 166.354,392.815 167.687,395.815 170.5,399C 169.984,402.013 170.984,404.68 173.5,407C 172.483,408.049 172.316,409.216 173,410.5C 174.91,411.991 176.077,413.491 176.5,415C 175.366,416.016 175.699,416.683 177.5,417C 176.366,418.016 176.699,418.683 178.5,419C 178.384,420.268 178.051,421.602 177.5,423C 178.328,423.915 179.328,424.581 180.5,425C 180.167,425.333 179.833,425.667 179.5,426C 182.556,430.886 184.556,435.886 185.5,441C 186.5,442 187.5,443 188.5,444C 188.167,444.333 187.833,444.667 187.5,445C 190.062,448.058 191.062,451.391 190.5,455C 192.301,455.317 192.634,455.984 191.5,457C 193.301,457.317 193.634,457.984 192.5,459C 195.475,463.856 198.141,468.356 200.5,472.5C 198.979,474.286 198.646,476.119 199.5,478C 195.319,482.149 189.986,485.483 183.5,488C 174.964,489.402 166.464,490.902 158,492.5C 157.127,492.265 156.293,491.931 155.5,491.5C 107.566,494.034 59.566,495.534 11.5,496C 12.2524,496.671 12.5858,497.504 12.5,498.5C 10.7376,497.738 9.73758,496.404 9.5,494.5C 17.3049,493.169 25.4716,492.502 34,492.5C 72.7451,491.624 111.412,490.29 150,488.5C 163.742,488.974 176.409,485.308 188,477.5C 188.833,475.833 189.667,474.167 190.5,472.5C 189.91,471.201 188.91,470.368 187.5,470C 188.239,467.765 188.239,465.765 187.5,464C 185.699,463.683 185.366,463.016 186.5,462C 182.743,458.729 181.409,454.729 182.5,450C 181.5,449 180.5,448 179.5,447C 179.77,443.807 178.77,440.807 176.5,438C 176.833,437.667 177.167,437.333 177.5,437C 175.699,436.683 175.366,436.016 176.5,435C 174.109,434.309 174.109,433.309 176.5,432C 173.37,428.158 171.704,424.491 171.5,421C 169.699,420.683 169.366,420.016 170.5,419C 166.722,413.787 165.055,408.453 165.5,403C 163.5,402.333 162.167,401 161.5,399C 159.961,392.37 157.294,385.87 153.5,379.5C 153.709,378.914 154.043,378.414 154.5,378C 149.206,367.115 145.039,357.281 142,348.5C 136.576,335.856 131.41,323.189 126.5,310.5 Z"/></g>
<g><path style="opacity:1" fill="#f37530" d="M 173.5,357.5 C 179.167,362.833 184.833,368.167 190.5,373.5C 191.167,374.5 191.833,375.5 192.5,376.5C 203.29,401.213 214.29,425.379 225.5,449C 228.269,459.611 234.269,468.444 243.5,475.5C 246.21,479.083 248.543,482.917 250.5,487C 250.249,488.95 249.582,491.116 248.5,493.5C 245.365,496.497 241.699,498.664 237.5,500C 216.933,503.415 196.266,505.915 175.5,507.5C 172.448,507.365 169.448,507.032 166.5,506.5C 125.208,507.328 83.8747,507.828 42.5,508C 38.6437,508.177 34.977,508.677 31.5,509.5C 28.4582,509.267 25.7916,508.267 23.5,506.5C 23.3893,505.883 23.056,505.383 22.5,505C 33.8333,504.667 45.1667,504.333 56.5,504C 96.8468,503.883 137.18,503.217 177.5,502C 191.683,501.165 205.683,499.165 219.5,496C 226.075,494.476 231.075,490.809 234.5,485C 233.594,482.553 232.761,480.053 232,477.5C 227.408,471.39 223.242,466.224 219.5,462C 219.738,459.438 218.738,457.104 216.5,455C 216.833,454.667 217.167,454.333 217.5,454C 216.167,452.333 214.833,450.667 213.5,449C 213.833,448.667 214.167,448.333 214.5,448C 200.161,418.153 186.494,387.987 173.5,357.5 Z"/></g>
<g><path style="opacity:1" fill="#f78a2b" d="M 146.5,330.5 C 152.833,336.167 158.833,342.167 164.5,348.5C 171.742,366.433 179.409,383.6 187.5,400C 187.262,402.562 188.262,404.896 190.5,407C 197.47,424.806 205.637,443.972 215,464.5C 218.209,469.309 221.376,473.476 224.5,477C 224.641,480.44 224.141,483.607 223,486.5C 217.703,491.046 211.537,493.88 204.5,495C 195.231,496.771 185.898,498.104 176.5,499C 130.85,500.438 85.183,501.438 39.5,502C 32.8333,502.333 26.1667,502.667 19.5,503C 20.056,503.383 20.3893,503.883 20.5,504.5C 18.2228,503.551 16.2228,502.218 14.5,500.5C 14.4142,499.504 14.7476,498.671 15.5,498C 63.5073,497.316 111.507,496.316 159.5,495C 171.935,493.571 184.268,491.571 196.5,489C 200.377,487.157 203.377,484.991 205.5,482.5C 206.297,480.868 207.297,479.368 208.5,478C 208.087,476.204 208.087,474.537 208.5,473C 206.3,470.766 204.467,468.266 203,465.5C 200.124,458.374 196.957,451.374 193.5,444.5C 191.862,437.395 188.862,430.062 184.5,422.5C 184.833,421.833 185.167,421.167 185.5,420.5C 185.154,419.304 184.654,419.304 184,420.5C 182.632,419.007 182.465,417.507 183.5,416C 180.832,411.524 178.832,407.19 177.5,403C 171.683,389.869 165.683,376.869 159.5,364C 159.957,363.586 160.291,363.086 160.5,362.5C 159.219,359.397 157.386,356.731 155,354.5C 154.316,353.216 154.483,352.049 155.5,351C 152.084,344.336 149.084,337.503 146.5,330.5 Z"/></g>
<g><path style="opacity:1" fill="#f5802e" d="M 164.5,348.5 C 166.167,349.833 167.833,351.167 169.5,352.5C 170.833,354.167 172.167,355.833 173.5,357.5C 186.494,387.987 200.161,418.153 214.5,448C 214.167,448.333 213.833,448.667 213.5,449C 214.833,450.667 216.167,452.333 217.5,454C 217.167,454.333 216.833,454.667 216.5,455C 218.738,457.104 219.738,459.438 219.5,462C 223.242,466.224 227.408,471.39 232,477.5C 232.761,480.053 233.594,482.553 234.5,485C 231.075,490.809 226.075,494.476 219.5,496C 205.683,499.165 191.683,501.165 177.5,502C 137.18,503.217 96.8468,503.883 56.5,504C 45.1667,504.333 33.8333,504.667 22.5,505C 23.056,505.383 23.3893,505.883 23.5,506.5C 21.9731,506.573 20.9731,505.906 20.5,504.5C 20.3893,503.883 20.056,503.383 19.5,503C 26.1667,502.667 32.8333,502.333 39.5,502C 85.183,501.438 130.85,500.438 176.5,499C 185.898,498.104 195.231,496.771 204.5,495C 211.537,493.88 217.703,491.046 223,486.5C 224.141,483.607 224.641,480.44 224.5,477C 221.376,473.476 218.209,469.309 215,464.5C 205.637,443.972 197.47,424.806 190.5,407C 188.262,404.896 187.262,402.562 187.5,400C 179.409,383.6 171.742,366.433 164.5,348.5 Z"/></g>
</svg>
